<svg width="34" height="57" viewBox="0 0 34 57" fill="none" xmlns="http://www.w3.org/2000/svg">
<path d="M21.2135 9.5C23.1454 9.50189 24.9977 10.2702 26.3638 11.6362C27.7298 13.0023 28.4981 14.8546 28.5 16.7865C28.5 17.4164 28.7502 18.0205 29.1956 18.4659C29.641 18.9113 30.2451 19.1615 30.875 19.1615C31.5049 19.1615 32.109 18.9113 32.5544 18.4659C32.9998 18.0205 33.25 17.4164 33.25 16.7865V16.625C33.25 16.5799 33.25 16.5395 33.25 16.4944C33.1707 13.354 31.8681 10.3687 29.6197 8.17488C27.3712 5.98103 24.3549 4.7521 21.2135 4.75H19V2.375C19 1.74511 18.7498 1.14102 18.3044 0.695621C17.859 0.250223 17.2549 0 16.625 0C15.9951 0 15.391 0.250223 14.9456 0.695621C14.5002 1.14102 14.25 1.74511 14.25 2.375V4.75H12.0365C9.18013 4.75305 6.41794 5.77181 4.24364 7.62417C2.06933 9.47654 0.624647 12.0418 0.167801 14.8614C-0.289046 17.681 0.271726 20.5712 1.74988 23.0153C3.22804 25.4595 5.52723 27.2983 8.2365 28.2031L14.25 30.21V47.5H12.0365C10.1046 47.4981 8.25233 46.7298 6.88625 45.3638C5.52018 43.9977 4.75189 42.1454 4.75 40.2135C4.75 39.5836 4.49978 38.9795 4.05438 38.5341C3.60898 38.0887 3.00489 37.8385 2.375 37.8385C1.74511 37.8385 1.14102 38.0887 0.695622 38.5341C0.250223 38.9795 0 39.5836 0 40.2135V40.375C0 40.4201 0 40.4605 0 40.5056C0.0792617 43.646 1.38192 46.6313 3.63034 48.8251C5.87876 51.019 8.89511 52.2479 12.0365 52.25H14.25V54.625C14.25 55.2549 14.5002 55.859 14.9456 56.3044C15.391 56.7498 15.9951 57 16.625 57C17.2549 57 17.859 56.7498 18.3044 56.3044C18.7498 55.859 19 55.2549 19 54.625V52.25H21.2135C24.0699 52.2469 26.8321 51.2282 29.0064 49.3758C31.1807 47.5235 32.6254 44.9582 33.0822 42.1386C33.539 39.319 32.9783 36.4288 31.5001 33.9847C30.022 31.5405 27.7228 29.7017 25.0135 28.7969L19 26.79V9.5H21.2135ZM23.5173 33.2999C25.1594 33.8464 26.5534 34.9596 27.4496 36.4402C28.3458 37.9208 28.6858 39.672 28.4087 41.3804C28.1315 43.0887 27.2553 44.6427 25.937 45.7639C24.6186 46.8852 22.9442 47.5006 21.2135 47.5H19V31.7941L23.5173 33.2999ZM14.25 25.2059L9.7375 23.7001C8.09576 23.1537 6.70204 22.0409 5.80577 20.5608C4.9095 19.0807 4.56918 17.33 4.84572 15.622C5.12225 13.9139 5.99759 12.36 7.31508 11.2384C8.63256 10.1167 10.3062 9.50049 12.0365 9.5H14.25V25.2059Z" fill="white"/>
</svg>
