<svg width="50" height="50" viewBox="0 0 50 50" fill="none" xmlns="http://www.w3.org/2000/svg">
<g clip-path="url(#clip0_417_458)">
<path d="M45.9519 10.8957L30.5894 3.57699C27.2078 1.55707 22.9988 1.52123 19.5832 3.48324L4.04784 10.8957C3.98954 10.9249 3.92909 10.9562 3.87284 10.9895C0.186124 13.0975 -1.09376 17.7951 1.01425 21.4818C1.7288 22.7316 2.77987 23.7556 4.04784 24.4374L8.33329 26.4791V36.6874C8.33583 41.2522 11.306 45.285 15.6645 46.6416C18.6976 47.5191 21.8427 47.9487 25 47.9166C28.1568 47.952 31.3018 47.526 34.3354 46.6521C38.6939 45.2955 41.6642 41.2626 41.6667 36.6979V26.4749L45.8334 24.4832V41.6665C45.8334 42.8171 46.7661 43.7498 47.9167 43.7498C49.0673 43.7498 50 42.8171 50 41.6665V16.6665C50.0139 14.2202 48.0822 11.9602 45.9519 10.8957ZM37.4999 36.6979C37.501 39.4283 35.7295 41.8434 33.1249 42.6624C30.4837 43.4171 27.7467 43.7834 24.9999 43.7499C22.2531 43.7834 19.5161 43.4171 16.8749 42.6624C14.2703 41.8433 12.4988 39.4283 12.4999 36.6979V28.4646L19.4103 31.7563C21.1154 32.7688 23.0628 33.3008 25.0458 33.2958C26.9333 33.3092 28.7891 32.8095 30.4145 31.85L37.4999 28.4645V36.6979ZM44.1666 20.677L28.4541 28.177C26.2633 29.4527 23.5477 29.4165 21.3916 28.0832L6.01864 20.7707C4.30507 19.8467 3.66503 17.7085 4.58905 15.9951C4.90155 15.4156 5.37011 14.9352 5.94159 14.6082L21.5561 7.14994C23.7476 5.87709 26.4617 5.91313 28.6186 7.24369L43.9811 14.5624C45.1109 15.1898 45.8178 16.3745 45.8332 17.6666C45.8352 18.8907 45.205 20.0289 44.1666 20.677Z" fill="white"/>
</g>
<defs>
<clipPath id="clip0_417_458">
<rect width="50" height="50" fill="white"/>
</clipPath>
</defs>
</svg>
