<svg width="570" height="570" viewBox="0 0 570 570" fill="none" xmlns="http://www.w3.org/2000/svg">
<path d="M274.027 458.491C397.724 458.491 497.999 451.569 497.999 443.03C497.999 434.491 397.724 427.569 274.027 427.569C150.331 427.569 50.0557 434.491 50.0557 443.03C50.0557 451.569 150.331 458.491 274.027 458.491Z" fill="#F51F3C"/>
<path d="M284.041 517.558C433.958 517.558 555.489 501.709 555.489 482.159C555.489 462.609 433.958 446.76 284.041 446.76C134.124 446.76 12.5918 462.609 12.5918 482.159C12.5918 501.709 134.124 517.558 284.041 517.558Z" fill="#F51F3C"/>
<path d="M482.155 374.642C482.155 374.642 504.1 373.034 503.815 399.402C503.559 422.909 486.322 424.185 482.583 424.185C482.127 424.185 481.87 424.168 481.87 424.168H314.575V415.869H318.862H481.585C481.585 415.869 493.401 413.464 493.84 400.342C494.41 383.208 480.445 383.208 480.445 383.208H318.862H314.575V380.912V374.642H426.295H482.155Z" fill="#F51F3C"/>
<path d="M503.241 439.852C503.555 439.852 503.811 440.109 503.811 440.422C503.811 440.736 503.555 440.992 503.241 440.992V440.422V439.852Z" fill="black"/>
<path d="M503.241 445.74C503.555 445.74 503.811 445.997 503.811 446.31C503.811 446.624 503.555 446.88 503.241 446.88V446.31V445.74Z" fill="black"/>
<path d="M503.241 452.392C503.555 452.392 503.811 452.648 503.811 452.962C503.811 453.275 503.555 453.532 503.241 453.532V452.962V452.392Z" fill="black"/>
<path d="M503.241 453.532V461.769H322.141C322.141 461.769 308.985 459.557 308.501 447.501C307.868 431.752 323.406 431.752 323.406 431.752H503.241V439.852H321.098C320.784 439.852 320.528 440.108 320.528 440.422C320.528 440.735 320.784 440.992 321.098 440.992H503.241V445.74H331.928C331.614 445.74 331.358 445.997 331.358 446.31C331.358 446.624 331.614 446.88 331.928 446.88H503.241V452.392H359.288C358.974 452.392 358.718 452.648 358.718 452.962C358.718 453.275 358.974 453.532 359.288 453.532H503.241Z" fill="#FFEAED"/>
<path d="M503.242 452.962V453.532H359.288C358.975 453.532 358.718 453.275 358.718 452.962C358.718 452.648 358.975 452.392 359.288 452.392H503.242V452.962V452.962Z" fill="black"/>
<path d="M503.242 446.31V446.88H331.928C331.615 446.88 331.358 446.624 331.358 446.31C331.358 445.997 331.615 445.74 331.928 445.74H503.242V446.31V446.31Z" fill="black"/>
<path d="M503.241 440.992H321.098C320.784 440.992 320.528 440.736 320.528 440.422C320.528 440.109 320.784 439.852 321.098 439.852H503.241V440.422V440.992V440.992Z" fill="black"/>
<path d="M480.445 383.209C480.445 383.209 494.41 383.209 493.84 400.343C493.401 413.465 481.585 415.87 481.585 415.87H318.862V407.89H474.078C474.392 407.89 474.648 407.633 474.648 407.32C474.648 407.006 474.392 406.75 474.078 406.75H318.862V399.973H456.79C457.104 399.973 457.36 399.716 457.36 399.403C457.36 399.088 457.104 398.833 456.79 398.833H318.862V391.554H461.92C462.234 391.554 462.49 391.297 462.49 390.984C462.49 390.67 462.234 390.414 461.92 390.414H318.862V383.209H480.445Z" fill="#FFEAED"/>
<path d="M474.078 406.75C474.392 406.75 474.648 407.006 474.648 407.32C474.648 407.633 474.392 407.89 474.078 407.89H318.862V407.32V406.75H474.078Z" fill="black"/>
<path d="M461.92 390.413C462.234 390.413 462.49 390.67 462.49 390.983C462.49 391.297 462.234 391.553 461.92 391.553H318.862V390.983V390.413H461.92Z" fill="black"/>
<path d="M456.79 398.832C457.104 398.832 457.36 399.088 457.36 399.402C457.36 399.716 457.104 399.972 456.79 399.972H318.862V399.402V398.832H456.79Z" fill="black"/>
<path d="M319.211 376.388V376.958C318.898 376.958 318.641 376.702 318.641 376.388C318.641 376.075 318.898 375.818 319.211 375.818V376.388Z" fill="black"/>
<path d="M319.211 368.471V369.041C318.898 369.041 318.641 368.785 318.641 368.471C318.641 368.157 318.898 367.901 319.211 367.901V368.471Z" fill="black"/>
<path d="M319.211 360.052V360.622C318.898 360.622 318.641 360.366 318.641 360.052C318.641 359.739 318.898 359.482 319.211 359.482V360.052Z" fill="black"/>
<path d="M308.501 447.501C308.985 459.557 322.141 461.768 322.141 461.768H503.241H508.012V469.395H321.822C321.822 469.395 297.717 470.871 297.397 446.641C297.175 429.535 309.276 425.237 316.412 424.194L370.306 423.881H433.77H508.012V431.752H503.241H323.406C323.406 431.752 307.868 431.752 308.501 447.501Z" fill="#750F1D"/>
<path d="M212.781 238.26V311.032H96.3296V238.26H212.781ZM190.927 273.03V257.293H163.208V273.03H190.927ZM144.21 280.628V265.432H132.428V254.22H108.488V267.9H120.458V280.628H144.21Z" fill="#FFEAED"/>
<path d="M190.927 257.293H163.208V273.03H190.927V257.293Z" fill="white"/>
<path d="M154.555 402.608L149.528 440.422H96.3296L91.3877 402.608H102.548C102.611 402.745 102.645 402.825 102.645 402.831C102.736 403.047 102.947 403.178 103.17 403.178C103.244 403.178 103.318 403.161 103.392 403.133C103.608 403.042 103.74 402.831 103.74 402.608H119.888C119.888 402.62 119.888 402.625 119.888 402.625C119.893 402.933 120.15 403.178 120.458 403.178C120.463 403.178 120.469 403.178 120.475 403.178C120.783 403.173 121.022 402.922 121.028 402.608H134.138C134.138 402.614 134.138 402.614 134.138 402.614C134.143 402.928 134.394 403.178 134.708 403.178H134.713C135.027 403.173 135.283 402.916 135.278 402.608H154.555Z" fill="#750F1D"/>
<path d="M144.21 265.432V280.628H120.458V267.9H132.428V265.432H144.21Z" fill="#F51F3C" fill-opacity="0.17"/>
<path d="M141.833 377.882C141.764 378.007 141.696 378.127 141.628 378.252C141.519 378.047 141.422 377.836 141.331 377.608C141.274 377.459 141.223 377.306 141.172 377.152L140.989 377.14C140.989 377.111 140.995 377.083 140.995 377.049C145.395 369.206 151.637 363.311 159.543 359.538C159.828 359.402 160.164 359.522 160.301 359.807C160.438 360.092 160.318 360.428 160.033 360.565C152.247 364.282 146.125 370.113 141.833 377.882Z" fill="black"/>
<path d="M140.995 377.05C141.086 374.758 139.661 372.073 139.456 369.747C139.154 366.339 139.268 361.751 140.545 358.57C142.79 352.984 148.684 347.951 154.84 347.888C156.789 347.871 159.252 348.339 161.122 347.9C164.171 347.182 164.53 344.44 165.334 342.041C167.238 336.329 176.523 336.25 179.561 340.906C181.687 344.167 182.793 348.653 181.79 352.5C180.889 355.955 177.446 361.085 174.471 363.091C170.623 365.684 165.613 364.59 161.92 367.639C160.232 369.03 159.229 371.971 159.594 374.149C160.033 376.725 162.045 378.554 162.262 381.325C162.706 387.156 155.769 387.692 151.386 386.598C148.781 385.947 147.396 384.187 145.543 382.465C143.936 380.972 142.505 379.946 141.627 378.252C141.696 378.127 141.764 378.007 141.833 377.882C146.125 370.113 152.247 364.282 160.033 360.566C160.318 360.429 160.438 360.093 160.301 359.808C160.164 359.523 159.828 359.403 159.543 359.539C151.637 363.313 145.395 369.206 140.995 377.05Z" fill="#E22953"/>
<path d="M134.138 402.608C134.138 402.38 134.081 389.55 140.83 377.335C140.881 377.238 140.938 377.141 140.995 377.05C140.995 377.084 140.989 377.112 140.989 377.141L141.172 377.152C141.223 377.307 141.274 377.46 141.331 377.608C141.422 377.836 141.519 378.048 141.628 378.252C135.204 390.137 135.278 402.477 135.278 402.603V402.609H134.708H134.138V402.608Z" fill="black"/>
<path d="M134.708 402.608H135.278C135.283 402.916 135.027 403.173 134.713 403.178H134.708C134.394 403.178 134.143 402.928 134.138 402.614C134.138 402.614 134.138 402.614 134.138 402.608H134.708Z" fill="black"/>
<path d="M131.675 361.528C135.397 364.225 135.842 369.64 133.431 373.538C130.769 377.842 124.134 383.149 118.708 381.564C118.702 381.506 118.691 381.45 118.679 381.393C115.932 365.775 109.873 345.192 96.6602 335.832C96.4037 335.656 96.0446 335.713 95.8622 335.969C95.6798 336.226 95.7425 336.585 95.999 336.767C108.858 345.87 114.809 366.059 117.539 381.449C110.716 381.016 103.432 379.226 97.0877 376.912C93.0407 375.436 87.9278 372.164 88.3439 367.228C88.5776 364.458 90.641 362.719 92.7215 361.192C94.3232 360.012 96.0275 358.684 95.3834 356.392C94.7279 354.061 91.8722 353.878 89.8601 353.023C87.0044 351.809 84.0632 350.287 82.1195 347.848C77.132 341.572 77.7932 333.752 84.3596 329.032C90.1565 324.871 97.1846 324.318 103.74 326.786C109.77 329.066 117.437 334.391 117.42 341.282C117.408 346.515 115.14 350.59 119.551 354.728C123.091 358.046 127.822 358.735 131.675 361.528Z" fill="#F51F3C"/>
<path d="M132.428 265.432V267.9H120.458H108.488V254.22H132.428V265.432Z" fill="white"/>
<path d="M120.458 402.608H121.028C121.022 402.922 120.783 403.173 120.475 403.178C120.469 403.178 120.463 403.178 120.458 403.178C120.15 403.178 119.893 402.933 119.888 402.625C119.888 402.625 119.888 402.619 119.888 402.608H120.458Z" fill="black"/>
<path d="M119.888 402.608C119.876 402.141 119.574 393.01 117.562 381.587C117.556 381.541 117.545 381.496 117.539 381.45C117.733 381.467 117.927 381.478 118.121 381.49C118.269 381.506 118.411 381.513 118.559 381.518C118.611 381.535 118.656 381.547 118.708 381.564C120.76 393.237 121.028 402.499 121.028 402.591C121.028 402.597 121.028 402.603 121.028 402.608H120.458H119.888Z" fill="black"/>
<path d="M103.17 402.608H103.74C103.74 402.831 103.609 403.042 103.392 403.133C103.318 403.161 103.244 403.178 103.17 403.178C102.947 403.178 102.736 403.047 102.645 402.831C102.645 402.825 102.611 402.746 102.548 402.608H103.17Z" fill="black"/>
<path d="M95.999 336.768C95.7425 336.585 95.6798 336.226 95.8622 335.97C96.0446 335.713 96.4037 335.656 96.6602 335.833C109.873 345.192 115.932 365.775 118.679 381.394C118.691 381.451 118.702 381.507 118.708 381.565C118.656 381.547 118.611 381.536 118.56 381.519C118.411 381.513 118.269 381.507 118.121 381.49C117.927 381.478 117.733 381.468 117.539 381.451C114.809 366.06 108.858 345.871 95.999 336.768Z" fill="black"/>
<path d="M93.1034 390.456C93.2231 390.313 93.3314 390.154 93.4283 389.989C93.434 389.995 93.4454 390 93.4511 390.006L93.5651 390.091C93.662 390.171 93.7646 390.245 93.8615 390.33C100.935 395.922 103.586 402.129 103.694 402.386C103.728 402.46 103.74 402.534 103.74 402.608H103.17H102.548C102.007 401.468 99.2537 396.048 93.1376 391.208C93.1091 391.185 93.0863 391.163 93.0635 391.151C93.1376 391.106 93.2117 391.06 93.2915 391.02L93.491 390.764C93.3656 390.655 93.2345 390.558 93.1034 390.456Z" fill="black"/>
<path d="M92.75 390.906L92.864 390.992C92.9267 391.043 92.9894 391.088 93.0635 391.151C90.9887 392.32 89.7461 393.249 87.2096 393.819C84.0233 394.537 80.78 394.593 77.5139 394.628C72.1844 394.685 67.7612 393.112 63.2696 390.49C59.1371 388.079 54.9932 384.152 54.1952 379.067C53.2832 373.282 58.8407 366.55 65.1392 368.014C66.9005 368.425 67.2482 370.317 68.069 371.64C69.0038 373.15 69.8759 373.549 71.6771 373.731C76.3739 374.199 80.4437 370.579 85.3115 372.392C89.5979 373.982 92.8241 378.228 93.719 382.623C94.1294 384.635 94.5854 388.016 93.4283 389.988C88.2356 385.998 82.0796 383.41 75.1427 382.287C74.8292 382.235 74.5385 382.452 74.4872 382.76C74.4359 383.073 74.6525 383.364 74.9603 383.415C81.7205 384.505 87.7112 387.024 92.75 390.906Z" fill="#E22953"/>
<path d="M92.8641 390.992L92.7501 390.906C87.7113 387.025 81.7206 384.506 74.9604 383.416C74.6526 383.365 74.436 383.074 74.4873 382.761C74.5386 382.453 74.8293 382.237 75.1428 382.288C82.0797 383.411 88.2357 385.999 93.4284 389.989C93.3315 390.154 93.2232 390.313 93.1035 390.456C93.2346 390.559 93.3657 390.656 93.4911 390.764L93.2916 391.02C93.2118 391.06 93.1377 391.106 93.0636 391.151C92.9895 391.089 92.9268 391.043 92.8641 390.992Z" fill="black"/>
<path d="M442.166 162.45L439.886 172.71L401.126 162.45H442.166Z" fill="#E22953"/>
<path d="M421.8 108.3L400.995 119.13L414.39 103.871L421.8 108.3Z" fill="#E22953"/>
<path d="M402.705 219.256L397.005 225.435L381.33 198.218L402.705 219.256Z" fill="#E22953"/>
<path d="M388.17 68.1152L365.655 95.1902L376.485 63.5552L388.17 68.1152Z" fill="#E22953"/>
<path d="M327.916 194.501V194.57C327.916 194.883 328.172 195.134 328.486 195.134C328.776 195.134 329.021 194.912 329.05 194.627C332.054 194.975 334.835 195.368 337.395 195.795C337.389 195.83 337.383 195.858 337.383 195.892C337.383 196.206 337.639 196.462 337.953 196.462C338.232 196.462 338.466 196.257 338.511 195.989V195.983C347.597 197.557 353.736 199.443 356.945 200.583C358.718 201.216 359.601 201.621 359.601 201.621L356.033 209.903C355.428 209.726 354.825 209.549 354.221 209.384C333.284 203.542 313.813 203.365 307.503 203.49C306.13 203.519 305.377 203.559 305.377 203.559L304.733 193.299C306.09 193.299 307.418 193.31 308.717 193.333C315.877 193.453 322.273 193.892 327.916 194.501Z" fill="#750F1D"/>
<path d="M345.665 156.482C346.555 154.066 347.393 152.287 348.168 151.193C349.354 149.511 351.514 148.508 353.953 148.508C356.079 148.508 357.841 149.289 358.137 150.378C358.428 151.432 357.288 152.817 355.008 154.168C352.5 155.656 349.359 156.437 345.665 156.482Z" fill="#FFC962"/>
<path d="M348.168 151.193C347.392 152.287 346.554 154.066 345.665 156.482C349.358 156.437 352.499 155.656 355.008 154.168C357.288 152.817 358.428 151.432 358.136 150.378C357.84 149.289 356.079 148.508 353.952 148.508C351.513 148.508 349.353 149.511 348.168 151.193ZM345.044 156.517C345.905 154.145 346.805 152.133 347.7 150.862C351.884 144.923 364.897 148.958 355.298 154.658C352.46 156.34 349.016 157.041 345.426 157.058C345.426 156.978 345.414 156.898 345.38 156.83C345.369 156.802 345.352 156.767 345.329 156.733C345.312 156.705 345.283 156.67 345.255 156.648C345.232 156.625 345.204 156.602 345.175 156.585C345.152 156.568 345.129 156.551 345.107 156.539C345.084 156.534 345.067 156.522 345.044 156.517Z" fill="black"/>
<path d="M345.374 157.286C345.334 157.4 345.295 157.514 345.26 157.628C345.124 157.628 344.993 157.622 344.856 157.622C345.089 157.622 345.289 157.486 345.374 157.286Z" fill="black"/>
<path d="M345.329 156.733C345.352 156.767 345.369 156.801 345.38 156.83C345.369 156.796 345.352 156.762 345.329 156.733Z" fill="black"/>
<path d="M345.329 156.733C345.352 156.762 345.369 156.796 345.38 156.83C345.415 156.899 345.426 156.978 345.426 157.058C345.238 157.058 345.044 157.058 344.856 157.052C344.918 156.87 344.982 156.693 345.044 156.517C345.067 156.522 345.084 156.534 345.107 156.539C345.129 156.551 345.158 156.568 345.175 156.585C345.203 156.602 345.232 156.625 345.255 156.648C345.283 156.671 345.312 156.705 345.329 156.733Z" fill="black"/>
<path d="M344.463 156.471C345.443 153.729 346.349 151.786 347.232 150.532C348.629 148.548 351.142 147.368 353.952 147.368C356.672 147.368 358.792 148.451 359.237 150.076C359.55 151.216 359.169 153.022 355.589 155.149C352.819 156.79 349.354 157.628 345.295 157.628C345.283 157.628 345.272 157.628 345.26 157.628C345.295 157.514 345.334 157.4 345.374 157.286C345.409 157.218 345.425 157.138 345.425 157.058C349.016 157.041 352.459 156.34 355.298 154.658C364.896 148.958 351.883 144.923 347.7 150.862C346.805 152.133 345.904 154.145 345.043 156.517C345.003 156.499 344.958 156.488 344.907 156.488C344.901 156.482 344.895 156.482 344.89 156.482C344.878 156.482 344.873 156.482 344.861 156.482C344.855 156.482 344.855 156.482 344.85 156.482C344.719 156.482 344.594 156.477 344.463 156.471Z" fill="black"/>
<path d="M345.295 157.628C349.353 157.628 352.819 156.79 355.589 155.148C359.169 153.022 359.55 151.215 359.237 150.075C358.792 148.451 356.672 147.368 353.952 147.368C351.142 147.368 348.629 148.548 347.232 150.531C346.349 151.785 345.442 153.729 344.463 156.471C340.25 156.345 335.445 155.28 331.159 153.495C330.999 148.992 330.737 146.268 330.378 145.168C329.785 143.389 327.995 142.232 325.818 142.232C324.279 142.232 322.887 142.848 322.09 143.868C321.571 144.535 321.047 145.704 321.497 147.471C322.039 149.585 325.299 152.179 330.047 154.259C330.326 162.661 330.213 174.272 330.178 177.088L328.553 176.894C328.388 176.877 328.228 176.922 328.109 177.031C327.983 177.139 327.915 177.293 327.915 177.458V188.773C319.353 186.402 311.807 182.081 305.924 176.427C297.363 168.19 292.335 157.138 292.848 145.191C293.886 121.216 316.874 102.743 344.2 103.923C371.52 105.102 392.832 125.497 391.795 149.466C391.077 166.07 379.831 180.035 363.905 186.658C356.837 189.605 348.845 191.098 340.45 190.734C340.165 190.722 339.88 190.705 339.595 190.688L341.972 179.094C342.006 178.94 341.966 178.775 341.875 178.644C341.784 178.518 341.641 178.433 341.481 178.416L340.017 178.245C340.535 175.646 342.69 165.112 345.261 157.628C345.272 157.628 345.283 157.628 345.295 157.628Z" fill="#FFC962"/>
<path d="M345.255 156.648C345.232 156.625 345.204 156.602 345.175 156.585C345.204 156.602 345.232 156.625 345.255 156.648Z" fill="black"/>
<path d="M345.175 156.584C345.158 156.567 345.129 156.551 345.107 156.539C345.129 156.551 345.152 156.567 345.175 156.584Z" fill="black"/>
<path d="M345.106 156.539C345.084 156.534 345.067 156.522 345.044 156.517C345.067 156.522 345.084 156.534 345.106 156.539Z" fill="black"/>
<path d="M344.908 156.488C344.902 156.482 344.896 156.482 344.891 156.482C344.896 156.482 344.902 156.482 344.908 156.488Z" fill="black"/>
<path d="M344.856 157.052C345.044 157.058 345.238 157.058 345.426 157.058C345.426 157.138 345.409 157.218 345.375 157.286C345.289 157.485 345.09 157.622 344.856 157.622C344.85 157.622 344.85 157.622 344.85 157.622C344.787 157.622 344.73 157.611 344.673 157.588C344.73 157.406 344.793 157.229 344.856 157.052Z" fill="black"/>
<path d="M344.85 156.482C344.856 156.482 344.856 156.482 344.861 156.482C344.873 156.482 344.879 156.482 344.891 156.482C344.896 156.482 344.902 156.482 344.907 156.488C344.959 156.488 345.004 156.499 345.044 156.516C344.982 156.693 344.918 156.87 344.856 157.052C344.668 157.052 344.48 157.047 344.286 157.035C344.286 156.978 344.298 156.921 344.321 156.864C344.332 156.836 344.343 156.807 344.355 156.779C344.457 156.596 344.651 156.482 344.85 156.482Z" fill="black"/>
<path d="M344.85 156.482C344.651 156.482 344.457 156.596 344.354 156.779C344.389 156.676 344.423 156.568 344.463 156.471C344.594 156.477 344.719 156.482 344.85 156.482Z" fill="black"/>
<path d="M344.85 157.622C344.788 157.622 344.725 157.622 344.662 157.617C344.668 157.605 344.668 157.594 344.674 157.588C344.731 157.611 344.788 157.622 344.85 157.622Z" fill="black"/>
<path d="M344.856 157.052C344.794 157.229 344.731 157.406 344.674 157.588C344.56 157.554 344.457 157.48 344.389 157.377C344.315 157.275 344.281 157.155 344.286 157.035C344.48 157.047 344.668 157.052 344.856 157.052Z" fill="black"/>
<path d="M344.32 156.864C344.297 156.921 344.285 156.978 344.285 157.035C344.28 157.035 344.274 157.035 344.262 157.035C344.28 156.978 344.303 156.921 344.32 156.864Z" fill="black"/>
<path d="M344.388 157.377C344.456 157.48 344.559 157.554 344.673 157.588C344.667 157.594 344.667 157.605 344.662 157.617C344.468 157.617 344.269 157.611 344.069 157.6C344.131 157.406 344.194 157.218 344.263 157.035C344.274 157.035 344.28 157.035 344.285 157.035C344.28 157.155 344.314 157.275 344.388 157.377Z" fill="black"/>
<path d="M344.069 157.6C341.493 165.209 339.361 175.686 338.882 178.108L331.318 177.219C331.346 174.671 331.466 163.248 331.204 154.75C335.417 156.437 339.92 157.434 344.069 157.6Z" fill="#FFC962"/>
<path d="M339.595 190.688C339.88 190.705 340.165 190.722 340.45 190.734C348.845 191.098 356.837 189.605 363.905 186.658V186.664L356.945 200.583C353.736 199.443 347.598 197.556 338.511 195.983L339.595 190.688Z" fill="#FFC962"/>
<path d="M341.972 179.094L339.595 190.688C339.401 190.677 339.213 190.665 339.025 190.654L341.413 178.98L339.914 178.803C339.926 178.724 339.965 178.536 340.017 178.245L341.482 178.416C341.641 178.433 341.784 178.518 341.875 178.644C341.966 178.775 342.006 178.94 341.972 179.094Z" fill="black"/>
<path d="M340.729 179.476L338.449 190.608C335.217 190.363 332.077 189.839 329.056 189.069V178.102L330.624 178.285L339.345 179.311L340.729 179.476Z" fill="#FFC962"/>
<path d="M340.433 242.393C342.285 242.678 341.858 247.095 336.158 252.083C330.458 257.07 320.352 258.792 316.424 260.353C314.037 258.41 310.69 256.021 308.724 254.642C308.724 254.642 314.783 238.26 316.493 239.828C318.203 241.395 317.918 248.093 317.918 248.093C317.918 248.093 338.58 242.108 340.433 242.393Z" fill="#FDA181"/>
<path d="M345.261 157.628C342.69 165.112 340.535 175.646 340.017 178.245L339.453 178.176C339.949 175.668 342.08 165.203 344.663 157.617C344.726 157.622 344.788 157.622 344.851 157.622C344.851 157.622 344.851 157.622 344.857 157.622C344.993 157.622 345.124 157.628 345.261 157.628Z" fill="black"/>
<path d="M338.449 190.608L340.729 179.476L339.344 179.311V179.305C339.612 179.305 339.852 179.117 339.903 178.843C339.903 178.838 339.908 178.826 339.914 178.803L341.413 178.98L339.025 190.654C338.831 190.642 338.637 190.625 338.449 190.608Z" fill="black"/>
<path d="M339.595 190.688L338.512 195.983C338.329 195.949 338.142 195.921 337.954 195.886L339.025 190.654C339.213 190.665 339.401 190.677 339.595 190.688Z" fill="black"/>
<path d="M338.882 178.108C339.361 175.686 341.493 165.209 344.069 157.599C344.27 157.611 344.468 157.617 344.662 157.617C342.08 165.203 339.948 175.668 339.452 178.176L338.882 178.108Z" fill="black"/>
<path d="M340.016 178.245C339.965 178.536 339.926 178.724 339.914 178.804L339.344 178.735C339.344 178.735 339.384 178.541 339.452 178.177L340.016 178.245Z" fill="black"/>
<path d="M338.785 178.627C338.785 178.61 338.82 178.433 338.882 178.108L339.452 178.177C339.384 178.541 339.344 178.735 339.344 178.735L338.78 178.667C338.78 178.655 338.785 178.638 338.785 178.627Z" fill="black"/>
<path d="M339.236 179.294C338.939 179.237 338.74 178.963 338.779 178.667L339.343 178.735L339.913 178.803C339.908 178.826 339.902 178.838 339.902 178.843C339.851 179.117 339.611 179.305 339.343 179.305C339.31 179.305 339.276 179.299 339.236 179.294Z" fill="black"/>
<path d="M338.449 190.608C338.637 190.625 338.832 190.642 339.025 190.654L337.954 195.886C337.771 195.858 337.583 195.824 337.395 195.795C337.395 195.789 337.395 195.778 337.395 195.772L338.449 190.608Z" fill="black"/>
<path d="M331.319 177.219L338.883 178.108C338.82 178.433 338.786 178.61 338.786 178.627C338.786 178.638 338.78 178.655 338.78 178.667L331.308 177.795C331.313 177.777 331.313 177.755 331.313 177.732C331.313 177.715 331.313 177.538 331.319 177.219Z" fill="black"/>
<path d="M329.055 189.069C332.076 189.839 335.217 190.363 338.448 190.608L337.394 195.772C337.394 195.778 337.394 195.79 337.394 195.795C334.835 195.368 332.053 194.974 329.049 194.627C329.055 194.61 329.055 194.587 329.055 194.564V189.069H329.055Z" fill="#FFC962"/>
<path d="M337.953 195.886C338.141 195.921 338.329 195.949 338.511 195.983V195.989C338.466 196.257 338.232 196.462 337.953 196.462C337.639 196.462 337.383 196.206 337.383 195.892C337.383 195.858 337.389 195.829 337.395 195.795C337.583 195.824 337.771 195.858 337.953 195.886Z" fill="black"/>
<path d="M331.159 153.495C335.445 155.28 340.25 156.345 344.463 156.471C344.423 156.568 344.389 156.676 344.354 156.779C344.343 156.807 344.332 156.836 344.32 156.864C344.303 156.921 344.28 156.978 344.263 157.035C339.742 156.881 335.068 155.707 331.187 154.122C331.181 154.043 331.181 153.963 331.175 153.883C331.175 153.877 331.175 153.872 331.175 153.866C331.17 153.741 331.165 153.615 331.159 153.495Z" fill="black"/>
<path d="M331.188 154.123C335.069 155.707 339.743 156.881 344.263 157.035C344.194 157.218 344.132 157.406 344.069 157.6C339.919 157.434 335.416 156.437 331.204 154.75C331.199 154.539 331.193 154.328 331.188 154.123Z" fill="black"/>
<path d="M331.313 177.732C331.313 177.755 331.313 177.778 331.307 177.795L330.743 177.726C330.743 177.726 330.748 177.521 330.748 177.151L331.318 177.219C331.313 177.538 331.313 177.715 331.313 177.732Z" fill="black"/>
<path d="M330.748 177.151C330.783 174.472 330.903 163.009 330.629 154.51C330.822 154.59 331.017 154.67 331.204 154.75C331.467 163.248 331.347 174.671 331.318 177.219L330.748 177.151Z" fill="black"/>
<path d="M331.204 154.75C331.017 154.67 330.823 154.59 330.629 154.51C330.629 154.487 330.623 154.47 330.623 154.453C330.731 154.447 330.84 154.413 330.931 154.351C331.022 154.288 331.09 154.202 331.13 154.1C331.147 154.111 331.165 154.117 331.188 154.123C331.193 154.328 331.199 154.539 331.204 154.75Z" fill="black"/>
<path d="M331.13 154.1C331.159 154.031 331.176 153.957 331.176 153.883C331.182 153.963 331.182 154.043 331.188 154.123C331.165 154.117 331.147 154.111 331.13 154.1Z" fill="black"/>
<path d="M331.159 153.496C331.164 153.615 331.17 153.741 331.175 153.866C331.17 153.632 331.004 153.439 330.805 153.353C330.811 153.353 330.822 153.353 330.828 153.359C330.936 153.404 331.05 153.45 331.159 153.496Z" fill="black"/>
<path d="M330.606 153.883C330.777 153.957 330.953 154.031 331.13 154.1C331.091 154.202 331.022 154.288 330.931 154.351C330.839 154.413 330.731 154.447 330.623 154.453C330.617 154.259 330.611 154.071 330.606 153.883Z" fill="black"/>
<path d="M330.748 177.15C330.748 177.521 330.743 177.726 330.743 177.726L330.173 177.658C330.173 177.567 330.178 177.373 330.178 177.088L330.748 177.15Z" fill="black"/>
<path d="M339.344 179.311L330.623 178.285C330.657 178.29 330.697 178.296 330.737 178.296H330.743C331.033 178.296 331.273 178.08 331.307 177.795L338.779 178.667C338.74 178.963 338.939 179.237 339.236 179.294C339.275 179.299 339.31 179.305 339.343 179.305V179.311H339.344Z" fill="black"/>
<path d="M330.179 177.088C330.213 174.272 330.327 162.661 330.048 154.259C330.156 154.311 330.27 154.356 330.384 154.407C330.464 154.442 330.55 154.476 330.629 154.51C330.903 163.009 330.784 174.471 330.749 177.15L330.179 177.088Z" fill="black"/>
<path d="M330.583 153.313C330.657 153.307 330.738 153.325 330.806 153.353C331.005 153.439 331.171 153.632 331.176 153.866C331.176 153.872 331.176 153.877 331.176 153.883C331.176 153.957 331.159 154.031 331.13 154.1C330.954 154.031 330.777 153.957 330.606 153.883C330.6 153.689 330.594 153.501 330.583 153.313Z" fill="black"/>
<path d="M330.629 154.51C330.549 154.476 330.463 154.442 330.384 154.408C330.452 154.436 330.532 154.453 330.606 154.453C330.612 154.453 330.618 154.453 330.623 154.453C330.623 154.47 330.629 154.487 330.629 154.51Z" fill="black"/>
<path d="M330.606 153.883C330.429 153.809 330.259 153.729 330.081 153.655C330.139 153.524 330.241 153.421 330.366 153.364C330.401 153.347 330.435 153.336 330.469 153.33C330.509 153.319 330.544 153.313 330.583 153.313C330.594 153.501 330.6 153.689 330.606 153.883Z" fill="black"/>
<path d="M330.469 153.33C330.435 153.336 330.401 153.347 330.366 153.364C330.401 153.353 330.435 153.336 330.469 153.33Z" fill="black"/>
<path d="M330.383 154.408C330.173 154.316 330.041 154.123 330.036 153.906C330.036 153.86 330.036 153.815 330.048 153.769C330.053 153.729 330.064 153.695 330.082 153.661C330.082 153.655 330.082 153.655 330.082 153.655C330.259 153.729 330.43 153.809 330.606 153.883C330.612 154.071 330.618 154.259 330.623 154.453C330.618 154.453 330.611 154.453 330.606 154.453C330.532 154.453 330.452 154.436 330.383 154.408Z" fill="black"/>
<path d="M330.173 177.658L330.743 177.726L331.307 177.795C331.272 178.08 331.034 178.296 330.743 178.296H330.737C330.697 178.296 330.657 178.29 330.623 178.285C330.361 178.228 330.167 177.994 330.173 177.72C330.173 177.715 330.173 177.692 330.173 177.658Z" fill="black"/>
<path d="M330.036 153.906C330.041 154.122 330.173 154.316 330.383 154.407C330.269 154.356 330.155 154.311 330.047 154.259C330.041 154.14 330.041 154.02 330.036 153.906Z" fill="black"/>
<path d="M330.082 153.661C330.065 153.695 330.053 153.729 330.047 153.769C330.053 153.735 330.065 153.695 330.082 153.661Z" fill="black"/>
<path d="M330.002 152.994C325.954 151.136 323.025 148.856 322.603 147.186C322.335 146.125 322.467 145.248 322.991 144.569C323.573 143.823 324.633 143.372 325.819 143.372C327.089 143.372 328.766 143.937 329.296 145.527C329.512 146.182 329.802 148.018 330.002 152.994Z" fill="#FFC962"/>
<path d="M328.485 177.458L330.173 177.658C330.173 177.692 330.173 177.715 330.173 177.721C330.167 177.994 330.361 178.228 330.623 178.285L329.055 178.102V189.069C328.862 189.024 328.674 188.978 328.485 188.927V177.458Z" fill="black"/>
<path d="M328.485 194.564V188.927C328.674 188.978 328.862 189.024 329.055 189.069V194.564C329.055 194.587 329.056 194.61 329.05 194.627C328.862 194.604 328.674 194.587 328.485 194.564Z" fill="black"/>
<path d="M328.554 176.894L330.178 177.088C330.178 177.373 330.173 177.567 330.173 177.658L328.486 177.458V188.927C328.297 188.876 328.104 188.824 327.916 188.773V177.458C327.916 177.293 327.984 177.139 328.109 177.031C328.229 176.923 328.389 176.877 328.554 176.894Z" fill="black"/>
<path d="M328.486 188.927V194.564C328.297 194.541 328.104 194.524 327.916 194.501V188.773C328.104 188.824 328.297 188.875 328.486 188.927Z" fill="black"/>
<path d="M328.486 194.564C328.674 194.587 328.862 194.604 329.05 194.627C329.021 194.912 328.776 195.134 328.486 195.134C328.172 195.134 327.916 194.883 327.916 194.57V194.501C328.104 194.524 328.297 194.541 328.486 194.564Z" fill="black"/>
<path d="M327.916 188.773V194.501C322.273 193.891 315.877 193.453 308.718 193.333L305.925 176.427C311.807 182.081 319.354 186.402 327.916 188.773Z" fill="#FFC962"/>
<path d="M326.325 60.7052L325.071 86.6402L319.212 60.7052H326.325Z" fill="#E22953"/>
<path d="M310.838 212.667C316.464 212.821 332.504 213.602 348.96 217.609L348.84 218.111L347.415 225.435C325.071 221.16 310.935 220.59 310.935 220.59L310.827 213.083L310.838 212.667Z" fill="#750F1D"/>
<path d="M329.295 145.527C328.765 143.937 327.089 143.372 325.818 143.372C324.632 143.372 323.572 143.823 322.991 144.569C322.466 145.248 322.335 146.125 322.602 147.186C323.024 148.856 325.954 151.136 330.001 152.994C329.802 148.018 329.511 146.182 329.295 145.527ZM322.05 147.328C320.722 142.09 328.508 141.36 329.836 145.35C330.206 146.467 330.44 149.511 330.583 153.313C330.544 153.313 330.509 153.319 330.469 153.33C330.435 153.336 330.401 153.353 330.366 153.364C330.241 153.421 330.139 153.524 330.081 153.655C325.715 151.706 322.546 149.278 322.05 147.328Z" fill="black"/>
<path d="M329.837 145.35C328.508 141.36 320.722 142.09 322.05 147.328C322.546 149.278 325.715 151.706 330.082 153.655C330.082 153.655 330.082 153.655 330.082 153.661C330.065 153.695 330.053 153.735 330.047 153.769C330.035 153.815 330.035 153.86 330.035 153.906C330.041 154.02 330.041 154.14 330.047 154.259C325.299 152.179 322.039 149.585 321.497 147.471C321.047 145.704 321.572 144.535 322.09 143.868C322.888 142.848 324.279 142.232 325.818 142.232C327.995 142.232 329.785 143.389 330.378 145.168C330.737 146.268 330.999 148.993 331.159 153.496C331.051 153.45 330.936 153.404 330.828 153.359C330.822 153.353 330.811 153.353 330.806 153.353C330.737 153.325 330.657 153.307 330.583 153.313C330.441 149.511 330.207 146.467 329.837 145.35Z" fill="black"/>
<path d="M308.724 254.642C310.69 256.021 314.036 258.41 316.424 260.353C317.861 261.522 318.955 262.525 319.2 263.055C319.388 263.466 317.639 265.096 314.743 267.399C310.451 262.998 301.052 257.292 301.052 257.292C304.608 255.075 307.088 253.508 307.088 253.508C307.088 253.508 307.732 253.947 308.724 254.642Z" fill="#F51F3C" fill-opacity="0.17"/>
<path d="M353.97 210.33L350.978 218.111C350.305 217.934 349.633 217.769 348.96 217.609C332.504 213.602 316.464 212.821 310.838 212.667C309.476 212.633 308.724 212.633 308.724 212.633L307.515 204.203L307.504 203.49C313.813 203.365 333.284 203.541 354.221 209.384L353.97 210.33Z" fill="#F51F3C"/>
<path d="M289.338 85.01L294.405 108.3L279.813 87.575L289.338 85.01Z" fill="#E22953"/>
<path d="M286.425 182.115L265.62 198.218L261.63 190.791L286.425 182.115Z" fill="#E22953"/>
<path d="M275.88 147.328L243.282 142.802L245.67 132.525L275.88 147.328Z" fill="#E22953"/>
<path d="M276.45 292.695C271.605 293.693 256.643 283.575 256.643 283.575L256.204 283.438C256.591 282.15 256.865 281.033 256.928 280.298C257.07 278.628 255.326 273.805 253.582 269.479C259.151 277.795 268.231 289.241 277.647 292.262C277.14 292.49 276.735 292.638 276.45 292.695Z" fill="#750F1D"/>
<path d="M244.707 492.646C252.02 494.703 258.592 493.324 261.043 492.651L261.345 495.473C261.345 495.473 278.018 498.893 281.295 500.044C284.573 501.196 284.003 507.443 284.003 507.443L243.675 505.02L244.707 492.646Z" fill="#263138"/>
<path d="M240.278 344.867V344.861C242.769 344.491 245.248 344.018 247.665 343.425C268.613 338.295 269.468 336.3 269.468 336.3C269.468 336.3 269.992 396.623 264.862 428.828C264.862 428.828 264.053 486.922 262.058 492.337C262.058 492.337 261.699 492.468 261.043 492.651C258.592 493.324 252.02 494.703 244.707 492.645C244.365 492.554 244.023 492.451 243.675 492.337C243.675 492.337 243.863 438.33 244.718 430.92C245.573 423.51 235.359 365.512 235.359 365.512L235.005 365.421C238.072 353.491 240.278 344.867 240.278 344.867Z" fill="#750F1D"/>
<path d="M238.545 230.423C238.545 230.423 254.186 233.267 245.271 246.058C242.239 246.217 237.787 246.605 234.418 246.919C231.711 247.175 229.71 247.38 229.71 247.38L228.154 241.253L227.288 237.833C227.288 237.833 238.118 232.988 238.545 230.423Z" fill="#263138"/>
<path d="M237.645 258.022V261.06L227.972 254.938L237.645 258.022Z" fill="#750F1D"/>
<path d="M234.418 246.918L237.645 258.022L227.972 254.938L225.72 254.22L229.71 247.38C229.71 247.38 231.711 247.175 234.418 246.918Z" fill="#F51F3C" fill-opacity="0.17"/>
<path d="M223.999 218.099C224.523 217.985 224.774 217.079 224.552 216.081C224.335 215.078 223.731 214.36 223.206 214.474C222.682 214.588 222.431 215.494 222.648 216.492C222.87 217.495 223.474 218.213 223.999 218.099ZM229.824 214.668C230.046 215.671 230.651 216.389 231.175 216.275C231.699 216.161 231.95 215.255 231.728 214.252C231.511 213.254 230.907 212.53 230.383 212.65C229.858 212.764 229.608 213.665 229.824 214.668ZM228.673 218.122C228.741 218.407 230.024 223.634 231.135 225.435L233.603 222.3C231.489 221.377 228.838 218.31 228.673 218.122ZM206.625 225.008C206.91 220.163 211.47 220.733 211.47 220.733L211.67 217.028C211.67 217.028 216.036 214.212 219.051 209.829C219.256 209.772 219.444 209.72 219.621 209.68C220.237 209.595 221.61 209.487 222.477 209.675C222.785 209.737 223.087 209.544 223.155 209.236C223.218 208.928 223.024 208.626 222.716 208.557C221.781 208.358 220.556 208.432 219.9 208.5C221.605 205.548 222.551 202.014 221.303 198.218C221.303 198.218 229.055 198.354 231.87 206.277C230.189 206.591 228.935 207.229 228.878 207.258C228.599 207.406 228.49 207.748 228.633 208.027C228.735 208.221 228.935 208.335 229.14 208.335C229.231 208.335 229.317 208.312 229.402 208.272C229.414 208.267 230.599 207.657 232.15 207.378C232.178 207.372 232.201 207.366 232.23 207.366C232.834 209.202 233.501 211.236 234.168 213.311C236.505 220.613 238.87 228.485 238.545 230.423C238.118 232.988 227.288 237.833 227.288 237.833C227.288 237.833 224.153 238.887 220.02 237.189C220.02 237.189 222.551 240.648 228.154 241.253L229.71 247.38L225.72 254.22L215.033 250.943C219.593 239.97 213.465 228.855 213.465 228.855C213.465 228.855 206.34 229.853 206.625 225.008ZM230.776 232.463C232.748 231.135 232.942 228 232.942 228C232.942 228 228.285 229.522 224.107 229.14C224.107 229.14 228.804 233.797 230.776 232.463Z" fill="#FDA181"/>
<path d="M233.603 222.3L231.135 225.435C230.024 223.634 228.741 218.407 228.673 218.122C228.838 218.31 231.489 221.377 233.603 222.3Z" fill="white"/>
<path d="M232.942 228C232.942 228 232.748 231.135 230.776 232.463C228.804 233.797 224.107 229.14 224.107 229.14C228.285 229.522 232.942 228 232.942 228Z" fill="white"/>
<path d="M234.39 207.286C233.729 207.207 233.005 207.241 232.23 207.366C232.173 207.184 232.11 207.001 232.053 206.819C232.03 206.756 232.013 206.688 231.99 206.625C231.95 206.505 231.91 206.391 231.87 206.277C231.899 206.272 231.922 206.266 231.95 206.26C232.868 206.095 233.729 206.061 234.527 206.158C234.834 206.192 235.062 206.477 235.023 206.79C234.988 207.098 234.703 207.326 234.39 207.286Z" fill="black"/>
<path d="M231.175 216.275C230.651 216.389 230.047 215.671 229.824 214.668C229.608 213.665 229.858 212.764 230.383 212.65C230.907 212.53 231.511 213.254 231.728 214.252C231.95 215.255 231.7 216.161 231.175 216.275Z" fill="#231F20"/>
<path d="M232.15 207.378C230.599 207.657 229.414 208.267 229.402 208.273C229.317 208.312 229.231 208.335 229.14 208.335C228.935 208.335 228.735 208.221 228.633 208.027C228.49 207.748 228.599 207.406 228.878 207.258C228.935 207.229 230.189 206.591 231.87 206.278C231.91 206.392 231.95 206.506 231.99 206.625C232.013 206.688 232.03 206.756 232.053 206.819C232.11 207.001 232.173 207.184 232.23 207.366C232.201 207.366 232.178 207.372 232.15 207.378Z" fill="black"/>
<path d="M227.288 237.833L228.154 241.253C222.551 240.649 220.02 237.189 220.02 237.189C224.153 238.887 227.288 237.833 227.288 237.833Z" fill="white"/>
<path d="M225.72 254.22L220.208 262.958L214.645 254.226L214.639 254.22L212.781 251.308V251.302C214.178 251.08 215.033 250.943 215.033 250.943L225.72 254.22Z" fill="#F51F3C" fill-opacity="0.17"/>
<path d="M223.206 214.474C223.731 214.36 224.335 215.078 224.552 216.081C224.774 217.079 224.523 217.985 223.999 218.099C223.474 218.213 222.87 217.495 222.648 216.492C222.431 215.494 222.682 214.588 223.206 214.474Z" fill="#231F20"/>
<path d="M220.59 267.9L214.645 254.226L220.208 262.958L225.72 254.22L227.972 254.938L220.59 267.9Z" fill="#750F1D"/>
<path d="M222.477 209.675C221.61 209.487 220.237 209.595 219.621 209.68C219.444 209.72 219.256 209.772 219.051 209.829C219.216 209.595 219.37 209.356 219.524 209.116C219.524 209.116 219.524 209.116 219.53 209.116C219.655 208.917 219.781 208.711 219.9 208.501C220.556 208.432 221.781 208.358 222.716 208.558C223.024 208.626 223.218 208.928 223.155 209.236C223.087 209.544 222.785 209.737 222.477 209.675Z" fill="black"/>
<path d="M219.051 209.829C217.752 210.188 215.996 210.815 215.443 211.39C215.335 211.51 215.181 211.567 215.033 211.567C214.89 211.567 214.748 211.516 214.639 211.407C214.411 211.191 214.406 210.832 214.622 210.604C215.7 209.464 219.017 208.649 219.393 208.563C219.422 208.557 219.45 208.552 219.479 208.546C219.547 208.54 219.695 208.518 219.901 208.5C219.781 208.711 219.656 208.917 219.53 209.116C219.524 209.116 219.524 209.116 219.524 209.116C219.37 209.355 219.217 209.595 219.051 209.829Z" fill="black"/>
<path d="M201.957 335.445C201.985 334.305 199.831 329.118 199.831 329.118L201.147 328.496C201.147 328.496 209.048 311.647 208.193 307.087C207.805 305.007 201.267 289.024 197.79 280.605C196.513 277.521 195.653 275.452 195.653 275.452L195.197 275.361L191.839 291.794L186.675 301.53L198.024 322.683C191.452 324.312 187.16 327.317 185.148 328.998C179.835 320.397 170.105 304.523 170.003 303.383C169.86 301.815 189.383 256.5 190.095 255.645C190.26 255.446 191.708 255.081 193.829 254.648C199.09 253.559 208.489 252.003 212.781 251.302V251.307L214.639 254.22L214.645 254.226L220.59 267.9L227.972 254.938L237.645 261.06V258.022L234.418 246.918C237.787 246.605 242.239 246.217 245.271 246.058C247.101 245.967 248.412 245.955 248.663 246.098C249.66 246.668 274.313 272.318 276.023 272.175C277.237 272.073 292.364 262.719 301.051 257.292C301.051 257.292 310.451 262.998 314.743 267.399C305.332 274.888 283.826 289.48 277.647 292.262C268.231 289.241 259.151 277.795 253.582 269.479C255.326 273.805 257.07 278.628 256.928 280.298C256.865 281.033 256.591 282.15 256.204 283.438C254.876 287.856 252.225 294.263 252.225 294.263C252.225 294.263 265.905 319.2 269.468 336.3C269.468 336.3 268.613 338.295 247.665 343.425C245.248 344.018 242.769 344.491 240.278 344.862C221.177 347.751 201.25 344.868 201.25 344.868C201.66 340.569 201.94 336.027 201.957 335.445Z" fill="#F51F3C"/>
<path d="M206.625 225.008C206.34 229.853 213.465 228.855 213.465 228.855C213.465 228.855 219.593 239.97 215.033 250.943C215.033 250.943 214.178 251.079 212.781 251.302C208.489 252.003 199.09 253.559 193.829 254.648V254.642C193.812 254.642 188.67 254.636 187.958 246.525C187.245 238.403 197.505 234.27 198.503 229.283C199.5 224.295 192.945 220.163 194.085 212.183C195.225 204.203 201.638 194.085 220.02 191.093C238.403 188.1 241.042 204.322 234.168 213.311C233.501 211.236 232.834 209.202 232.23 207.366C233.005 207.241 233.729 207.207 234.39 207.286C234.703 207.326 234.988 207.098 235.023 206.79C235.063 206.477 234.835 206.192 234.527 206.158C233.729 206.061 232.868 206.095 231.95 206.26C231.922 206.266 231.899 206.272 231.871 206.277C229.055 198.354 221.303 198.218 221.303 198.218C222.551 202.014 221.605 205.548 219.901 208.5C219.695 208.518 219.547 208.54 219.479 208.546C219.45 208.552 219.422 208.557 219.393 208.563C219.017 208.649 215.7 209.464 214.622 210.604C214.406 210.832 214.411 211.191 214.639 211.407C214.748 211.516 214.89 211.567 215.033 211.567C215.181 211.567 215.335 211.51 215.443 211.39C215.996 210.815 217.752 210.188 219.051 209.829C216.036 214.212 211.67 217.028 211.67 217.028L211.47 220.733C211.47 220.733 206.91 220.163 206.625 225.008Z" fill="#263138"/>
<path d="M198.024 322.683L201.147 328.496L199.831 329.118L190.203 333.661L188.528 334.448C188.528 334.448 187.154 332.242 185.147 328.998C187.16 327.317 191.452 324.313 198.024 322.683Z" fill="#F51F3C" fill-opacity="0.17"/>
<path d="M199.831 329.118C199.831 329.118 201.985 334.305 201.957 335.445C201.94 336.027 201.66 340.569 201.25 344.867C200.857 349 200.344 352.899 199.831 352.83C199.437 352.779 198.451 352.18 197.277 351.194C195.328 349.547 192.871 346.822 191.805 343.71C190.095 338.723 190.203 333.661 190.203 333.661L199.831 329.118Z" fill="#FDA181"/>
<path d="M194.94 436.905C195.368 428.783 197.055 352.266 197.277 351.194C198.451 352.18 199.437 352.779 199.831 352.83C200.344 352.899 200.857 349 201.25 344.867C201.25 344.867 221.177 347.752 240.278 344.861V344.867C240.278 344.867 238.072 353.491 235.005 365.422C228.416 391.009 217.866 431.792 216.6 435.195C216.6 435.195 215.603 458.383 203.205 488.165C203.205 488.165 202.749 488.314 201.923 488.49C199.392 489.037 193.378 489.881 186.265 487.732C185.467 487.487 184.652 487.208 183.825 486.883C183.825 486.883 194.513 445.028 194.94 436.905Z" fill="#750F1D"/>
<path d="M186.265 487.732C193.378 489.882 199.392 489.037 201.923 488.49L200.355 504.308L161.738 505.02C161.738 505.02 161.738 500.318 162.878 498.038C164.018 495.758 183.825 492.195 183.825 492.195L186.265 487.732Z" fill="#263138"/>
<path d="M195.653 275.453C195.653 275.453 196.513 277.522 197.79 280.606L197.779 280.611L191.839 291.795L195.197 275.362L195.653 275.453Z" fill="#750F1D"/>
<path d="M377.91 139.27C377.35 133.942 372.675 125.512 368.411 122.548C367.203 121.708 363.171 119.756 361.647 121.107C359.15 123.319 362.849 127.136 364.23 128.63C366.534 131.122 369.074 133.663 370.605 136.59C371.744 138.765 372.156 141.643 373.636 143.544C377.785 148.874 379.911 142.133 377.53 138.13" fill="white"/>
<path d="M376.39 154.09C375.86 155.399 374.282 160.497 374.863 162.07C375.751 164.474 378.469 165.116 380.132 162.83C382.76 159.217 377.171 151.322 375.63 155.99" fill="white"/>
</svg>
