<svg width="55" height="55" viewBox="0 0 55 55" fill="none" xmlns="http://www.w3.org/2000/svg">
<mask id="mask0_417_454" style="mask-type:alpha" maskUnits="userSpaceOnUse" x="0" y="0" width="55" height="55">
<g clip-path="url(#clip0_417_454)">
<path d="M41.2362 5.23872C38.439 2.73975 35.0133 1.05089 31.3278 0.353873C27.6422 -0.343143 23.8364 -0.0219177 20.3198 1.28298C16.8032 2.58787 13.7091 4.82704 11.3703 7.75949C9.03159 10.6919 7.53679 14.2067 7.04681 17.9254C6.60677 21.1861 6.9587 24.5048 8.07284 27.6007C9.18697 30.6966 11.0305 33.4785 13.4474 35.711C14.9421 37.0217 16.1481 38.6286 16.9892 40.4298C17.8302 42.231 18.2879 44.1874 18.3333 46.1748V46.5437C18.3357 48.7857 19.2274 50.9352 20.8127 52.5205C22.3981 54.1058 24.5475 54.9975 26.7895 55H28.2104C30.4523 54.9975 32.6018 54.1058 34.1871 52.5205C35.7725 50.9352 36.6642 48.7857 36.6666 46.5437V45.2856C36.7009 43.5289 37.1143 41.8004 37.8784 40.2183C38.6426 38.6362 39.7395 37.2379 41.0941 36.1189C43.2909 34.1949 45.0537 31.8261 46.2659 29.1694C47.4781 26.5127 48.1118 23.6287 48.1253 20.7086C48.1387 17.7884 47.5315 14.8987 46.3438 12.231C45.1561 9.56319 43.4152 7.17825 41.2362 5.23413V5.23872ZM28.2104 50.4166H26.7895C25.7627 50.4154 24.7783 50.007 24.0523 49.2809C23.3262 48.5549 22.9178 47.5705 22.9166 46.5437C22.9166 46.5437 22.9006 45.9479 22.8983 45.8333H32.0833V46.5437C32.0821 47.5705 31.6736 48.5549 30.9476 49.2809C30.2215 50.007 29.2371 50.4154 28.2104 50.4166V50.4166ZM38.0645 32.6768C35.4553 34.9399 33.571 37.9219 32.647 41.25H29.7916V24.7866C31.1274 24.3144 32.2847 23.4409 33.1052 22.2857C33.9256 21.1306 34.3691 19.7501 34.3749 18.3333C34.3749 17.7255 34.1335 17.1426 33.7037 16.7128C33.274 16.2831 32.6911 16.0416 32.0833 16.0416C31.4755 16.0416 30.8926 16.2831 30.4628 16.7128C30.033 17.1426 29.7916 17.7255 29.7916 18.3333C29.7916 18.9411 29.5502 19.524 29.1204 19.9538C28.6906 20.3835 28.1077 20.625 27.4999 20.625C26.8922 20.625 26.3093 20.3835 25.8795 19.9538C25.4497 19.524 25.2083 18.9411 25.2083 18.3333C25.2083 17.7255 24.9668 17.1426 24.5371 16.7128C24.1073 16.2831 23.5244 16.0416 22.9166 16.0416C22.3088 16.0416 21.7259 16.2831 21.2962 16.7128C20.8664 17.1426 20.6249 17.7255 20.6249 18.3333C20.6308 19.7501 21.0743 21.1306 21.8947 22.2857C22.7151 23.4409 23.8724 24.3144 25.2083 24.7866V41.25H22.1787C21.1451 37.8336 19.2067 34.7604 16.5687 32.356C14.3296 30.2697 12.7341 27.5864 11.9704 24.6227C11.2067 21.6591 11.3067 18.5389 12.2585 15.6303C13.2104 12.7216 14.9745 10.146 17.3425 8.20726C19.7105 6.26854 22.5838 5.04767 25.6231 4.68872C26.2531 4.61839 26.8866 4.58319 27.5206 4.5833C31.4567 4.5716 35.2565 6.0239 38.1814 8.65788C39.8765 10.1695 41.231 12.0241 42.155 14.0988C43.079 16.1735 43.5515 18.421 43.5411 20.6922C43.5307 22.9633 43.0377 25.2064 42.0947 27.2725C41.1517 29.3387 39.7803 31.1809 38.0714 32.6768H38.0645Z" fill="black"/>
</g>
</mask>
<g mask="url(#mask0_417_454)">
<rect x="-51.8572" y="-50.2858" width="157.143" height="157.143" fill="white"/>
</g>
<defs>
<clipPath id="clip0_417_454">
<rect width="55" height="55" fill="white"/>
</clipPath>
</defs>
</svg>
