<svg width="105" height="53" viewBox="0 0 105 53" fill="none" xmlns="http://www.w3.org/2000/svg">
<path d="M98.9476 41.9971C97.4648 41.8658 96.0551 43.3766 95.7215 44.7174C95.3556 46.1939 96.0099 47.8661 97.2797 48.7012C97.9232 49.123 98.6894 49.3382 99.4577 49.377C100.224 49.4157 101.018 49.278 101.67 48.8755C103.069 48.0103 103.504 45.998 102.798 44.5151C102.12 43.0861 100.502 42.1348 98.9476 41.9971Z" fill="white" stroke="white" stroke-width="0.21522" stroke-miterlimit="10"/>
<path d="M101.311 3.65567C100.075 2.77758 98.4267 2.85935 96.9159 2.97557C95.192 3.10901 93.3562 3.28334 91.996 4.35298C90.1451 5.81002 89.7641 8.43356 89.7039 10.7881C89.6156 14.2036 89.9105 17.6277 90.5669 20.9809C91.1372 23.8949 91.9809 26.7552 93.0807 29.5122C94.0556 31.9549 95.2716 35.519 97.144 37.4215C98.4246 38.7236 98.7625 37.5549 99.7159 36.1065C100.514 34.8948 101.182 33.5992 101.735 32.2562C102.789 29.7016 103.42 26.9812 103.732 24.2393C104.319 19.0697 103.831 13.8442 103.321 8.66598C103.142 6.81725 102.828 4.73393 101.311 3.65567Z" fill="white" stroke="white" stroke-width="0.21522" stroke-miterlimit="10"/>
<path d="M16.2529 37.5969C16.34 36.6383 16.4272 35.6361 16.5143 34.5903C16.6305 33.5446 16.7177 32.5424 16.7758 31.5838C16.8629 30.6251 16.9355 29.7682 16.9936 29.0129C17.0517 28.2577 17.0808 27.7057 17.0808 27.3571C17.0808 26.6019 16.892 25.9337 16.5143 25.3528C16.1657 24.7427 15.4686 24.4377 14.4228 24.4377C13.0285 24.4377 11.8955 25.0913 11.0241 26.3985C10.1817 27.7057 9.68783 29.4487 9.54258 31.6273C9.48448 32.2374 9.41186 33.0943 9.32471 34.1982C9.23757 35.273 9.15042 36.3768 9.06327 37.5097C8.97613 38.6136 8.88898 39.6158 8.80183 40.5163C8.74373 41.3878 8.71469 41.9252 8.71469 42.1285C8.71469 42.4771 8.64206 42.7095 8.49682 42.8257C8.38062 42.9419 8.13371 43 7.75607 43H6.18743C5.28691 43 4.54616 42.9129 3.96518 42.7386C3.41325 42.5352 2.96299 42.2593 2.61441 41.9107C2.29487 41.5621 2.06248 41.1409 1.91723 40.647C1.80104 40.1242 1.74294 39.5287 1.74294 38.8605C1.74294 38.2214 1.78651 37.3355 1.87366 36.2025C1.98985 35.0406 2.1351 33.4574 2.30939 31.453C2.48369 29.4196 2.68703 26.8343 2.91942 23.697C3.15181 20.5597 3.39873 16.6671 3.66017 12.0193C3.68922 11.3802 3.76184 11.0026 3.87803 10.8864C3.96518 10.7992 4.19757 10.7557 4.57521 10.7557H6.27457C7.14604 10.7557 7.87227 10.8573 8.45324 11.0607C9.03422 11.264 9.49901 11.54 9.84759 11.8886C10.1962 12.2372 10.4431 12.6438 10.5883 13.1086C10.7336 13.5444 10.8062 14.0091 10.8062 14.503C10.8062 15.0259 10.7481 15.999 10.6319 17.4224C10.5448 18.8458 10.4286 20.5161 10.2833 22.4333C11.1548 20.9809 12.1134 19.9787 13.1592 19.4268C14.234 18.8748 15.5848 18.5989 17.2115 18.5989C18.4316 18.5989 19.4918 18.7296 20.3924 18.991C21.2929 19.2525 22.0336 19.7027 22.6146 20.3418C23.2246 20.9518 23.6749 21.7652 23.9654 22.7819C24.2559 23.7696 24.4011 25.0042 24.4011 26.4857C24.4011 26.9505 24.3575 27.7493 24.2704 28.8822C24.1833 30.0151 24.0671 31.3078 23.9218 32.7602C23.8056 34.2127 23.6749 35.7378 23.5297 37.3355C23.4135 38.9041 23.3118 40.342 23.2246 41.6492C23.1956 41.9688 23.1665 42.2157 23.1375 42.39C23.1084 42.5643 23.0503 42.695 22.9632 42.7821C22.9051 42.8693 22.8034 42.9274 22.6582 42.9564C22.5129 42.9855 22.3096 43 22.0482 43H20.6538C19.7242 43 18.969 42.9129 18.388 42.7386C17.807 42.5643 17.3567 42.3173 17.0372 41.9978C16.7177 41.6783 16.4853 41.2861 16.34 40.8213C16.2238 40.3275 16.1657 39.7756 16.1657 39.1655C16.1657 38.875 16.1657 38.5991 16.1657 38.3376C16.1948 38.0762 16.2238 37.8293 16.2529 37.5969ZM38.362 43.4357C37.0838 43.4357 35.8057 43.276 34.5275 42.9564C33.2784 42.6369 32.1455 42.085 31.1288 41.3006C30.1411 40.5163 29.3278 39.4706 28.6887 38.1633C28.0496 36.8561 27.7301 35.2149 27.7301 33.2396C27.7301 32.5133 27.7882 31.6419 27.9044 30.6251C28.0205 29.6084 28.2384 28.5627 28.558 27.4879C28.9065 26.413 29.3713 25.3528 29.9523 24.307C30.5623 23.2322 31.3467 22.2736 32.3053 21.4312C33.2639 20.5887 34.4258 19.9061 35.7911 19.3832C37.1564 18.8603 38.7832 18.5989 40.6714 18.5989C42.1819 18.5989 43.4601 18.7732 44.5058 19.1218C45.5516 19.4703 46.394 19.9497 47.0331 20.5597C47.6722 21.1407 48.1369 21.8233 48.4274 22.6076C48.7179 23.392 48.8632 24.2344 48.8632 25.1349C48.8632 26.4711 48.5872 27.6041 48.0353 28.5336C47.5124 29.4632 46.8152 30.2475 45.9438 30.8866C45.1013 31.4966 44.1572 31.9759 43.1115 32.3245C42.0657 32.6731 41.0345 32.9491 40.0178 33.1524C39.0011 33.3267 38.057 33.4429 37.1855 33.501C36.3431 33.53 35.6895 33.5446 35.2247 33.5446C35.2247 34.0965 35.2973 34.6484 35.4426 35.2004C35.6169 35.7232 35.8638 36.188 36.1833 36.5947C36.5028 37.0014 36.9241 37.3355 37.4469 37.5969C37.9698 37.8583 38.6089 37.9891 39.3642 37.9891C40.1194 37.9891 40.7004 37.8729 41.1071 37.6405C41.5428 37.379 41.8914 37.1031 42.1529 36.8126C42.4143 36.493 42.6322 36.2171 42.8065 35.9847C43.0098 35.7232 43.2712 35.5925 43.5908 35.5925C43.736 35.5925 43.9829 35.6361 44.3315 35.7232C44.7092 35.7813 45.0868 35.9266 45.4644 36.159C45.8421 36.3914 46.1761 36.7109 46.4666 37.1176C46.7571 37.5243 46.9024 38.0472 46.9024 38.6862C46.9024 39.5287 46.6409 40.2549 46.118 40.8649C45.5952 41.4749 44.9125 41.9688 44.0701 42.3464C43.2567 42.724 42.3417 43 41.325 43.1743C40.3083 43.3486 39.3206 43.4357 38.362 43.4357ZM39.1899 24.3941C38.5508 24.3941 37.9989 24.583 37.5341 24.9606C37.0983 25.3092 36.7207 25.7594 36.4012 26.3114C36.1107 26.8633 35.8783 27.4733 35.704 28.1415C35.5588 28.8096 35.4426 29.4487 35.3554 30.0587C37.1564 30.0296 38.6089 29.7246 39.7128 29.1436C40.8457 28.5627 41.4121 27.7348 41.4121 26.66C41.4121 26.079 41.2233 25.5561 40.8457 25.0913C40.4971 24.6265 39.9451 24.3941 39.1899 24.3941ZM56.542 43.3922C54.7409 43.3922 53.4483 42.9129 52.6639 41.9542C51.8796 40.9956 51.4874 39.4125 51.4874 37.2047C51.4874 36.8561 51.502 36.4204 51.531 35.8975C51.5891 35.3747 51.6472 34.7065 51.7053 33.8932C51.7925 33.0507 51.8941 32.0195 52.0103 30.7994C52.1265 29.5794 52.2427 28.0979 52.3589 26.355C52.5042 24.612 52.6494 22.5641 52.7947 20.2111C52.9689 17.8581 53.1432 15.1275 53.3175 12.0193C53.3466 11.3802 53.4192 11.0026 53.5354 10.8864C53.6225 10.7992 53.8549 10.7557 54.2326 10.7557H55.9319C56.8034 10.7557 57.5296 10.8573 58.1106 11.0607C58.6916 11.264 59.1564 11.54 59.505 11.8886C59.8535 12.2372 60.1005 12.6438 60.2457 13.1086C60.391 13.5444 60.4636 14.0091 60.4636 14.503C60.4636 15.084 60.42 15.9264 60.3329 17.0302C60.2748 18.105 60.1876 19.3251 60.0714 20.6904C59.9552 22.0557 59.839 23.4791 59.7228 24.9606C59.6066 26.4421 59.4904 27.8655 59.3742 29.2308C59.258 30.567 59.1564 31.7726 59.0692 32.8474C59.0111 33.9222 58.9821 34.7356 58.9821 35.2875C58.9821 36.0428 59.1128 36.5802 59.3742 36.8997C59.6647 37.2193 59.9697 37.4517 60.2893 37.5969C60.6088 37.7131 60.8993 37.8002 61.1608 37.8583C61.4512 37.8874 61.5965 37.9745 61.5965 38.1198C61.5965 38.7589 61.5239 39.3979 61.3786 40.037C61.2334 40.647 60.9719 41.2135 60.5943 41.7364C60.2167 42.2302 59.6938 42.6369 59.0257 42.9564C58.3866 43.2469 57.5587 43.3922 56.542 43.3922ZM79.7125 18.5989C82.4431 18.5989 84.491 19.4413 85.8563 21.1261C87.2507 22.811 87.9479 25.469 87.9479 29.1001C87.9479 31.3659 87.6864 33.3848 87.1635 35.1568C86.6407 36.9288 85.9144 38.4393 84.9849 39.6884C84.0553 40.9085 82.966 41.838 81.7169 42.4771C80.4677 43.1162 79.117 43.4357 77.6645 43.4357C76.1249 43.4357 74.9194 43.1017 74.0479 42.4335C73.1765 41.7654 72.4938 40.8213 72 39.6013C71.9128 40.647 71.8402 41.4459 71.7821 41.9978C71.724 42.5497 71.6804 42.9855 71.6514 43.305C71.6223 43.6536 71.5933 43.9586 71.5642 44.2201C71.5642 44.4815 71.5352 44.8301 71.4771 45.2658C71.448 45.7016 71.4045 46.2971 71.3464 47.0523C71.2883 47.8076 71.2011 48.8534 71.0849 50.1896C71.0559 50.5382 70.9833 50.7706 70.8671 50.8868C70.7509 51.003 70.504 51.0611 70.1263 51.0611H68.5577C67.6572 51.0611 66.9164 50.9594 66.3354 50.7561C65.7835 50.5818 65.3332 50.3203 64.9847 49.9717C64.6651 49.6232 64.4327 49.1874 64.2875 48.6645C64.1713 48.1707 64.1132 47.5897 64.1132 46.9216C64.1132 46.6311 64.1568 45.8468 64.2439 44.5686C64.3311 43.2905 64.4327 41.7654 64.5489 39.9934C64.6942 38.1924 64.8394 36.2606 64.9847 34.1982C65.159 32.1357 65.3187 30.1749 65.464 28.3158C65.6092 26.4276 65.7254 24.7573 65.8126 23.3048C65.9287 21.8524 66.0159 20.8502 66.074 20.2982C66.103 19.6592 66.1757 19.2815 66.2919 19.1653C66.379 19.0782 66.6114 19.0346 66.989 19.0346H68.6884C70.257 19.0346 71.39 19.3687 72.0871 20.0368C72.8134 20.6759 73.1765 21.4457 73.1765 22.3462C73.8446 21.0099 74.7015 20.0513 75.7473 19.4703C76.8221 18.8894 78.1438 18.5989 79.7125 18.5989ZM76.5316 24.3941C75.0501 24.3941 73.9608 25.0332 73.2636 26.3114C72.5664 27.5895 72.2178 29.3325 72.2178 31.5402C72.2178 32.2955 72.2614 33.0362 72.3486 33.7624C72.4648 34.4887 72.6536 35.1423 72.915 35.7232C73.1765 36.3042 73.525 36.769 73.9608 37.1176C74.4256 37.4662 75.0065 37.6405 75.7037 37.6405C76.9528 37.6405 77.9986 37.0304 78.841 35.8104C79.6834 34.5903 80.1046 32.6731 80.1046 30.0587C80.1046 29.3325 80.0465 28.6353 79.9303 27.9672C79.8432 27.27 79.6689 26.66 79.4075 26.1371C79.146 25.6142 78.7829 25.193 78.3181 24.8735C77.8533 24.5539 77.2578 24.3941 76.5316 24.3941Z" fill="white"/>
</svg>
