<svg width="428" height="229" viewBox="0 0 428 229" fill="none" xmlns="http://www.w3.org/2000/svg">
<path d="M303.503 110.036C298.954 109.692 294.631 113.651 293.607 117.164C292.485 121.032 294.492 125.414 298.387 127.602C300.361 128.707 302.711 129.271 305.067 129.372C307.418 129.474 309.853 129.113 311.854 128.058C316.145 125.792 317.478 120.519 315.313 116.634C313.233 112.89 308.269 110.397 303.503 110.036Z" fill="#750F1D" stroke="#750F1D" stroke-width="0.660145" stroke-miterlimit="10"/>
<path d="M310.751 9.57817C306.962 7.27747 301.905 7.49173 297.271 7.79623C291.983 8.14585 286.352 8.60262 282.18 11.4052C276.503 15.2228 275.334 22.0967 275.149 28.2657C274.879 37.2148 275.783 46.1863 277.797 54.9719C279.546 62.607 282.134 70.1012 285.507 77.3247C288.498 83.725 292.227 93.0631 297.971 98.0479C301.898 101.46 302.935 98.3975 305.859 94.6025C308.308 91.4278 310.355 88.0331 312.051 84.5144C315.286 77.821 317.22 70.6933 318.178 63.5093C319.98 49.9645 318.481 36.273 316.917 22.7057C316.369 17.8618 315.405 12.4033 310.751 9.57817Z" fill="#750F1D" stroke="#750F1D" stroke-width="0.660145" stroke-miterlimit="10"/>
<path d="M49.8526 116.427C50.1199 113.487 50.3872 110.413 50.6545 107.205C51.0109 103.997 51.2782 100.923 51.4564 97.9829C51.7238 95.0425 51.9465 92.414 52.1247 90.0974C52.3029 87.7807 52.392 86.0878 52.392 85.0185C52.392 82.7019 51.8129 80.6525 50.6545 78.8705C49.5853 76.9993 47.4469 76.0638 44.2392 76.0638C39.9623 76.0638 36.4873 78.0686 33.8142 82.0782C31.2303 86.0878 29.7155 91.4339 29.27 98.1165C29.0918 99.9877 28.8691 102.616 28.6018 106.002C28.3345 109.299 28.0672 112.685 27.7998 116.16C27.5325 119.546 27.2652 122.62 26.9979 125.382C26.8197 128.055 26.7306 129.703 26.7306 130.327C26.7306 131.396 26.5079 132.109 26.0624 132.465C25.7059 132.822 24.9486 133 23.7903 133H18.9787C16.2166 133 13.9445 132.733 12.1624 132.198C10.4695 131.574 9.08841 130.728 8.01919 129.659C7.03906 128.589 6.32625 127.297 5.88074 125.783C5.52433 124.179 5.34612 122.352 5.34612 120.303C5.34612 118.343 5.47978 115.625 5.74708 112.15C6.10349 108.586 6.549 103.73 7.08362 97.5819C7.61823 91.3448 8.24194 83.4147 8.95476 73.7917C9.66758 64.1686 10.4249 52.229 11.2269 37.9726C11.316 36.0124 11.5387 34.8541 11.8951 34.4977C12.1624 34.2304 12.8753 34.0967 14.0336 34.0967H19.246C21.9191 34.0967 24.1467 34.4086 25.9287 35.0323C27.7107 35.656 29.1364 36.5025 30.2056 37.5717C31.2748 38.6409 32.0322 39.8883 32.4777 41.314C32.9232 42.6505 33.146 44.0761 33.146 45.5909C33.146 47.1947 32.9678 50.1796 32.6114 54.5456C32.3441 58.9116 31.9876 64.035 31.5421 69.9157C34.2152 65.4606 37.1556 62.3866 40.3632 60.6937C43.66 59.0007 47.8033 58.1543 52.793 58.1543C56.5353 58.1543 59.7875 58.5552 62.5497 59.3571C65.3118 60.1591 67.5839 61.5401 69.366 63.5004C71.2371 65.3715 72.6182 67.8664 73.5092 70.985C74.4002 74.0144 74.8457 77.8013 74.8457 82.3455C74.8457 83.7711 74.7121 86.2214 74.4448 89.6964C74.1775 93.1714 73.8211 97.1364 73.3756 101.592C73.0191 106.047 72.6182 110.724 72.1727 115.625C71.8163 120.437 71.5044 124.847 71.2371 128.857C71.148 129.837 71.0589 130.594 70.9698 131.129C70.8807 131.663 70.7025 132.064 70.4352 132.332C70.257 132.599 69.9451 132.777 69.4996 132.866C69.0541 132.955 68.4304 133 67.6285 133H63.3516C60.5003 133 58.1837 132.733 56.4016 132.198C54.6196 131.663 53.2385 130.906 52.2584 129.926C51.2782 128.946 50.5654 127.743 50.1199 126.317C49.7635 124.803 49.5853 123.11 49.5853 121.239C49.5853 120.348 49.5853 119.501 49.5853 118.699C49.6744 117.897 49.7635 117.14 49.8526 116.427ZM117.668 134.337C113.747 134.337 109.827 133.846 105.907 132.866C102.075 131.886 98.6001 130.193 95.4816 127.788C92.4521 125.382 89.9572 122.174 87.997 118.165C86.0367 114.155 85.0566 109.121 85.0566 103.062C85.0566 100.834 85.2348 98.1611 85.5912 95.0425C85.9476 91.9239 86.6159 88.7163 87.596 85.4195C88.6653 82.1227 90.0909 78.8705 91.8729 75.6628C93.7441 72.366 96.1498 69.4257 99.0902 66.8417C102.031 64.2577 105.595 62.1638 109.782 60.56C113.97 58.9562 118.96 58.1543 124.752 58.1543C129.385 58.1543 133.305 58.6889 136.513 59.7581C139.721 60.8273 142.305 62.2975 144.265 64.1686C146.225 65.9507 147.651 68.0446 148.542 70.4503C149.433 72.8561 149.878 75.4401 149.878 78.2022C149.878 82.3009 149.032 85.7759 147.339 88.6272C145.735 91.4784 143.597 93.8842 140.924 95.8444C138.34 97.7156 135.444 99.1858 132.236 100.255C129.029 101.324 125.865 102.171 122.747 102.794C119.628 103.329 116.732 103.685 114.059 103.864C111.475 103.953 109.471 103.997 108.045 103.997C108.045 105.69 108.268 107.383 108.713 109.076C109.248 110.68 110.005 112.106 110.985 113.353C111.965 114.6 113.257 115.625 114.861 116.427C116.465 117.229 118.425 117.63 120.742 117.63C123.059 117.63 124.841 117.273 126.088 116.561C127.425 115.759 128.494 114.912 129.296 114.021C130.098 113.041 130.766 112.195 131.301 111.482C131.924 110.68 132.726 110.279 133.706 110.279C134.152 110.279 134.909 110.413 135.978 110.68C137.137 110.858 138.295 111.304 139.453 112.016C140.612 112.729 141.636 113.709 142.527 114.957C143.418 116.204 143.864 117.808 143.864 119.768C143.864 122.352 143.062 124.58 141.458 126.451C139.854 128.322 137.761 129.837 135.177 130.995C132.682 132.154 129.875 133 126.756 133.535C123.638 134.069 120.608 134.337 117.668 134.337ZM120.207 75.9301C118.247 75.9301 116.554 76.5093 115.129 77.6676C113.792 78.7368 112.634 80.1179 111.654 81.8109C110.763 83.5038 110.05 85.3749 109.515 87.4243C109.07 89.4736 108.713 91.4339 108.446 93.305C113.97 93.2159 118.425 92.2804 121.811 90.4983C125.286 88.7163 127.024 86.1769 127.024 82.8801C127.024 81.098 126.445 79.4942 125.286 78.0686C124.217 76.6429 122.524 75.9301 120.207 75.9301ZM173.432 134.203C167.907 134.203 163.942 132.733 161.536 129.792C159.131 126.852 157.928 121.996 157.928 115.224C157.928 114.155 157.972 112.818 158.062 111.215C158.24 109.611 158.418 107.561 158.596 105.066C158.863 102.483 159.175 99.3194 159.532 95.5771C159.888 91.8348 160.245 87.2906 160.601 81.9445C161.046 76.5984 161.492 70.3167 161.937 63.0994C162.472 55.8822 163.007 47.5066 163.541 37.9726C163.63 36.0124 163.853 34.8541 164.21 34.4977C164.477 34.2304 165.19 34.0967 166.348 34.0967H171.56C174.234 34.0967 176.461 34.4086 178.243 35.0323C180.025 35.656 181.451 36.5025 182.52 37.5717C183.589 38.6409 184.347 39.8883 184.792 41.314C185.238 42.6505 185.46 44.0761 185.46 45.5909C185.46 47.3729 185.327 49.9569 185.059 53.3427C184.881 56.6395 184.614 60.3818 184.258 64.5696C183.901 68.7574 183.545 73.1234 183.188 77.6676C182.832 82.2118 182.475 86.5778 182.119 90.7656C181.763 94.8643 181.451 98.562 181.183 101.859C181.005 105.156 180.916 107.65 180.916 109.343C180.916 111.66 181.317 113.308 182.119 114.289C183.01 115.269 183.946 115.982 184.926 116.427C185.906 116.783 186.797 117.051 187.599 117.229C188.49 117.318 188.935 117.585 188.935 118.031C188.935 119.991 188.713 121.951 188.267 123.912C187.822 125.783 187.02 127.52 185.861 129.124C184.703 130.639 183.099 131.886 181.05 132.866C179.09 133.757 176.55 134.203 173.432 134.203ZM244.503 58.1543C252.878 58.1543 259.16 60.7382 263.348 65.9061C267.625 71.0741 269.763 79.2269 269.763 90.3647C269.763 97.3146 268.961 103.507 267.357 108.942C265.754 114.378 263.526 119.011 260.675 122.842C257.823 126.585 254.482 129.436 250.651 131.396C246.819 133.356 242.676 134.337 238.221 134.337C233.499 134.337 229.801 133.312 227.128 131.263C224.455 129.213 222.361 126.317 220.846 122.575C220.579 125.783 220.356 128.233 220.178 129.926C220 131.619 219.866 132.955 219.777 133.936C219.688 135.005 219.599 135.94 219.51 136.742C219.51 137.544 219.42 138.613 219.242 139.95C219.153 141.286 219.02 143.113 218.841 145.43C218.663 147.746 218.396 150.954 218.039 155.053C217.95 156.122 217.728 156.835 217.371 157.191C217.015 157.548 216.257 157.726 215.099 157.726H210.288C207.525 157.726 205.253 157.414 203.471 156.79C201.778 156.256 200.397 155.454 199.328 154.384C198.348 153.315 197.635 151.979 197.189 150.375C196.833 148.86 196.655 147.078 196.655 145.029C196.655 144.138 196.789 141.732 197.056 137.812C197.323 133.891 197.635 129.213 197.991 123.778C198.437 118.254 198.882 112.328 199.328 106.002C199.863 99.6758 200.353 93.6614 200.798 87.9589C201.244 82.1673 201.6 77.0439 201.867 72.5888C202.224 68.1337 202.491 65.0597 202.669 63.3667C202.758 61.4065 202.981 60.2482 203.338 59.8917C203.605 59.6244 204.318 59.4908 205.476 59.4908H210.688C215.5 59.4908 218.975 60.5155 221.113 62.5648C223.341 64.5251 224.455 66.8863 224.455 69.6484C226.504 65.5497 229.133 62.6094 232.34 60.8273C235.637 59.0453 239.691 58.1543 244.503 58.1543ZM234.746 75.9301C230.202 75.9301 226.86 77.8904 224.722 81.8109C222.584 85.7313 221.514 91.0775 221.514 97.8492C221.514 100.166 221.648 102.438 221.915 104.666C222.272 106.893 222.851 108.898 223.653 110.68C224.455 112.462 225.524 113.888 226.86 114.957C228.286 116.026 230.068 116.561 232.207 116.561C236.038 116.561 239.246 114.69 241.83 110.947C244.414 107.205 245.706 101.324 245.706 93.305C245.706 91.0775 245.527 88.939 245.171 86.8897C244.904 84.7512 244.369 82.8801 243.567 81.2762C242.765 79.6724 241.651 78.3804 240.226 77.4003C238.8 76.4202 236.974 75.9301 234.746 75.9301Z" fill="#750F1D"/>
<path d="M11.2074 181.344C11.1278 180.599 10.7926 180.02 10.2017 179.605C9.61648 179.19 8.85511 178.983 7.91761 178.983C7.25852 178.983 6.69318 179.082 6.22159 179.281C5.75 179.48 5.3892 179.75 5.1392 180.091C4.8892 180.432 4.76136 180.821 4.75568 181.259C4.75568 181.622 4.83807 181.937 5.00284 182.205C5.1733 182.472 5.40341 182.699 5.69318 182.886C5.98295 183.068 6.30398 183.222 6.65625 183.347C7.00852 183.472 7.36364 183.577 7.72159 183.662L9.35795 184.071C10.017 184.224 10.6506 184.432 11.2585 184.693C11.8722 184.955 12.4205 185.284 12.9034 185.682C13.392 186.08 13.7784 186.56 14.0625 187.122C14.3466 187.685 14.4886 188.344 14.4886 189.099C14.4886 190.122 14.2273 191.023 13.7045 191.801C13.1818 192.574 12.4261 193.179 11.4375 193.616C10.4545 194.048 9.2642 194.264 7.86648 194.264C6.50852 194.264 5.32955 194.054 4.32955 193.634C3.33523 193.213 2.55682 192.599 1.99432 191.793C1.4375 190.986 1.13636 190.003 1.09091 188.844H4.2017C4.24716 189.452 4.43466 189.957 4.7642 190.361C5.09375 190.764 5.52273 191.065 6.05114 191.264C6.58523 191.463 7.18182 191.562 7.84091 191.562C8.52841 191.562 9.13068 191.46 9.64773 191.256C10.1705 191.045 10.5795 190.756 10.875 190.386C11.1705 190.011 11.321 189.574 11.3267 189.074C11.321 188.619 11.1875 188.244 10.9261 187.949C10.6648 187.648 10.2983 187.398 9.8267 187.199C9.3608 186.994 8.81534 186.812 8.19034 186.653L6.20455 186.142C4.76705 185.773 3.63068 185.213 2.79545 184.463C1.96591 183.707 1.55114 182.705 1.55114 181.455C1.55114 180.426 1.82955 179.526 2.38636 178.753C2.94886 177.98 3.71307 177.381 4.67898 176.955C5.64489 176.523 6.73864 176.307 7.96023 176.307C9.19886 176.307 10.2841 176.523 11.2159 176.955C12.1534 177.381 12.8892 177.974 13.4233 178.736C13.9574 179.491 14.233 180.361 14.25 181.344H11.2074ZM22.8814 194.256C21.603 194.256 20.495 193.974 19.5575 193.412C18.62 192.849 17.8928 192.062 17.3757 191.051C16.8643 190.04 16.6087 188.858 16.6087 187.506C16.6087 186.153 16.8643 184.969 17.3757 183.952C17.8928 182.935 18.62 182.145 19.5575 181.582C20.495 181.02 21.603 180.739 22.8814 180.739C24.1598 180.739 25.2678 181.02 26.2053 181.582C27.1428 182.145 27.8672 182.935 28.3786 183.952C28.8956 184.969 29.1541 186.153 29.1541 187.506C29.1541 188.858 28.8956 190.04 28.3786 191.051C27.8672 192.062 27.1428 192.849 26.2053 193.412C25.2678 193.974 24.1598 194.256 22.8814 194.256ZM22.8984 191.784C23.5916 191.784 24.1712 191.594 24.6371 191.213C25.103 190.827 25.4496 190.31 25.6768 189.662C25.9098 189.014 26.0263 188.293 26.0263 187.497C26.0263 186.696 25.9098 185.972 25.6768 185.324C25.4496 184.67 25.103 184.151 24.6371 183.764C24.1712 183.378 23.5916 183.185 22.8984 183.185C22.1882 183.185 21.5973 183.378 21.1257 183.764C20.6598 184.151 20.3104 184.67 20.0774 185.324C19.8501 185.972 19.7365 186.696 19.7365 187.497C19.7365 188.293 19.8501 189.014 20.0774 189.662C20.3104 190.31 20.6598 190.827 21.1257 191.213C21.5973 191.594 22.1882 191.784 22.8984 191.784ZM38.4034 180.909V183.295H30.6648V180.909H38.4034ZM32.5994 194V179.673C32.5994 178.793 32.7813 178.06 33.1449 177.474C33.5142 176.889 34.0085 176.452 34.6278 176.162C35.2472 175.872 35.9347 175.727 36.6903 175.727C37.2244 175.727 37.6989 175.77 38.1136 175.855C38.5284 175.94 38.8352 176.017 39.0341 176.085L38.4205 178.472C38.2898 178.432 38.125 178.392 37.9261 178.352C37.7273 178.307 37.5057 178.284 37.2614 178.284C36.6875 178.284 36.2813 178.423 36.0426 178.702C35.8097 178.974 35.6932 179.366 35.6932 179.878V194H32.5994ZM47.3565 180.909V183.295H39.831V180.909H47.3565ZM41.6889 177.773H44.7741V190.062C44.7741 190.477 44.8366 190.795 44.9616 191.017C45.0923 191.233 45.2628 191.381 45.473 191.46C45.6832 191.54 45.9162 191.58 46.1719 191.58C46.3651 191.58 46.5412 191.565 46.7003 191.537C46.8651 191.509 46.9901 191.483 47.0753 191.46L47.5952 193.872C47.4304 193.929 47.1946 193.991 46.8878 194.06C46.5866 194.128 46.2173 194.168 45.7798 194.179C45.0071 194.202 44.3111 194.085 43.6918 193.83C43.0724 193.568 42.581 193.165 42.2173 192.619C41.8594 192.074 41.6832 191.392 41.6889 190.574V177.773ZM52.6385 194L48.9396 180.909H52.0845L54.3857 190.114H54.505L56.8572 180.909H59.968L62.3203 190.062H62.4482L64.7152 180.909H67.8686L64.1612 194H60.9482L58.4936 185.153H58.3146L55.8601 194H52.6385ZM73.7898 194.264C72.9602 194.264 72.2131 194.116 71.5483 193.821C70.8892 193.52 70.3665 193.077 69.9801 192.491C69.5994 191.906 69.4091 191.185 69.4091 190.327C69.4091 189.588 69.5455 188.977 69.8182 188.494C70.0909 188.011 70.4631 187.625 70.9347 187.335C71.4063 187.045 71.9375 186.827 72.5284 186.679C73.125 186.526 73.7415 186.415 74.3778 186.347C75.1449 186.267 75.767 186.196 76.2443 186.134C76.7216 186.065 77.0682 185.963 77.2841 185.827C77.5057 185.685 77.6165 185.466 77.6165 185.17V185.119C77.6165 184.477 77.4261 183.98 77.0455 183.628C76.6648 183.276 76.1165 183.099 75.4006 183.099C74.6449 183.099 74.0455 183.264 73.6023 183.594C73.1648 183.923 72.8693 184.312 72.7159 184.761L69.8352 184.352C70.0625 183.557 70.4375 182.892 70.9602 182.358C71.483 181.818 72.1222 181.415 72.8778 181.148C73.6335 180.875 74.4688 180.739 75.3835 180.739C76.0142 180.739 76.642 180.812 77.267 180.96C77.892 181.108 78.4631 181.352 78.9801 181.693C79.4972 182.028 79.9119 182.486 80.2244 183.065C80.5426 183.645 80.7017 184.369 80.7017 185.239V194H77.7358V192.202H77.6335C77.446 192.565 77.1818 192.906 76.8409 193.224C76.5057 193.537 76.0824 193.79 75.571 193.983C75.0653 194.17 74.4716 194.264 73.7898 194.264ZM74.5909 191.997C75.2102 191.997 75.7472 191.875 76.2017 191.631C76.6563 191.381 77.0057 191.051 77.25 190.642C77.5 190.233 77.625 189.787 77.625 189.304V187.761C77.5284 187.841 77.3636 187.915 77.1307 187.983C76.9034 188.051 76.6477 188.111 76.3636 188.162C76.0795 188.213 75.7983 188.259 75.5199 188.298C75.2415 188.338 75 188.372 74.7955 188.401C74.3352 188.463 73.9233 188.565 73.5597 188.707C73.196 188.849 72.9091 189.048 72.6989 189.304C72.4886 189.554 72.3835 189.878 72.3835 190.276C72.3835 190.844 72.5909 191.273 73.0057 191.562C73.4205 191.852 73.9489 191.997 74.5909 191.997ZM83.804 194V180.909H86.7955V183.091H86.9318C87.1705 182.335 87.5795 181.753 88.1591 181.344C88.7443 180.929 89.4119 180.722 90.1619 180.722C90.3324 180.722 90.5227 180.73 90.733 180.747C90.9489 180.759 91.1278 180.778 91.2699 180.807V183.645C91.1392 183.599 90.9318 183.56 90.6477 183.526C90.3693 183.486 90.0994 183.466 89.8381 183.466C89.2756 183.466 88.7699 183.588 88.321 183.832C87.8778 184.071 87.5284 184.403 87.2727 184.83C87.017 185.256 86.8892 185.747 86.8892 186.304V194H83.804ZM98.576 194.256C97.2635 194.256 96.13 193.983 95.1754 193.438C94.2266 192.886 93.4964 192.108 92.9851 191.102C92.4737 190.091 92.218 188.901 92.218 187.531C92.218 186.185 92.4737 185.003 92.9851 183.986C93.5021 182.963 94.2237 182.168 95.1499 181.599C96.076 181.026 97.1641 180.739 98.4141 180.739C99.2209 180.739 99.9822 180.869 100.698 181.131C101.42 181.386 102.056 181.784 102.607 182.324C103.164 182.864 103.602 183.551 103.92 184.386C104.238 185.216 104.397 186.205 104.397 187.352V188.298H93.6669V186.219H101.44C101.434 185.628 101.306 185.102 101.056 184.642C100.806 184.176 100.457 183.81 100.008 183.543C99.5646 183.276 99.0476 183.142 98.4567 183.142C97.826 183.142 97.272 183.295 96.7947 183.602C96.3175 183.903 95.9453 184.301 95.6783 184.795C95.4169 185.284 95.2834 185.821 95.2777 186.406V188.222C95.2777 188.983 95.4169 189.636 95.6953 190.182C95.9737 190.722 96.3629 191.136 96.8629 191.426C97.3629 191.71 97.9482 191.852 98.6186 191.852C99.0675 191.852 99.4737 191.79 99.8374 191.665C100.201 191.534 100.516 191.344 100.783 191.094C101.05 190.844 101.252 190.534 101.388 190.165L104.269 190.489C104.087 191.25 103.741 191.915 103.229 192.483C102.724 193.045 102.076 193.483 101.286 193.795C100.496 194.102 99.593 194.256 98.576 194.256ZM117.818 194.23C116.79 194.23 115.869 193.966 115.057 193.438C114.244 192.909 113.602 192.142 113.131 191.136C112.659 190.131 112.423 188.909 112.423 187.472C112.423 186.017 112.662 184.79 113.139 183.79C113.622 182.784 114.273 182.026 115.091 181.514C115.909 180.997 116.821 180.739 117.827 180.739C118.594 180.739 119.224 180.869 119.719 181.131C120.213 181.386 120.605 181.696 120.895 182.06C121.185 182.418 121.409 182.756 121.568 183.074H121.696V176.545H124.79V194H121.756V191.938H121.568C121.409 192.256 121.179 192.594 120.878 192.952C120.577 193.304 120.179 193.605 119.685 193.855C119.19 194.105 118.568 194.23 117.818 194.23ZM118.679 191.699C119.332 191.699 119.889 191.523 120.349 191.17C120.81 190.812 121.159 190.315 121.398 189.679C121.636 189.043 121.756 188.301 121.756 187.455C121.756 186.608 121.636 185.872 121.398 185.247C121.165 184.622 120.818 184.136 120.358 183.79C119.903 183.443 119.344 183.27 118.679 183.27C117.991 183.27 117.418 183.449 116.957 183.807C116.497 184.165 116.151 184.659 115.918 185.29C115.685 185.92 115.568 186.642 115.568 187.455C115.568 188.273 115.685 189.003 115.918 189.645C116.156 190.281 116.506 190.784 116.966 191.153C117.432 191.517 118.003 191.699 118.679 191.699ZM133.873 194.256C132.56 194.256 131.427 193.983 130.472 193.438C129.523 192.886 128.793 192.108 128.282 191.102C127.771 190.091 127.515 188.901 127.515 187.531C127.515 186.185 127.771 185.003 128.282 183.986C128.799 182.963 129.521 182.168 130.447 181.599C131.373 181.026 132.461 180.739 133.711 180.739C134.518 180.739 135.279 180.869 135.995 181.131C136.717 181.386 137.353 181.784 137.904 182.324C138.461 182.864 138.898 183.551 139.217 184.386C139.535 185.216 139.694 186.205 139.694 187.352V188.298H128.964V186.219H136.737C136.731 185.628 136.603 185.102 136.353 184.642C136.103 184.176 135.754 183.81 135.305 183.543C134.862 183.276 134.344 183.142 133.754 183.142C133.123 183.142 132.569 183.295 132.092 183.602C131.614 183.903 131.242 184.301 130.975 184.795C130.714 185.284 130.58 185.821 130.575 186.406V188.222C130.575 188.983 130.714 189.636 130.992 190.182C131.271 190.722 131.66 191.136 132.16 191.426C132.66 191.71 133.245 191.852 133.915 191.852C134.364 191.852 134.771 191.79 135.134 191.665C135.498 191.534 135.813 191.344 136.08 191.094C136.347 190.844 136.549 190.534 136.685 190.165L139.566 190.489C139.384 191.25 139.038 191.915 138.526 192.483C138.021 193.045 137.373 193.483 136.583 193.795C135.793 194.102 134.89 194.256 133.873 194.256ZM152.024 194.264C151.195 194.264 150.447 194.116 149.783 193.821C149.124 193.52 148.601 193.077 148.214 192.491C147.834 191.906 147.643 191.185 147.643 190.327C147.643 189.588 147.78 188.977 148.053 188.494C148.325 188.011 148.697 187.625 149.169 187.335C149.641 187.045 150.172 186.827 150.763 186.679C151.359 186.526 151.976 186.415 152.612 186.347C153.379 186.267 154.001 186.196 154.479 186.134C154.956 186.065 155.303 185.963 155.518 185.827C155.74 185.685 155.851 185.466 155.851 185.17V185.119C155.851 184.477 155.661 183.98 155.28 183.628C154.899 183.276 154.351 183.099 153.635 183.099C152.879 183.099 152.28 183.264 151.837 183.594C151.399 183.923 151.104 184.312 150.95 184.761L148.07 184.352C148.297 183.557 148.672 182.892 149.195 182.358C149.717 181.818 150.357 181.415 151.112 181.148C151.868 180.875 152.703 180.739 153.618 180.739C154.249 180.739 154.876 180.812 155.501 180.96C156.126 181.108 156.697 181.352 157.214 181.693C157.732 182.028 158.146 182.486 158.459 183.065C158.777 183.645 158.936 184.369 158.936 185.239V194H155.97V192.202H155.868C155.68 192.565 155.416 192.906 155.075 193.224C154.74 193.537 154.317 193.79 153.805 193.983C153.3 194.17 152.706 194.264 152.024 194.264ZM152.825 191.997C153.445 191.997 153.982 191.875 154.436 191.631C154.891 191.381 155.24 191.051 155.484 190.642C155.734 190.233 155.859 189.787 155.859 189.304V187.761C155.763 187.841 155.598 187.915 155.365 187.983C155.138 188.051 154.882 188.111 154.598 188.162C154.314 188.213 154.033 188.259 153.754 188.298C153.476 188.338 153.234 188.372 153.03 188.401C152.57 188.463 152.158 188.565 151.794 188.707C151.43 188.849 151.143 189.048 150.933 189.304C150.723 189.554 150.618 189.878 150.618 190.276C150.618 190.844 150.825 191.273 151.24 191.562C151.655 191.852 152.183 191.997 152.825 191.997ZM170.382 188.494V180.909H173.467V194H170.476V191.673H170.339C170.044 192.406 169.558 193.006 168.882 193.472C168.212 193.937 167.385 194.17 166.402 194.17C165.544 194.17 164.786 193.98 164.126 193.599C163.473 193.213 162.962 192.653 162.592 191.92C162.223 191.182 162.038 190.29 162.038 189.244V180.909H165.124V188.767C165.124 189.597 165.351 190.256 165.805 190.744C166.26 191.233 166.857 191.477 167.595 191.477C168.05 191.477 168.49 191.366 168.916 191.145C169.342 190.923 169.692 190.594 169.964 190.156C170.243 189.713 170.382 189.159 170.382 188.494ZM179.163 180.909L181.805 185.741L184.489 180.909H187.754L183.808 187.455L187.822 194H184.575L181.805 189.287L179.06 194H175.788L179.776 187.455L175.89 180.909H179.163ZM190.14 194V180.909H193.225V194H190.14ZM190.506 179.188L192.415 175.293H195.433L192.816 179.188H190.506ZM199.483 176.545V194H196.398V176.545H199.483ZM202.656 194V180.909H205.741V194H202.656ZM204.207 179.051C203.718 179.051 203.298 178.889 202.945 178.565C202.593 178.236 202.417 177.841 202.417 177.381C202.417 176.915 202.593 176.52 202.945 176.196C203.298 175.866 203.718 175.702 204.207 175.702C204.701 175.702 205.121 175.866 205.468 176.196C205.82 176.52 205.996 176.915 205.996 177.381C205.996 177.841 205.82 178.236 205.468 178.565C205.121 178.889 204.701 179.051 204.207 179.051ZM214.624 194.256C213.345 194.256 212.237 193.974 211.3 193.412C210.362 192.849 209.635 192.062 209.118 191.051C208.607 190.04 208.351 188.858 208.351 187.506C208.351 186.153 208.607 184.969 209.118 183.952C209.635 182.935 210.362 182.145 211.3 181.582C212.237 181.02 213.345 180.739 214.624 180.739C215.902 180.739 217.01 181.02 217.947 181.582C218.885 182.145 219.609 182.935 220.121 183.952C220.638 184.969 220.896 186.153 220.896 187.506C220.896 188.858 220.638 190.04 220.121 191.051C219.609 192.062 218.885 192.849 217.947 193.412C217.01 193.974 215.902 194.256 214.624 194.256ZM214.641 191.784C215.334 191.784 215.913 191.594 216.379 191.213C216.845 190.827 217.192 190.31 217.419 189.662C217.652 189.014 217.768 188.293 217.768 187.497C217.768 186.696 217.652 185.972 217.419 185.324C217.192 184.67 216.845 184.151 216.379 183.764C215.913 183.378 215.334 183.185 214.641 183.185C213.93 183.185 213.339 183.378 212.868 183.764C212.402 184.151 212.053 184.67 211.82 185.324C211.592 185.972 211.479 186.696 211.479 187.497C211.479 188.293 211.592 189.014 211.82 189.662C212.053 190.31 212.402 190.827 212.868 191.213C213.339 191.594 213.93 191.784 214.641 191.784ZM229.468 198.909V180.909H232.502V183.074H232.681C232.84 182.756 233.065 182.418 233.354 182.06C233.644 181.696 234.036 181.386 234.531 181.131C235.025 180.869 235.656 180.739 236.423 180.739C237.434 180.739 238.346 180.997 239.158 181.514C239.977 182.026 240.624 182.784 241.102 183.79C241.585 184.79 241.826 186.017 241.826 187.472C241.826 188.909 241.59 190.131 241.119 191.136C240.647 192.142 240.005 192.909 239.192 193.438C238.38 193.966 237.46 194.23 236.431 194.23C235.681 194.23 235.059 194.105 234.565 193.855C234.07 193.605 233.673 193.304 233.371 192.952C233.076 192.594 232.846 192.256 232.681 191.938H232.553V198.909H229.468ZM232.494 187.455C232.494 188.301 232.613 189.043 232.852 189.679C233.096 190.315 233.445 190.812 233.9 191.17C234.36 191.523 234.917 191.699 235.57 191.699C236.252 191.699 236.823 191.517 237.283 191.153C237.744 190.784 238.09 190.281 238.323 189.645C238.562 189.003 238.681 188.273 238.681 187.455C238.681 186.642 238.565 185.92 238.332 185.29C238.099 184.659 237.752 184.165 237.292 183.807C236.832 183.449 236.258 183.27 235.57 183.27C234.911 183.27 234.352 183.443 233.891 183.79C233.431 184.136 233.082 184.622 232.843 185.247C232.61 185.872 232.494 186.608 232.494 187.455ZM248.235 194.264C247.406 194.264 246.658 194.116 245.994 193.821C245.335 193.52 244.812 193.077 244.425 192.491C244.045 191.906 243.854 191.185 243.854 190.327C243.854 189.588 243.991 188.977 244.263 188.494C244.536 188.011 244.908 187.625 245.38 187.335C245.852 187.045 246.383 186.827 246.974 186.679C247.57 186.526 248.187 186.415 248.823 186.347C249.59 186.267 250.212 186.196 250.69 186.134C251.167 186.065 251.513 185.963 251.729 185.827C251.951 185.685 252.062 185.466 252.062 185.17V185.119C252.062 184.477 251.871 183.98 251.491 183.628C251.11 183.276 250.562 183.099 249.846 183.099C249.09 183.099 248.491 183.264 248.048 183.594C247.61 183.923 247.315 184.312 247.161 184.761L244.281 184.352C244.508 183.557 244.883 182.892 245.406 182.358C245.928 181.818 246.567 181.415 247.323 181.148C248.079 180.875 248.914 180.739 249.829 180.739C250.46 180.739 251.087 180.812 251.712 180.96C252.337 181.108 252.908 181.352 253.425 181.693C253.942 182.028 254.357 182.486 254.67 183.065C254.988 183.645 255.147 184.369 255.147 185.239V194H252.181V192.202H252.079C251.891 192.565 251.627 192.906 251.286 193.224C250.951 193.537 250.528 193.79 250.016 193.983C249.511 194.17 248.917 194.264 248.235 194.264ZM249.036 191.997C249.656 191.997 250.192 191.875 250.647 191.631C251.102 191.381 251.451 191.051 251.695 190.642C251.945 190.233 252.07 189.787 252.07 189.304V187.761C251.974 187.841 251.809 187.915 251.576 187.983C251.349 188.051 251.093 188.111 250.809 188.162C250.525 188.213 250.244 188.259 249.965 188.298C249.687 188.338 249.445 188.372 249.241 188.401C248.781 188.463 248.369 188.565 248.005 188.707C247.641 188.849 247.354 189.048 247.144 189.304C246.934 189.554 246.829 189.878 246.829 190.276C246.829 190.844 247.036 191.273 247.451 191.562C247.866 191.852 248.394 191.997 249.036 191.997ZM258.249 194V180.909H261.241V183.091H261.377C261.616 182.335 262.025 181.753 262.604 181.344C263.19 180.929 263.857 180.722 264.607 180.722C264.778 180.722 264.968 180.73 265.178 180.747C265.394 180.759 265.573 180.778 265.715 180.807V183.645C265.585 183.599 265.377 183.56 265.093 183.526C264.815 183.486 264.545 183.466 264.283 183.466C263.721 183.466 263.215 183.588 262.766 183.832C262.323 184.071 261.974 184.403 261.718 184.83C261.462 185.256 261.335 185.747 261.335 186.304V194H258.249ZM271.298 194.264C270.468 194.264 269.721 194.116 269.056 193.821C268.397 193.52 267.874 193.077 267.488 192.491C267.107 191.906 266.917 191.185 266.917 190.327C266.917 189.588 267.053 188.977 267.326 188.494C267.599 188.011 267.971 187.625 268.442 187.335C268.914 187.045 269.445 186.827 270.036 186.679C270.633 186.526 271.249 186.415 271.886 186.347C272.653 186.267 273.275 186.196 273.752 186.134C274.229 186.065 274.576 185.963 274.792 185.827C275.013 185.685 275.124 185.466 275.124 185.17V185.119C275.124 184.477 274.934 183.98 274.553 183.628C274.173 183.276 273.624 183.099 272.908 183.099C272.153 183.099 271.553 183.264 271.11 183.594C270.673 183.923 270.377 184.312 270.224 184.761L267.343 184.352C267.57 183.557 267.945 182.892 268.468 182.358C268.991 181.818 269.63 181.415 270.386 181.148C271.141 180.875 271.977 180.739 272.891 180.739C273.522 180.739 274.15 180.812 274.775 180.96C275.4 181.108 275.971 181.352 276.488 181.693C277.005 182.028 277.42 182.486 277.732 183.065C278.05 183.645 278.21 184.369 278.21 185.239V194H275.244V192.202H275.141C274.954 192.565 274.69 192.906 274.349 193.224C274.013 193.537 273.59 193.79 273.079 193.983C272.573 194.17 271.979 194.264 271.298 194.264ZM272.099 191.997C272.718 191.997 273.255 191.875 273.71 191.631C274.164 191.381 274.513 191.051 274.758 190.642C275.008 190.233 275.133 189.787 275.133 189.304V187.761C275.036 187.841 274.871 187.915 274.638 187.983C274.411 188.051 274.156 188.111 273.871 188.162C273.587 188.213 273.306 188.259 273.028 188.298C272.749 188.338 272.508 188.372 272.303 188.401C271.843 188.463 271.431 188.565 271.067 188.707C270.704 188.849 270.417 189.048 270.207 189.304C269.996 189.554 269.891 189.878 269.891 190.276C269.891 190.844 270.099 191.273 270.513 191.562C270.928 191.852 271.457 191.997 272.099 191.997ZM292.975 194.256C291.697 194.256 290.589 193.974 289.651 193.412C288.714 192.849 287.987 192.062 287.469 191.051C286.958 190.04 286.702 188.858 286.702 187.506C286.702 186.153 286.958 184.969 287.469 183.952C287.987 182.935 288.714 182.145 289.651 181.582C290.589 181.02 291.697 180.739 292.975 180.739C294.254 180.739 295.362 181.02 296.299 181.582C297.237 182.145 297.961 182.935 298.472 183.952C298.989 184.969 299.248 186.153 299.248 187.506C299.248 188.858 298.989 190.04 298.472 191.051C297.961 192.062 297.237 192.849 296.299 193.412C295.362 193.974 294.254 194.256 292.975 194.256ZM292.992 191.784C293.685 191.784 294.265 191.594 294.731 191.213C295.197 190.827 295.543 190.31 295.771 189.662C296.004 189.014 296.12 188.293 296.12 187.497C296.12 186.696 296.004 185.972 295.771 185.324C295.543 184.67 295.197 184.151 294.731 183.764C294.265 183.378 293.685 183.185 292.992 183.185C292.282 183.185 291.691 183.378 291.219 183.764C290.754 184.151 290.404 184.67 290.171 185.324C289.944 185.972 289.83 186.696 289.83 187.497C289.83 188.293 289.944 189.014 290.171 189.662C290.404 190.31 290.754 190.827 291.219 191.213C291.691 191.594 292.282 191.784 292.992 191.784ZM1.72159 223V205.545H8.26705C9.60795 205.545 10.733 205.795 11.642 206.295C12.5568 206.795 13.2472 207.483 13.7131 208.358C14.1847 209.227 14.4205 210.216 14.4205 211.324C14.4205 212.443 14.1847 213.437 13.7131 214.307C13.2415 215.176 12.5455 215.861 11.625 216.361C10.7045 216.855 9.57102 217.102 8.22443 217.102H3.88636V214.503H7.7983C8.58239 214.503 9.22443 214.366 9.72443 214.094C10.2244 213.821 10.5938 213.446 10.8324 212.969C11.0767 212.491 11.1989 211.943 11.1989 211.324C11.1989 210.705 11.0767 210.159 10.8324 209.688C10.5938 209.216 10.2216 208.849 9.71591 208.588C9.21591 208.321 8.57102 208.188 7.78125 208.188H4.88352V223H1.72159ZM17.0305 223V209.909H20.022V212.091H20.1584C20.397 211.335 20.8061 210.753 21.3857 210.344C21.9709 209.929 22.6385 209.722 23.3885 209.722C23.5589 209.722 23.7493 209.73 23.9595 209.747C24.1754 209.759 24.3544 209.778 24.4964 209.807V212.645C24.3658 212.599 24.1584 212.56 23.8743 212.526C23.5959 212.486 23.326 212.466 23.0646 212.466C22.5021 212.466 21.9964 212.588 21.5476 212.832C21.1044 213.071 20.755 213.403 20.4993 213.83C20.2436 214.256 20.1158 214.747 20.1158 215.304V223H17.0305ZM31.7173 223.256C30.4389 223.256 29.331 222.974 28.3935 222.412C27.456 221.849 26.7287 221.062 26.2116 220.051C25.7003 219.04 25.4446 217.858 25.4446 216.506C25.4446 215.153 25.7003 213.969 26.2116 212.952C26.7287 211.935 27.456 211.145 28.3935 210.582C29.331 210.02 30.4389 209.739 31.7173 209.739C32.9957 209.739 34.1037 210.02 35.0412 210.582C35.9787 211.145 36.7031 211.935 37.2145 212.952C37.7315 213.969 37.9901 215.153 37.9901 216.506C37.9901 217.858 37.7315 219.04 37.2145 220.051C36.7031 221.062 35.9787 221.849 35.0412 222.412C34.1037 222.974 32.9957 223.256 31.7173 223.256ZM31.7344 220.784C32.4276 220.784 33.0071 220.594 33.473 220.213C33.9389 219.827 34.2855 219.31 34.5128 218.662C34.7457 218.014 34.8622 217.293 34.8622 216.497C34.8622 215.696 34.7457 214.972 34.5128 214.324C34.2855 213.67 33.9389 213.151 33.473 212.764C33.0071 212.378 32.4276 212.185 31.7344 212.185C31.0241 212.185 30.4332 212.378 29.9616 212.764C29.4957 213.151 29.1463 213.67 28.9134 214.324C28.6861 214.972 28.5724 215.696 28.5724 216.497C28.5724 217.293 28.6861 218.014 28.9134 218.662C29.1463 219.31 29.4957 219.827 29.9616 220.213C30.4332 220.594 31.0241 220.784 31.7344 220.784ZM46.3189 223.256C45.0121 223.256 43.8899 222.969 42.9524 222.395C42.0206 221.821 41.3018 221.028 40.7962 220.017C40.2962 219 40.0462 217.83 40.0462 216.506C40.0462 215.176 40.3018 214.003 40.8132 212.986C41.3246 211.963 42.0462 211.168 42.978 210.599C43.9155 210.026 45.0234 209.739 46.3018 209.739C47.3643 209.739 48.3047 209.935 49.1229 210.327C49.9467 210.713 50.603 211.261 51.0916 211.972C51.5803 212.676 51.8587 213.5 51.9268 214.443H48.978C48.8587 213.812 48.5746 213.287 48.1257 212.866C47.6825 212.44 47.0888 212.227 46.3445 212.227C45.7138 212.227 45.1598 212.398 44.6825 212.739C44.2053 213.074 43.8331 213.557 43.5661 214.188C43.3047 214.818 43.174 215.574 43.174 216.455C43.174 217.347 43.3047 218.114 43.5661 218.756C43.8274 219.392 44.1939 219.884 44.6655 220.23C45.1428 220.571 45.7024 220.741 46.3445 220.741C46.799 220.741 47.2053 220.656 47.5632 220.486C47.9268 220.31 48.2308 220.057 48.4751 219.727C48.7195 219.398 48.8871 218.997 48.978 218.526H51.9268C51.853 219.452 51.5803 220.273 51.1087 220.989C50.6371 221.699 49.995 222.256 49.1825 222.659C48.37 223.057 47.4155 223.256 46.3189 223.256ZM60.2557 223.256C58.9432 223.256 57.8097 222.983 56.8551 222.438C55.9063 221.886 55.1761 221.108 54.6648 220.102C54.1534 219.091 53.8977 217.901 53.8977 216.531C53.8977 215.185 54.1534 214.003 54.6648 212.986C55.1818 211.963 55.9034 211.168 56.8295 210.599C57.7557 210.026 58.8438 209.739 60.0938 209.739C60.9006 209.739 61.6619 209.869 62.3778 210.131C63.0994 210.386 63.7358 210.784 64.2869 211.324C64.8438 211.864 65.2813 212.551 65.5994 213.386C65.9176 214.216 66.0767 215.205 66.0767 216.352V217.298H55.3466V215.219H63.1193C63.1136 214.628 62.9858 214.102 62.7358 213.642C62.4858 213.176 62.1364 212.81 61.6875 212.543C61.2443 212.276 60.7273 212.142 60.1364 212.142C59.5057 212.142 58.9517 212.295 58.4744 212.602C57.9972 212.903 57.625 213.301 57.358 213.795C57.0966 214.284 56.9631 214.821 56.9574 215.406V217.222C56.9574 217.983 57.0966 218.636 57.375 219.182C57.6534 219.722 58.0426 220.136 58.5426 220.426C59.0426 220.71 59.6278 220.852 60.2983 220.852C60.7472 220.852 61.1534 220.79 61.517 220.665C61.8807 220.534 62.196 220.344 62.4631 220.094C62.7301 219.844 62.9318 219.534 63.0682 219.165L65.9489 219.489C65.767 220.25 65.4205 220.915 64.9091 221.483C64.4034 222.045 63.7557 222.483 62.9659 222.795C62.1761 223.102 61.2727 223.256 60.2557 223.256ZM79.0334 213.369L76.2209 213.676C76.1413 213.392 76.0021 213.125 75.8033 212.875C75.6101 212.625 75.3487 212.423 75.0192 212.27C74.6896 212.116 74.2862 212.04 73.8089 212.04C73.1669 212.04 72.6271 212.179 72.1896 212.457C71.7578 212.736 71.5447 213.097 71.5504 213.54C71.5447 213.92 71.6839 214.23 71.968 214.469C72.2578 214.707 72.7351 214.903 73.3999 215.057L75.6328 215.534C76.8714 215.801 77.7919 216.224 78.3942 216.804C79.0021 217.384 79.3089 218.142 79.3146 219.08C79.3089 219.903 79.0675 220.631 78.5902 221.261C78.1186 221.886 77.4624 222.375 76.6214 222.727C75.7805 223.08 74.8146 223.256 73.7237 223.256C72.1214 223.256 70.8317 222.92 69.8544 222.25C68.8771 221.574 68.2947 220.634 68.1072 219.429L71.1158 219.139C71.2521 219.73 71.5419 220.176 71.9851 220.477C72.4283 220.778 73.005 220.929 73.7152 220.929C74.4482 220.929 75.0362 220.778 75.4794 220.477C75.9283 220.176 76.1527 219.804 76.1527 219.361C76.1527 218.986 76.0078 218.676 75.718 218.432C75.4339 218.187 74.9908 218 74.3885 217.869L72.1555 217.401C70.8999 217.139 69.9709 216.699 69.3686 216.08C68.7663 215.455 68.468 214.665 68.4737 213.71C68.468 212.903 68.6868 212.205 69.13 211.614C69.5788 211.017 70.201 210.557 70.9964 210.233C71.7976 209.903 72.7209 209.739 73.7663 209.739C75.3004 209.739 76.5078 210.065 77.3885 210.719C78.2749 211.372 78.8232 212.256 79.0334 213.369ZM92.2053 213.369L89.3928 213.676C89.3132 213.392 89.174 213.125 88.9751 212.875C88.782 212.625 88.5206 212.423 88.1911 212.27C87.8615 212.116 87.4581 212.04 86.9808 212.04C86.3388 212.04 85.799 212.179 85.3615 212.457C84.9297 212.736 84.7166 213.097 84.7223 213.54C84.7166 213.92 84.8558 214.23 85.1399 214.469C85.4297 214.707 85.907 214.903 86.5717 215.057L88.8047 215.534C90.0433 215.801 90.9638 216.224 91.5661 216.804C92.174 217.384 92.4808 218.142 92.4865 219.08C92.4808 219.903 92.2393 220.631 91.7621 221.261C91.2905 221.886 90.6342 222.375 89.7933 222.727C88.9524 223.08 87.9865 223.256 86.8956 223.256C85.2933 223.256 84.0036 222.92 83.0263 222.25C82.049 221.574 81.4666 220.634 81.2791 219.429L84.2876 219.139C84.424 219.73 84.7138 220.176 85.157 220.477C85.6001 220.778 86.1768 220.929 86.8871 220.929C87.62 220.929 88.2081 220.778 88.6513 220.477C89.1001 220.176 89.3246 219.804 89.3246 219.361C89.3246 218.986 89.1797 218.676 88.8899 218.432C88.6058 218.187 88.1626 218 87.5604 217.869L85.3274 217.401C84.0717 217.139 83.1428 216.699 82.5405 216.08C81.9382 215.455 81.6399 214.665 81.6456 213.71C81.6399 212.903 81.8587 212.205 82.3018 211.614C82.7507 211.017 83.3729 210.557 84.1683 210.233C84.9695 209.903 85.8928 209.739 86.9382 209.739C88.4723 209.739 89.6797 210.065 90.5604 210.719C91.4467 211.372 91.995 212.256 92.2053 213.369ZM100.741 223.256C99.4624 223.256 98.3544 222.974 97.4169 222.412C96.4794 221.849 95.7521 221.062 95.2351 220.051C94.7237 219.04 94.468 217.858 94.468 216.506C94.468 215.153 94.7237 213.969 95.2351 212.952C95.7521 211.935 96.4794 211.145 97.4169 210.582C98.3544 210.02 99.4624 209.739 100.741 209.739C102.019 209.739 103.127 210.02 104.065 210.582C105.002 211.145 105.727 211.935 106.238 212.952C106.755 213.969 107.013 215.153 107.013 216.506C107.013 217.858 106.755 219.04 106.238 220.051C105.727 221.062 105.002 221.849 104.065 222.412C103.127 222.974 102.019 223.256 100.741 223.256ZM100.758 220.784C101.451 220.784 102.031 220.594 102.496 220.213C102.962 219.827 103.309 219.31 103.536 218.662C103.769 218.014 103.886 217.293 103.886 216.497C103.886 215.696 103.769 214.972 103.536 214.324C103.309 213.67 102.962 213.151 102.496 212.764C102.031 212.378 101.451 212.185 100.758 212.185C100.048 212.185 99.4567 212.378 98.9851 212.764C98.5192 213.151 98.1697 213.67 97.9368 214.324C97.7095 214.972 97.5959 215.696 97.5959 216.497C97.5959 217.293 97.7095 218.014 97.9368 218.662C98.1697 219.31 98.5192 219.827 98.9851 220.213C99.4567 220.594 100.048 220.784 100.758 220.784ZM125.207 210.344C125.128 209.599 124.793 209.02 124.202 208.605C123.616 208.19 122.855 207.983 121.918 207.983C121.259 207.983 120.693 208.082 120.222 208.281C119.75 208.48 119.389 208.75 119.139 209.091C118.889 209.432 118.761 209.821 118.756 210.259C118.756 210.622 118.838 210.937 119.003 211.205C119.173 211.472 119.403 211.699 119.693 211.886C119.983 212.068 120.304 212.222 120.656 212.347C121.009 212.472 121.364 212.577 121.722 212.662L123.358 213.071C124.017 213.224 124.651 213.432 125.259 213.693C125.872 213.955 126.42 214.284 126.903 214.682C127.392 215.08 127.778 215.56 128.062 216.122C128.347 216.685 128.489 217.344 128.489 218.099C128.489 219.122 128.227 220.023 127.705 220.801C127.182 221.574 126.426 222.179 125.438 222.616C124.455 223.048 123.264 223.264 121.866 223.264C120.509 223.264 119.33 223.054 118.33 222.634C117.335 222.213 116.557 221.599 115.994 220.793C115.438 219.986 115.136 219.003 115.091 217.844H118.202C118.247 218.452 118.435 218.957 118.764 219.361C119.094 219.764 119.523 220.065 120.051 220.264C120.585 220.463 121.182 220.562 121.841 220.562C122.528 220.562 123.131 220.46 123.648 220.256C124.17 220.045 124.58 219.756 124.875 219.386C125.17 219.011 125.321 218.574 125.327 218.074C125.321 217.619 125.188 217.244 124.926 216.949C124.665 216.648 124.298 216.398 123.827 216.199C123.361 215.994 122.815 215.812 122.19 215.653L120.205 215.142C118.767 214.773 117.631 214.213 116.795 213.463C115.966 212.707 115.551 211.705 115.551 210.455C115.551 209.426 115.83 208.526 116.386 207.753C116.949 206.98 117.713 206.381 118.679 205.955C119.645 205.523 120.739 205.307 121.96 205.307C123.199 205.307 124.284 205.523 125.216 205.955C126.153 206.381 126.889 206.974 127.423 207.736C127.957 208.491 128.233 209.361 128.25 210.344H125.207ZM136.967 223.256C135.654 223.256 134.521 222.983 133.566 222.438C132.617 221.886 131.887 221.108 131.376 220.102C130.864 219.091 130.609 217.901 130.609 216.531C130.609 215.185 130.864 214.003 131.376 212.986C131.893 211.963 132.614 211.168 133.54 210.599C134.467 210.026 135.555 209.739 136.805 209.739C137.612 209.739 138.373 209.869 139.089 210.131C139.81 210.386 140.447 210.784 140.998 211.324C141.555 211.864 141.992 212.551 142.31 213.386C142.629 214.216 142.788 215.205 142.788 216.352V217.298H132.058V215.219H139.83C139.825 214.628 139.697 214.102 139.447 213.642C139.197 213.176 138.847 212.81 138.398 212.543C137.955 212.276 137.438 212.142 136.847 212.142C136.217 212.142 135.663 212.295 135.185 212.602C134.708 212.903 134.336 213.301 134.069 213.795C133.808 214.284 133.674 214.821 133.668 215.406V217.222C133.668 217.983 133.808 218.636 134.086 219.182C134.364 219.722 134.754 220.136 135.254 220.426C135.754 220.71 136.339 220.852 137.009 220.852C137.458 220.852 137.864 220.79 138.228 220.665C138.592 220.534 138.907 220.344 139.174 220.094C139.441 219.844 139.643 219.534 139.779 219.165L142.66 219.489C142.478 220.25 142.131 220.915 141.62 221.483C141.114 222.045 140.467 222.483 139.677 222.795C138.887 223.102 137.984 223.256 136.967 223.256ZM148.483 205.545V223H145.398V205.545H148.483ZM157.451 223.256C156.138 223.256 155.005 222.983 154.05 222.438C153.102 221.886 152.371 221.108 151.86 220.102C151.349 219.091 151.093 217.901 151.093 216.531C151.093 215.185 151.349 214.003 151.86 212.986C152.377 211.963 153.099 211.168 154.025 210.599C154.951 210.026 156.039 209.739 157.289 209.739C158.096 209.739 158.857 209.869 159.573 210.131C160.295 210.386 160.931 210.784 161.482 211.324C162.039 211.864 162.477 212.551 162.795 213.386C163.113 214.216 163.272 215.205 163.272 216.352V217.298H152.542V215.219H160.315C160.309 214.628 160.181 214.102 159.931 213.642C159.681 213.176 159.332 212.81 158.883 212.543C158.44 212.276 157.923 212.142 157.332 212.142C156.701 212.142 156.147 212.295 155.67 212.602C155.192 212.903 154.82 213.301 154.553 213.795C154.292 214.284 154.158 214.821 154.153 215.406V217.222C154.153 217.983 154.292 218.636 154.57 219.182C154.849 219.722 155.238 220.136 155.738 220.426C156.238 220.71 156.823 220.852 157.494 220.852C157.942 220.852 158.349 220.79 158.712 220.665C159.076 220.534 159.391 220.344 159.658 220.094C159.925 219.844 160.127 219.534 160.263 219.165L163.144 219.489C162.962 220.25 162.616 220.915 162.104 221.483C161.599 222.045 160.951 222.483 160.161 222.795C159.371 223.102 158.468 223.256 157.451 223.256ZM172.419 209.909V212.295H164.893V209.909H172.419ZM166.751 206.773H169.837V219.062C169.837 219.477 169.899 219.795 170.024 220.017C170.155 220.233 170.325 220.381 170.536 220.46C170.746 220.54 170.979 220.58 171.234 220.58C171.428 220.58 171.604 220.565 171.763 220.537C171.928 220.509 172.053 220.483 172.138 220.46L172.658 222.872C172.493 222.929 172.257 222.991 171.95 223.06C171.649 223.128 171.28 223.168 170.842 223.179C170.07 223.202 169.374 223.085 168.754 222.83C168.135 222.568 167.643 222.165 167.28 221.619C166.922 221.074 166.746 220.392 166.751 219.574V206.773ZM174.999 223V209.909H178.085V223H174.999ZM176.55 208.051C176.062 208.051 175.641 207.889 175.289 207.565C174.937 207.236 174.761 206.841 174.761 206.381C174.761 205.915 174.937 205.52 175.289 205.196C175.641 204.866 176.062 204.702 176.55 204.702C177.045 204.702 177.465 204.866 177.812 205.196C178.164 205.52 178.34 205.915 178.34 206.381C178.34 206.841 178.164 207.236 177.812 207.565C177.465 207.889 177.045 208.051 176.55 208.051ZM192.95 209.909L188.288 223H184.879L180.217 209.909H183.507L186.516 219.634H186.652L189.669 209.909H192.95ZM200.35 223.256C199.072 223.256 197.964 222.974 197.026 222.412C196.089 221.849 195.362 221.062 194.844 220.051C194.333 219.04 194.077 217.858 194.077 216.506C194.077 215.153 194.333 213.969 194.844 212.952C195.362 211.935 196.089 211.145 197.026 210.582C197.964 210.02 199.072 209.739 200.35 209.739C201.629 209.739 202.737 210.02 203.674 210.582C204.612 211.145 205.336 211.935 205.847 212.952C206.364 213.969 206.623 215.153 206.623 216.506C206.623 217.858 206.364 219.04 205.847 220.051C205.336 221.062 204.612 221.849 203.674 222.412C202.737 222.974 201.629 223.256 200.35 223.256ZM200.367 220.784C201.06 220.784 201.64 220.594 202.106 220.213C202.572 219.827 202.918 219.31 203.146 218.662C203.379 218.014 203.495 217.293 203.495 216.497C203.495 215.696 203.379 214.972 203.146 214.324C202.918 213.67 202.572 213.151 202.106 212.764C201.64 212.378 201.06 212.185 200.367 212.185C199.657 212.185 199.066 212.378 198.594 212.764C198.129 213.151 197.779 213.67 197.546 214.324C197.319 214.972 197.205 215.696 197.205 216.497C197.205 217.293 197.319 218.014 197.546 218.662C197.779 219.31 198.129 219.827 198.594 220.213C199.066 220.594 199.657 220.784 200.367 220.784ZM220.053 223.23C219.024 223.23 218.104 222.966 217.291 222.438C216.479 221.909 215.837 221.142 215.365 220.136C214.893 219.131 214.658 217.909 214.658 216.472C214.658 215.017 214.896 213.79 215.374 212.79C215.857 211.784 216.507 211.026 217.325 210.514C218.143 209.997 219.055 209.739 220.061 209.739C220.828 209.739 221.459 209.869 221.953 210.131C222.447 210.386 222.839 210.696 223.129 211.06C223.419 211.418 223.643 211.756 223.803 212.074H223.93V205.545H227.024V223H223.99V220.938H223.803C223.643 221.256 223.413 221.594 223.112 221.952C222.811 222.304 222.413 222.605 221.919 222.855C221.425 223.105 220.803 223.23 220.053 223.23ZM220.913 220.699C221.567 220.699 222.124 220.523 222.584 220.17C223.044 219.812 223.393 219.315 223.632 218.679C223.871 218.043 223.99 217.301 223.99 216.455C223.99 215.608 223.871 214.872 223.632 214.247C223.399 213.622 223.053 213.136 222.592 212.79C222.138 212.443 221.578 212.27 220.913 212.27C220.226 212.27 219.652 212.449 219.192 212.807C218.732 213.165 218.385 213.659 218.152 214.29C217.919 214.92 217.803 215.642 217.803 216.455C217.803 217.273 217.919 218.003 218.152 218.645C218.391 219.281 218.74 219.784 219.2 220.153C219.666 220.517 220.237 220.699 220.913 220.699ZM236.022 223.256C234.744 223.256 233.636 222.974 232.698 222.412C231.761 221.849 231.033 221.062 230.516 220.051C230.005 219.04 229.749 217.858 229.749 216.506C229.749 215.153 230.005 213.969 230.516 212.952C231.033 211.935 231.761 211.145 232.698 210.582C233.636 210.02 234.744 209.739 236.022 209.739C237.3 209.739 238.408 210.02 239.346 210.582C240.283 211.145 241.008 211.935 241.519 212.952C242.036 213.969 242.295 215.153 242.295 216.506C242.295 217.858 242.036 219.04 241.519 220.051C241.008 221.062 240.283 221.849 239.346 222.412C238.408 222.974 237.3 223.256 236.022 223.256ZM236.039 220.784C236.732 220.784 237.312 220.594 237.778 220.213C238.244 219.827 238.59 219.31 238.817 218.662C239.05 218.014 239.167 217.293 239.167 216.497C239.167 215.696 239.05 214.972 238.817 214.324C238.59 213.67 238.244 213.151 237.778 212.764C237.312 212.378 236.732 212.185 236.039 212.185C235.329 212.185 234.738 212.378 234.266 212.764C233.8 213.151 233.451 213.67 233.218 214.324C232.991 214.972 232.877 215.696 232.877 216.497C232.877 217.293 232.991 218.014 233.218 218.662C233.451 219.31 233.8 219.827 234.266 220.213C234.738 220.594 235.329 220.784 236.039 220.784ZM251.003 223V205.545H257.548C258.889 205.545 260.014 205.795 260.923 206.295C261.838 206.795 262.528 207.483 262.994 208.358C263.466 209.227 263.702 210.216 263.702 211.324C263.702 212.443 263.466 213.437 262.994 214.307C262.523 215.176 261.827 215.861 260.906 216.361C259.986 216.855 258.852 217.102 257.506 217.102H253.168V214.503H257.08C257.864 214.503 258.506 214.366 259.006 214.094C259.506 213.821 259.875 213.446 260.114 212.969C260.358 212.491 260.48 211.943 260.48 211.324C260.48 210.705 260.358 210.159 260.114 209.688C259.875 209.216 259.503 208.849 258.997 208.588C258.497 208.321 257.852 208.188 257.062 208.188H254.165V223H251.003ZM266.312 223V209.909H269.303V212.091H269.44C269.678 211.335 270.087 210.753 270.667 210.344C271.252 209.929 271.92 209.722 272.67 209.722C272.84 209.722 273.031 209.73 273.241 209.747C273.457 209.759 273.636 209.778 273.778 209.807V212.645C273.647 212.599 273.44 212.56 273.156 212.526C272.877 212.486 272.607 212.466 272.346 212.466C271.783 212.466 271.278 212.588 270.829 212.832C270.386 213.071 270.036 213.403 269.781 213.83C269.525 214.256 269.397 214.747 269.397 215.304V223H266.312ZM280.999 223.256C279.72 223.256 278.612 222.974 277.675 222.412C276.737 221.849 276.01 221.062 275.493 220.051C274.982 219.04 274.726 217.858 274.726 216.506C274.726 215.153 274.982 213.969 275.493 212.952C276.01 211.935 276.737 211.145 277.675 210.582C278.612 210.02 279.72 209.739 280.999 209.739C282.277 209.739 283.385 210.02 284.322 210.582C285.26 211.145 285.984 211.935 286.496 212.952C287.013 213.969 287.271 215.153 287.271 216.506C287.271 217.858 287.013 219.04 286.496 220.051C285.984 221.062 285.26 221.849 284.322 222.412C283.385 222.974 282.277 223.256 280.999 223.256ZM281.016 220.784C281.709 220.784 282.288 220.594 282.754 220.213C283.22 219.827 283.567 219.31 283.794 218.662C284.027 218.014 284.143 217.293 284.143 216.497C284.143 215.696 284.027 214.972 283.794 214.324C283.567 213.67 283.22 213.151 282.754 212.764C282.288 212.378 281.709 212.185 281.016 212.185C280.305 212.185 279.714 212.378 279.243 212.764C278.777 213.151 278.428 213.67 278.195 214.324C277.967 214.972 277.854 215.696 277.854 216.497C277.854 217.293 277.967 218.014 278.195 218.662C278.428 219.31 278.777 219.827 279.243 220.213C279.714 220.594 280.305 220.784 281.016 220.784ZM295.583 228.182C294.475 228.182 293.523 228.031 292.728 227.73C291.933 227.435 291.293 227.037 290.81 226.537C290.327 226.037 289.992 225.483 289.805 224.875L292.583 224.202C292.708 224.457 292.89 224.71 293.129 224.96C293.367 225.216 293.688 225.426 294.092 225.591C294.501 225.761 295.015 225.847 295.634 225.847C296.509 225.847 297.234 225.634 297.808 225.207C298.381 224.787 298.668 224.094 298.668 223.128V220.648H298.515C298.356 220.966 298.123 221.293 297.816 221.628C297.515 221.963 297.114 222.244 296.614 222.472C296.12 222.699 295.498 222.812 294.748 222.812C293.742 222.812 292.83 222.577 292.012 222.105C291.2 221.628 290.552 220.918 290.069 219.974C289.592 219.026 289.353 217.838 289.353 216.412C289.353 214.974 289.592 213.761 290.069 212.773C290.552 211.778 291.202 211.026 292.021 210.514C292.839 209.997 293.751 209.739 294.756 209.739C295.523 209.739 296.154 209.869 296.648 210.131C297.148 210.386 297.546 210.696 297.842 211.06C298.137 211.418 298.362 211.756 298.515 212.074H298.685V209.909H301.728V223.213C301.728 224.332 301.461 225.259 300.927 225.991C300.393 226.724 299.663 227.273 298.737 227.636C297.81 228 296.759 228.182 295.583 228.182ZM295.609 220.392C296.262 220.392 296.819 220.233 297.279 219.915C297.739 219.597 298.089 219.139 298.327 218.543C298.566 217.946 298.685 217.23 298.685 216.395C298.685 215.571 298.566 214.849 298.327 214.23C298.094 213.611 297.748 213.131 297.288 212.79C296.833 212.443 296.273 212.27 295.609 212.27C294.921 212.27 294.347 212.449 293.887 212.807C293.427 213.165 293.08 213.656 292.847 214.281C292.614 214.901 292.498 215.605 292.498 216.395C292.498 217.196 292.614 217.898 292.847 218.5C293.086 219.097 293.435 219.562 293.896 219.898C294.362 220.227 294.933 220.392 295.609 220.392ZM304.89 223V209.909H307.881V212.091H308.018C308.256 211.335 308.665 210.753 309.245 210.344C309.83 209.929 310.498 209.722 311.248 209.722C311.418 209.722 311.609 209.73 311.819 209.747C312.035 209.759 312.214 209.778 312.356 209.807V212.645C312.225 212.599 312.018 212.56 311.734 212.526C311.455 212.486 311.185 212.466 310.924 212.466C310.362 212.466 309.856 212.588 309.407 212.832C308.964 213.071 308.614 213.403 308.359 213.83C308.103 214.256 307.975 214.747 307.975 215.304V223H304.89ZM317.938 223.264C317.109 223.264 316.362 223.116 315.697 222.821C315.038 222.52 314.515 222.077 314.129 221.491C313.748 220.906 313.558 220.185 313.558 219.327C313.558 218.588 313.694 217.977 313.967 217.494C314.239 217.011 314.612 216.625 315.083 216.335C315.555 216.045 316.086 215.827 316.677 215.679C317.273 215.526 317.89 215.415 318.526 215.347C319.293 215.267 319.915 215.196 320.393 215.134C320.87 215.065 321.217 214.963 321.433 214.827C321.654 214.685 321.765 214.466 321.765 214.17V214.119C321.765 213.477 321.575 212.98 321.194 212.628C320.813 212.276 320.265 212.099 319.549 212.099C318.793 212.099 318.194 212.264 317.751 212.594C317.313 212.923 317.018 213.312 316.864 213.761L313.984 213.352C314.211 212.557 314.586 211.892 315.109 211.358C315.631 210.818 316.271 210.415 317.026 210.148C317.782 209.875 318.617 209.739 319.532 209.739C320.163 209.739 320.79 209.812 321.415 209.96C322.04 210.108 322.612 210.352 323.129 210.693C323.646 211.028 324.06 211.486 324.373 212.065C324.691 212.645 324.85 213.369 324.85 214.239V223H321.884V221.202H321.782C321.594 221.565 321.33 221.906 320.989 222.224C320.654 222.537 320.231 222.79 319.719 222.983C319.214 223.17 318.62 223.264 317.938 223.264ZM318.739 220.997C319.359 220.997 319.896 220.875 320.35 220.631C320.805 220.381 321.154 220.051 321.398 219.642C321.648 219.233 321.773 218.787 321.773 218.304V216.761C321.677 216.841 321.512 216.915 321.279 216.983C321.052 217.051 320.796 217.111 320.512 217.162C320.228 217.213 319.947 217.259 319.668 217.298C319.39 217.338 319.148 217.372 318.944 217.401C318.484 217.463 318.072 217.565 317.708 217.707C317.344 217.849 317.058 218.048 316.847 218.304C316.637 218.554 316.532 218.878 316.532 219.276C316.532 219.844 316.739 220.273 317.154 220.562C317.569 220.852 318.097 220.997 318.739 220.997ZM327.952 223V209.909H330.901V212.134H331.055C331.327 211.384 331.779 210.798 332.41 210.378C333.04 209.952 333.793 209.739 334.668 209.739C335.555 209.739 336.302 209.955 336.91 210.386C337.523 210.812 337.955 211.395 338.205 212.134H338.342C338.631 211.406 339.12 210.827 339.808 210.395C340.501 209.957 341.322 209.739 342.271 209.739C343.475 209.739 344.458 210.119 345.219 210.881C345.981 211.642 346.362 212.753 346.362 214.213V223H343.268V214.69C343.268 213.878 343.052 213.284 342.62 212.909C342.188 212.528 341.66 212.338 341.035 212.338C340.29 212.338 339.708 212.571 339.288 213.037C338.873 213.497 338.665 214.097 338.665 214.835V223H335.64V214.562C335.64 213.886 335.435 213.347 335.026 212.943C334.623 212.54 334.094 212.338 333.441 212.338C332.998 212.338 332.594 212.452 332.231 212.679C331.867 212.901 331.577 213.216 331.362 213.625C331.146 214.028 331.038 214.5 331.038 215.04V223H327.952ZM353.259 223.264C352.429 223.264 351.682 223.116 351.017 222.821C350.358 222.52 349.835 222.077 349.449 221.491C349.068 220.906 348.878 220.185 348.878 219.327C348.878 218.588 349.014 217.977 349.287 217.494C349.56 217.011 349.932 216.625 350.403 216.335C350.875 216.045 351.406 215.827 351.997 215.679C352.594 215.526 353.21 215.415 353.847 215.347C354.614 215.267 355.236 215.196 355.713 215.134C356.19 215.065 356.537 214.963 356.753 214.827C356.974 214.685 357.085 214.466 357.085 214.17V214.119C357.085 213.477 356.895 212.98 356.514 212.628C356.134 212.276 355.585 212.099 354.869 212.099C354.114 212.099 353.514 212.264 353.071 212.594C352.634 212.923 352.338 213.312 352.185 213.761L349.304 213.352C349.531 212.557 349.906 211.892 350.429 211.358C350.952 210.818 351.591 210.415 352.347 210.148C353.102 209.875 353.938 209.739 354.852 209.739C355.483 209.739 356.111 209.812 356.736 209.96C357.361 210.108 357.932 210.352 358.449 210.693C358.966 211.028 359.381 211.486 359.693 212.065C360.011 212.645 360.17 213.369 360.17 214.239V223H357.205V221.202H357.102C356.915 221.565 356.651 221.906 356.31 222.224C355.974 222.537 355.551 222.79 355.04 222.983C354.534 223.17 353.94 223.264 353.259 223.264ZM354.06 220.997C354.679 220.997 355.216 220.875 355.67 220.631C356.125 220.381 356.474 220.051 356.719 219.642C356.969 219.233 357.094 218.787 357.094 218.304V216.761C356.997 216.841 356.832 216.915 356.599 216.983C356.372 217.051 356.116 217.111 355.832 217.162C355.548 217.213 355.267 217.259 354.989 217.298C354.71 217.338 354.469 217.372 354.264 217.401C353.804 217.463 353.392 217.565 353.028 217.707C352.665 217.849 352.378 218.048 352.168 218.304C351.957 218.554 351.852 218.878 351.852 219.276C351.852 219.844 352.06 220.273 352.474 220.562C352.889 220.852 353.418 220.997 354.06 220.997ZM368.595 208.196V205.545H382.521V208.196H377.126V223H373.99V208.196H368.595ZM385.338 223H381.963L388.108 205.545H392.011L398.165 223H394.79L390.128 209.125H389.991L385.338 223ZM385.449 216.156H394.653V218.696H385.449V216.156ZM400.464 223V205.545H403.626V220.349H411.313V223H400.464Z" fill="#750F1D"/>
</svg>
