<svg width="339" height="428" viewBox="0 0 339 428" fill="none" xmlns="http://www.w3.org/2000/svg">
<g filter="url(#filter0_d_425_640)">
<rect x="6" y="8" width="315" height="404" rx="8" fill="#FAFAFA"/>
<rect opacity="0.2" x="119" y="50" width="80" height="80" rx="8" fill="#C21930"/>
<g filter="url(#filter1_d_425_640)">
<rect x="129" y="40" width="80" height="80" rx="8" fill="#C21930"/>
</g>
<path d="M49.7836 223L45.8316 211.72H47.2076L50.3916 221.08L53.6556 211.72H54.7116L57.9436 221.16L61.1916 211.72H62.5036L58.5516 223H57.3836L54.1676 213.72L50.9196 223H49.7836ZM66.7434 223.144C65.5168 223.144 64.5461 222.787 63.8314 222.072C63.1168 221.347 62.7594 220.365 62.7594 219.128C62.7594 218.328 62.9194 217.624 63.2394 217.016C63.5594 216.397 63.9968 215.923 64.5514 215.592C65.1168 215.251 65.7674 215.08 66.5034 215.08C67.5594 215.08 68.3861 215.421 68.9834 216.104C69.5808 216.776 69.8794 217.704 69.8794 218.888V219.384H64.0234C64.0661 220.269 64.3221 220.947 64.7914 221.416C65.2608 221.875 65.9114 222.104 66.7434 222.104C67.2128 222.104 67.6608 222.035 68.0874 221.896C68.5141 221.747 68.9194 221.507 69.3034 221.176L69.7514 222.088C69.3994 222.419 68.9514 222.68 68.4074 222.872C67.8634 223.053 67.3088 223.144 66.7434 223.144ZM66.5354 216.04C65.7994 216.04 65.2181 216.269 64.7914 216.728C64.3648 217.187 64.1141 217.789 64.0394 218.536H68.7594C68.7274 217.747 68.5194 217.133 68.1354 216.696C67.7621 216.259 67.2288 216.04 66.5354 216.04ZM71.7503 215.192L71.1583 214.712C71.393 214.467 71.5583 214.237 71.6543 214.024C71.761 213.8 71.825 213.576 71.8463 213.352H71.0943V211.72H72.7263V212.872C72.7263 213.309 72.657 213.715 72.5183 214.088C72.3796 214.461 72.1236 214.829 71.7503 215.192ZM74.9269 223V215.224H76.1909V216.616C76.6069 215.677 77.4603 215.16 78.7509 215.064L79.2149 215.016L79.3109 216.136L78.4949 216.232C77.7589 216.296 77.1989 216.531 76.8149 216.936C76.4309 217.331 76.2389 217.875 76.2389 218.568V223H74.9269ZM84.0716 223.144C82.8449 223.144 81.8742 222.787 81.1596 222.072C80.4449 221.347 80.0876 220.365 80.0876 219.128C80.0876 218.328 80.2476 217.624 80.5676 217.016C80.8876 216.397 81.3249 215.923 81.8796 215.592C82.4449 215.251 83.0956 215.08 83.8316 215.08C84.8876 215.08 85.7142 215.421 86.3116 216.104C86.9089 216.776 87.2076 217.704 87.2076 218.888V219.384H81.3516C81.3942 220.269 81.6502 220.947 82.1196 221.416C82.5889 221.875 83.2396 222.104 84.0716 222.104C84.5409 222.104 84.9889 222.035 85.4156 221.896C85.8422 221.747 86.2476 221.507 86.6316 221.176L87.0796 222.088C86.7276 222.419 86.2796 222.68 85.7356 222.872C85.1916 223.053 84.6369 223.144 84.0716 223.144ZM83.8636 216.04C83.1276 216.04 82.5462 216.269 82.1196 216.728C81.6929 217.187 81.4422 217.789 81.3676 218.536H86.0876C86.0556 217.747 85.8476 217.133 85.4636 216.696C85.0902 216.259 84.5569 216.04 83.8636 216.04ZM96.4886 223.144C95.7099 223.144 95.0379 222.979 94.4726 222.648C93.9072 222.307 93.4699 221.832 93.1606 221.224C92.8619 220.605 92.7126 219.885 92.7126 219.064C92.7126 217.827 93.0486 216.856 93.7206 216.152C94.3926 215.437 95.3152 215.08 96.4886 215.08C96.9686 215.08 97.4432 215.165 97.9126 215.336C98.3819 215.507 98.7712 215.747 99.0806 216.056L98.6326 217C98.3232 216.701 97.9819 216.483 97.6086 216.344C97.2459 216.205 96.8992 216.136 96.5686 216.136C95.7579 216.136 95.1339 216.392 94.6966 216.904C94.2592 217.405 94.0406 218.131 94.0406 219.08C94.0406 220.008 94.2592 220.744 94.6966 221.288C95.1339 221.821 95.7579 222.088 96.5686 222.088C96.8992 222.088 97.2459 222.019 97.6086 221.88C97.9819 221.741 98.3232 221.517 98.6326 221.208L99.0806 222.152C98.7712 222.461 98.3766 222.707 97.8966 222.888C97.4272 223.059 96.9579 223.144 96.4886 223.144ZM100.599 223V215.224H101.863V216.616C102.279 215.677 103.132 215.16 104.423 215.064L104.887 215.016L104.983 216.136L104.167 216.232C103.431 216.296 102.871 216.531 102.487 216.936C102.103 217.331 101.911 217.875 101.911 218.568V223H100.599ZM109.743 223.144C108.517 223.144 107.546 222.787 106.831 222.072C106.117 221.347 105.759 220.365 105.759 219.128C105.759 218.328 105.919 217.624 106.239 217.016C106.559 216.397 106.997 215.923 107.551 215.592C108.117 215.251 108.767 215.08 109.503 215.08C110.559 215.08 111.386 215.421 111.983 216.104C112.581 216.776 112.879 217.704 112.879 218.888V219.384H107.023C107.066 220.269 107.322 220.947 107.791 221.416C108.261 221.875 108.911 222.104 109.743 222.104C110.213 222.104 110.661 222.035 111.087 221.896C111.514 221.747 111.919 221.507 112.303 221.176L112.751 222.088C112.399 222.419 111.951 222.68 111.407 222.872C110.863 223.053 110.309 223.144 109.743 223.144ZM109.535 216.04C108.799 216.04 108.218 216.269 107.791 216.728C107.365 217.187 107.114 217.789 107.039 218.536H111.759C111.727 217.747 111.519 217.133 111.135 216.696C110.762 216.259 110.229 216.04 109.535 216.04ZM117.203 223.144C116.67 223.144 116.19 223.043 115.763 222.84C115.347 222.627 115.016 222.339 114.771 221.976C114.526 221.613 114.403 221.208 114.403 220.76C114.403 220.195 114.547 219.747 114.835 219.416C115.134 219.085 115.619 218.851 116.291 218.712C116.974 218.563 117.902 218.488 119.075 218.488H119.587V217.992C119.587 217.331 119.448 216.856 119.171 216.568C118.904 216.269 118.472 216.12 117.875 216.12C117.406 216.12 116.952 216.189 116.515 216.328C116.078 216.456 115.63 216.669 115.171 216.968L114.723 216.024C115.128 215.736 115.619 215.507 116.195 215.336C116.782 215.165 117.342 215.08 117.875 215.08C118.878 215.08 119.619 215.325 120.099 215.816C120.59 216.307 120.835 217.069 120.835 218.104V223H119.619V221.656C119.416 222.115 119.102 222.477 118.675 222.744C118.259 223.011 117.768 223.144 117.203 223.144ZM117.411 222.168C118.051 222.168 118.574 221.949 118.979 221.512C119.384 221.064 119.587 220.499 119.587 219.816V219.336H119.091C118.227 219.336 117.544 219.379 117.043 219.464C116.552 219.539 116.206 219.677 116.003 219.88C115.811 220.072 115.715 220.339 115.715 220.68C115.715 221.117 115.864 221.475 116.163 221.752C116.472 222.029 116.888 222.168 117.411 222.168ZM126.359 223.144C125.442 223.144 124.754 222.904 124.295 222.424C123.837 221.933 123.607 221.229 123.607 220.312V216.232H122.087V215.224H123.607V212.84H124.903V215.224H127.367V216.232H124.903V220.184C124.903 220.792 125.031 221.256 125.287 221.576C125.543 221.885 125.959 222.04 126.535 222.04C126.706 222.04 126.877 222.019 127.047 221.976C127.218 221.933 127.373 221.891 127.511 221.848L127.735 222.84C127.597 222.915 127.394 222.984 127.127 223.048C126.861 223.112 126.605 223.144 126.359 223.144ZM128.673 213.288V211.832H130.273V213.288H128.673ZM128.833 223V215.224H130.129V223H128.833ZM132.552 223V215.224H133.816V216.552C134.072 216.061 134.435 215.693 134.904 215.448C135.373 215.203 135.901 215.08 136.488 215.08C138.333 215.08 139.256 216.104 139.256 218.152V223H137.96V218.232C137.96 217.507 137.816 216.979 137.528 216.648C137.251 216.307 136.803 216.136 136.184 216.136C135.469 216.136 134.899 216.36 134.472 216.808C134.056 217.245 133.848 217.832 133.848 218.568V223H132.552ZM145.086 226.024C144.414 226.024 143.779 225.933 143.182 225.752C142.595 225.581 142.072 225.32 141.614 224.968L142.046 224.024C142.526 224.365 143 224.611 143.47 224.76C143.95 224.909 144.467 224.984 145.022 224.984C146.558 224.984 147.326 224.195 147.326 222.616V221.24C147.102 221.731 146.75 222.12 146.27 222.408C145.8 222.685 145.262 222.824 144.654 222.824C143.939 222.824 143.32 222.659 142.798 222.328C142.275 221.997 141.87 221.544 141.582 220.968C141.304 220.381 141.166 219.704 141.166 218.936C141.166 218.168 141.304 217.496 141.582 216.92C141.87 216.333 142.275 215.88 142.798 215.56C143.32 215.24 143.939 215.08 144.654 215.08C145.262 215.08 145.8 215.219 146.27 215.496C146.75 215.773 147.102 216.152 147.326 216.632V215.224H148.59V222.44C148.59 223.635 148.291 224.531 147.694 225.128C147.107 225.725 146.238 226.024 145.086 226.024ZM144.894 221.768C145.64 221.768 146.232 221.512 146.67 221C147.107 220.488 147.326 219.8 147.326 218.936C147.326 218.072 147.107 217.389 146.67 216.888C146.232 216.376 145.64 216.12 144.894 216.12C144.158 216.12 143.571 216.376 143.134 216.888C142.696 217.389 142.478 218.072 142.478 218.936C142.478 219.8 142.696 220.488 143.134 221C143.571 221.512 144.158 221.768 144.894 221.768ZM157.578 223.144C157.045 223.144 156.565 223.043 156.138 222.84C155.722 222.627 155.391 222.339 155.146 221.976C154.901 221.613 154.778 221.208 154.778 220.76C154.778 220.195 154.922 219.747 155.21 219.416C155.509 219.085 155.994 218.851 156.666 218.712C157.349 218.563 158.277 218.488 159.45 218.488H159.962V217.992C159.962 217.331 159.823 216.856 159.546 216.568C159.279 216.269 158.847 216.12 158.25 216.12C157.781 216.12 157.327 216.189 156.89 216.328C156.453 216.456 156.005 216.669 155.546 216.968L155.098 216.024C155.503 215.736 155.994 215.507 156.57 215.336C157.157 215.165 157.717 215.08 158.25 215.08C159.253 215.08 159.994 215.325 160.474 215.816C160.965 216.307 161.21 217.069 161.21 218.104V223H159.994V221.656C159.791 222.115 159.477 222.477 159.05 222.744C158.634 223.011 158.143 223.144 157.578 223.144ZM157.786 222.168C158.426 222.168 158.949 221.949 159.354 221.512C159.759 221.064 159.962 220.499 159.962 219.816V219.336H159.466C158.602 219.336 157.919 219.379 157.418 219.464C156.927 219.539 156.581 219.677 156.378 219.88C156.186 220.072 156.09 220.339 156.09 220.68C156.09 221.117 156.239 221.475 156.538 221.752C156.847 222.029 157.263 222.168 157.786 222.168ZM170.348 223.144C169.74 223.144 169.164 223.059 168.62 222.888C168.076 222.717 167.628 222.477 167.276 222.168L167.692 221.256C168.076 221.565 168.497 221.795 168.956 221.944C169.425 222.083 169.9 222.152 170.38 222.152C170.988 222.152 171.446 222.04 171.756 221.816C172.065 221.592 172.22 221.288 172.22 220.904C172.22 220.605 172.118 220.371 171.916 220.2C171.713 220.019 171.393 219.88 170.956 219.784L169.5 219.464C168.177 219.176 167.516 218.493 167.516 217.416C167.516 216.712 167.793 216.147 168.348 215.72C168.913 215.293 169.649 215.08 170.556 215.08C171.089 215.08 171.596 215.165 172.076 215.336C172.566 215.496 172.972 215.736 173.292 216.056L172.86 216.968C172.55 216.68 172.188 216.461 171.772 216.312C171.366 216.152 170.961 216.072 170.556 216.072C169.958 216.072 169.505 216.189 169.196 216.424C168.886 216.659 168.732 216.968 168.732 217.352C168.732 217.949 169.126 218.333 169.916 218.504L171.372 218.808C172.054 218.957 172.572 219.197 172.924 219.528C173.276 219.848 173.452 220.285 173.452 220.84C173.452 221.555 173.169 222.12 172.604 222.536C172.038 222.941 171.286 223.144 170.348 223.144ZM178.931 223.144C177.704 223.144 176.734 222.787 176.019 222.072C175.304 221.347 174.947 220.365 174.947 219.128C174.947 218.328 175.107 217.624 175.427 217.016C175.747 216.397 176.184 215.923 176.739 215.592C177.304 215.251 177.955 215.08 178.691 215.08C179.747 215.08 180.574 215.421 181.171 216.104C181.768 216.776 182.067 217.704 182.067 218.888V219.384H176.211C176.254 220.269 176.51 220.947 176.979 221.416C177.448 221.875 178.099 222.104 178.931 222.104C179.4 222.104 179.848 222.035 180.275 221.896C180.702 221.747 181.107 221.507 181.491 221.176L181.939 222.088C181.587 222.419 181.139 222.68 180.595 222.872C180.051 223.053 179.496 223.144 178.931 223.144ZM178.723 216.04C177.987 216.04 177.406 216.269 176.979 216.728C176.552 217.187 176.302 217.789 176.227 218.536H180.947C180.915 217.747 180.707 217.133 180.323 216.696C179.95 216.259 179.416 216.04 178.723 216.04ZM186.391 223.144C185.857 223.144 185.377 223.043 184.951 222.84C184.535 222.627 184.204 222.339 183.959 221.976C183.713 221.613 183.591 221.208 183.591 220.76C183.591 220.195 183.735 219.747 184.023 219.416C184.321 219.085 184.807 218.851 185.479 218.712C186.161 218.563 187.089 218.488 188.263 218.488H188.775V217.992C188.775 217.331 188.636 216.856 188.359 216.568C188.092 216.269 187.66 216.12 187.063 216.12C186.593 216.12 186.14 216.189 185.703 216.328C185.265 216.456 184.817 216.669 184.359 216.968L183.911 216.024C184.316 215.736 184.807 215.507 185.383 215.336C185.969 215.165 186.529 215.08 187.063 215.08C188.065 215.08 188.807 215.325 189.287 215.816C189.777 216.307 190.023 217.069 190.023 218.104V223H188.807V221.656C188.604 222.115 188.289 222.477 187.863 222.744C187.447 223.011 186.956 223.144 186.391 223.144ZM186.599 222.168C187.239 222.168 187.761 221.949 188.167 221.512C188.572 221.064 188.775 220.499 188.775 219.816V219.336H188.279C187.415 219.336 186.732 219.379 186.231 219.464C185.74 219.539 185.393 219.677 185.191 219.88C184.999 220.072 184.903 220.339 184.903 220.68C184.903 221.117 185.052 221.475 185.351 221.752C185.66 222.029 186.076 222.168 186.599 222.168ZM192.459 223V215.224H193.723V216.536C193.958 216.067 194.283 215.709 194.699 215.464C195.115 215.208 195.6 215.08 196.155 215.08C197.371 215.08 198.15 215.608 198.491 216.664C198.726 216.173 199.072 215.789 199.531 215.512C199.99 215.224 200.518 215.08 201.115 215.08C202.843 215.08 203.707 216.104 203.707 218.152V223H202.411V218.216C202.411 217.501 202.283 216.979 202.027 216.648C201.782 216.307 201.371 216.136 200.795 216.136C200.166 216.136 199.664 216.36 199.291 216.808C198.918 217.256 198.731 217.853 198.731 218.6V223H197.435V218.216C197.435 217.501 197.307 216.979 197.051 216.648C196.806 216.307 196.395 216.136 195.819 216.136C195.179 216.136 194.672 216.36 194.299 216.808C193.936 217.256 193.755 217.853 193.755 218.6V223H192.459ZM208.514 223.144C207.725 223.144 207.127 222.915 206.722 222.456C206.327 221.987 206.13 221.309 206.13 220.424V211.72H207.426V220.328C207.426 221.469 207.879 222.04 208.786 222.04C209.053 222.04 209.293 222.008 209.506 221.944L209.474 223.032C209.143 223.107 208.823 223.144 208.514 223.144ZM214.29 223.144C213.064 223.144 212.093 222.787 211.378 222.072C210.664 221.347 210.306 220.365 210.306 219.128C210.306 218.328 210.466 217.624 210.786 217.016C211.106 216.397 211.544 215.923 212.098 215.592C212.664 215.251 213.314 215.08 214.05 215.08C215.106 215.08 215.933 215.421 216.53 216.104C217.128 216.776 217.426 217.704 217.426 218.888V219.384H211.57C211.613 220.269 211.869 220.947 212.338 221.416C212.808 221.875 213.458 222.104 214.29 222.104C214.76 222.104 215.208 222.035 215.634 221.896C216.061 221.747 216.466 221.507 216.85 221.176L217.298 222.088C216.946 222.419 216.498 222.68 215.954 222.872C215.41 223.053 214.856 223.144 214.29 223.144ZM214.082 216.04C213.346 216.04 212.765 216.269 212.338 216.728C211.912 217.187 211.661 217.789 211.586 218.536H216.306C216.274 217.747 216.066 217.133 215.682 216.696C215.309 216.259 214.776 216.04 214.082 216.04ZM221.926 223.144C221.318 223.144 220.742 223.059 220.198 222.888C219.654 222.717 219.206 222.477 218.854 222.168L219.27 221.256C219.654 221.565 220.075 221.795 220.534 221.944C221.003 222.083 221.478 222.152 221.958 222.152C222.566 222.152 223.025 222.04 223.334 221.816C223.643 221.592 223.798 221.288 223.798 220.904C223.798 220.605 223.697 220.371 223.494 220.2C223.291 220.019 222.971 219.88 222.534 219.784L221.078 219.464C219.755 219.176 219.094 218.493 219.094 217.416C219.094 216.712 219.371 216.147 219.926 215.72C220.491 215.293 221.227 215.08 222.134 215.08C222.667 215.08 223.174 215.165 223.654 215.336C224.145 215.496 224.55 215.736 224.87 216.056L224.438 216.968C224.129 216.68 223.766 216.461 223.35 216.312C222.945 216.152 222.539 216.072 222.134 216.072C221.537 216.072 221.083 216.189 220.774 216.424C220.465 216.659 220.31 216.968 220.31 217.352C220.31 217.949 220.705 218.333 221.494 218.504L222.95 218.808C223.633 218.957 224.15 219.197 224.502 219.528C224.854 219.848 225.03 220.285 225.03 220.84C225.03 221.555 224.747 222.12 224.182 222.536C223.617 222.941 222.865 223.144 221.926 223.144ZM229.629 223.144C229.021 223.144 228.445 223.059 227.901 222.888C227.357 222.717 226.909 222.477 226.557 222.168L226.973 221.256C227.357 221.565 227.778 221.795 228.237 221.944C228.706 222.083 229.181 222.152 229.661 222.152C230.269 222.152 230.728 222.04 231.037 221.816C231.346 221.592 231.501 221.288 231.501 220.904C231.501 220.605 231.4 220.371 231.197 220.2C230.994 220.019 230.674 219.88 230.237 219.784L228.781 219.464C227.458 219.176 226.797 218.493 226.797 217.416C226.797 216.712 227.074 216.147 227.629 215.72C228.194 215.293 228.93 215.08 229.837 215.08C230.37 215.08 230.877 215.165 231.357 215.336C231.848 215.496 232.253 215.736 232.573 216.056L232.141 216.968C231.832 216.68 231.469 216.461 231.053 216.312C230.648 216.152 230.242 216.072 229.837 216.072C229.24 216.072 228.786 216.189 228.477 216.424C228.168 216.659 228.013 216.968 228.013 217.352C228.013 217.949 228.408 218.333 229.197 218.504L230.653 218.808C231.336 218.957 231.853 219.197 232.205 219.528C232.557 219.848 232.733 220.285 232.733 220.84C232.733 221.555 232.45 222.12 231.885 222.536C231.32 222.941 230.568 223.144 229.629 223.144ZM242.05 223.144C241.292 223.144 240.636 222.979 240.082 222.648C239.527 222.317 239.095 221.853 238.786 221.256C238.487 220.648 238.338 219.933 238.338 219.112C238.338 218.291 238.487 217.581 238.786 216.984C239.095 216.376 239.527 215.907 240.082 215.576C240.636 215.245 241.292 215.08 242.05 215.08C242.796 215.08 243.447 215.245 244.002 215.576C244.567 215.907 244.999 216.376 245.298 216.984C245.607 217.581 245.762 218.291 245.762 219.112C245.762 219.933 245.607 220.648 245.298 221.256C244.999 221.853 244.567 222.317 244.002 222.648C243.447 222.979 242.796 223.144 242.05 223.144ZM242.05 222.104C242.775 222.104 243.356 221.848 243.794 221.336C244.231 220.813 244.45 220.072 244.45 219.112C244.45 218.141 244.231 217.4 243.794 216.888C243.356 216.376 242.775 216.12 242.05 216.12C241.314 216.12 240.727 216.376 240.29 216.888C239.863 217.4 239.65 218.141 239.65 219.112C239.65 220.072 239.863 220.813 240.29 221.336C240.727 221.848 241.314 222.104 242.05 222.104ZM247.708 223V215.224H248.972V216.552C249.228 216.061 249.591 215.693 250.06 215.448C250.53 215.203 251.058 215.08 251.644 215.08C253.49 215.08 254.412 216.104 254.412 218.152V223H253.116V218.232C253.116 217.507 252.972 216.979 252.684 216.648C252.407 216.307 251.959 216.136 251.34 216.136C250.626 216.136 250.055 216.36 249.628 216.808C249.212 217.245 249.004 217.832 249.004 218.568V223H247.708ZM259.186 223.144C258.397 223.144 257.799 222.915 257.394 222.456C256.999 221.987 256.802 221.309 256.802 220.424V211.72H258.098V220.328C258.098 221.469 258.551 222.04 259.458 222.04C259.725 222.04 259.965 222.008 260.178 221.944L260.146 223.032C259.815 223.107 259.495 223.144 259.186 223.144ZM261.376 213.288V211.832H262.976V213.288H261.376ZM261.536 223V215.224H262.832V223H261.536ZM265.255 223V215.224H266.519V216.552C266.775 216.061 267.138 215.693 267.607 215.448C268.076 215.203 268.604 215.08 269.191 215.08C271.036 215.08 271.959 216.104 271.959 218.152V223H270.663V218.232C270.663 217.507 270.519 216.979 270.231 216.648C269.954 216.307 269.506 216.136 268.887 216.136C268.172 216.136 267.602 216.36 267.175 216.808C266.759 217.245 266.551 217.832 266.551 218.568V223H265.255ZM277.853 223.144C276.626 223.144 275.655 222.787 274.941 222.072C274.226 221.347 273.869 220.365 273.869 219.128C273.869 218.328 274.029 217.624 274.349 217.016C274.669 216.397 275.106 215.923 275.661 215.592C276.226 215.251 276.877 215.08 277.613 215.08C278.669 215.08 279.495 215.421 280.093 216.104C280.69 216.776 280.989 217.704 280.989 218.888V219.384H275.133C275.175 220.269 275.431 220.947 275.901 221.416C276.37 221.875 277.021 222.104 277.853 222.104C278.322 222.104 278.77 222.035 279.197 221.896C279.623 221.747 280.029 221.507 280.413 221.176L280.861 222.088C280.509 222.419 280.061 222.68 279.517 222.872C278.973 223.053 278.418 223.144 277.853 223.144ZM277.645 216.04C276.909 216.04 276.327 216.269 275.901 216.728C275.474 217.187 275.223 217.789 275.149 218.536H279.869C279.837 217.747 279.629 217.133 279.245 216.696C278.871 216.259 278.338 216.04 277.645 216.04ZM36.402 250.144C35.7833 250.144 35.2393 250.005 34.77 249.728C34.3113 249.451 33.9647 249.072 33.73 248.592V250H32.466V238.72H33.762V243.568C33.986 243.109 34.3327 242.747 34.802 242.48C35.2713 242.213 35.8047 242.08 36.402 242.08C37.0953 242.08 37.698 242.245 38.21 242.576C38.7327 242.896 39.1327 243.36 39.41 243.968C39.698 244.565 39.842 245.28 39.842 246.112C39.842 246.933 39.698 247.648 39.41 248.256C39.1327 248.853 38.7327 249.317 38.21 249.648C37.698 249.979 37.0953 250.144 36.402 250.144ZM36.13 249.104C36.8553 249.104 37.4367 248.848 37.874 248.336C38.3113 247.813 38.53 247.072 38.53 246.112C38.53 245.141 38.3113 244.4 37.874 243.888C37.4367 243.376 36.8553 243.12 36.13 243.12C35.4047 243.12 34.8233 243.376 34.386 243.888C33.9487 244.4 33.73 245.141 33.73 246.112C33.73 247.072 33.9487 247.813 34.386 248.336C34.8233 248.848 35.4047 249.104 36.13 249.104ZM44.5461 250.144C42.6795 250.144 41.7461 249.115 41.7461 247.056V242.224H43.0421V247.04C43.0421 247.733 43.1808 248.245 43.4581 248.576C43.7461 248.907 44.1941 249.072 44.8021 249.072C45.4635 249.072 46.0021 248.853 46.4181 248.416C46.8341 247.968 47.0421 247.376 47.0421 246.64V242.224H48.3381V250H47.0741V248.688C46.8288 249.157 46.4821 249.52 46.0341 249.776C45.5968 250.021 45.1008 250.144 44.5461 250.144ZM53.3869 250.144C52.7789 250.144 52.2029 250.059 51.6589 249.888C51.1149 249.717 50.6669 249.477 50.3149 249.168L50.7309 248.256C51.1149 248.565 51.5362 248.795 51.9949 248.944C52.4642 249.083 52.9389 249.152 53.4189 249.152C54.0269 249.152 54.4855 249.04 54.7949 248.816C55.1042 248.592 55.2589 248.288 55.2589 247.904C55.2589 247.605 55.1575 247.371 54.9549 247.2C54.7522 247.019 54.4322 246.88 53.9949 246.784L52.5389 246.464C51.2162 246.176 50.5549 245.493 50.5549 244.416C50.5549 243.712 50.8322 243.147 51.3869 242.72C51.9522 242.293 52.6882 242.08 53.5949 242.08C54.1282 242.08 54.6349 242.165 55.1149 242.336C55.6055 242.496 56.0109 242.736 56.3309 243.056L55.8989 243.968C55.5895 243.68 55.2269 243.461 54.8109 243.312C54.4055 243.152 54.0002 243.072 53.5949 243.072C52.9975 243.072 52.5442 243.189 52.2349 243.424C51.9255 243.659 51.7709 243.968 51.7709 244.352C51.7709 244.949 52.1655 245.333 52.9549 245.504L54.4109 245.808C55.0935 245.957 55.6109 246.197 55.9629 246.528C56.3149 246.848 56.4909 247.285 56.4909 247.84C56.4909 248.555 56.2082 249.12 55.6429 249.536C55.0775 249.941 54.3255 250.144 53.3869 250.144ZM61.09 250.144C60.482 250.144 59.906 250.059 59.362 249.888C58.818 249.717 58.37 249.477 58.018 249.168L58.434 248.256C58.818 248.565 59.2393 248.795 59.698 248.944C60.1673 249.083 60.642 249.152 61.122 249.152C61.73 249.152 62.1887 249.04 62.498 248.816C62.8073 248.592 62.962 248.288 62.962 247.904C62.962 247.605 62.8607 247.371 62.658 247.2C62.4553 247.019 62.1353 246.88 61.698 246.784L60.242 246.464C58.9193 246.176 58.258 245.493 58.258 244.416C58.258 243.712 58.5353 243.147 59.09 242.72C59.6553 242.293 60.3913 242.08 61.298 242.08C61.8313 242.08 62.338 242.165 62.818 242.336C63.3087 242.496 63.714 242.736 64.034 243.056L63.602 243.968C63.2927 243.68 62.93 243.461 62.514 243.312C62.1087 243.152 61.7033 243.072 61.298 243.072C60.7007 243.072 60.2473 243.189 59.938 243.424C59.6287 243.659 59.474 243.968 59.474 244.352C59.474 244.949 59.8687 245.333 60.658 245.504L62.114 245.808C62.7967 245.957 63.314 246.197 63.666 246.528C64.018 246.848 64.194 247.285 64.194 247.84C64.194 248.555 63.9113 249.12 63.346 249.536C62.7807 249.941 62.0287 250.144 61.09 250.144ZM66.0091 240.288V238.832H67.6091V240.288H66.0091ZM66.1691 250V242.224H67.4651V250H66.1691ZM69.8879 250V242.224H71.1519V243.552C71.4079 243.061 71.7705 242.693 72.2399 242.448C72.7092 242.203 73.2372 242.08 73.8239 242.08C75.6692 242.08 76.5919 243.104 76.5919 245.152V250H75.2959V245.232C75.2959 244.507 75.1519 243.979 74.8639 243.648C74.5865 243.307 74.1385 243.136 73.5199 243.136C72.8052 243.136 72.2345 243.36 71.8079 243.808C71.3919 244.245 71.1839 244.832 71.1839 245.568V250H69.8879ZM82.4856 250.144C81.259 250.144 80.2883 249.787 79.5736 249.072C78.859 248.347 78.5016 247.365 78.5016 246.128C78.5016 245.328 78.6616 244.624 78.9816 244.016C79.3016 243.397 79.739 242.923 80.2936 242.592C80.859 242.251 81.5096 242.08 82.2456 242.08C83.3016 242.08 84.1283 242.421 84.7256 243.104C85.323 243.776 85.6216 244.704 85.6216 245.888V246.384H79.7656C79.8083 247.269 80.0643 247.947 80.5336 248.416C81.003 248.875 81.6536 249.104 82.4856 249.104C82.955 249.104 83.403 249.035 83.8296 248.896C84.2563 248.747 84.6616 248.507 85.0456 248.176L85.4936 249.088C85.1416 249.419 84.6936 249.68 84.1496 249.872C83.6056 250.053 83.051 250.144 82.4856 250.144ZM82.2776 243.04C81.5416 243.04 80.9603 243.269 80.5336 243.728C80.107 244.187 79.8563 244.789 79.7816 245.536H84.5016C84.4696 244.747 84.2616 244.133 83.8776 243.696C83.5043 243.259 82.971 243.04 82.2776 243.04ZM90.1213 250.144C89.5133 250.144 88.9373 250.059 88.3932 249.888C87.8492 249.717 87.4013 249.477 87.0493 249.168L87.4653 248.256C87.8493 248.565 88.2706 248.795 88.7293 248.944C89.1986 249.083 89.6733 249.152 90.1533 249.152C90.7613 249.152 91.2199 249.04 91.5293 248.816C91.8386 248.592 91.9933 248.288 91.9933 247.904C91.9933 247.605 91.8919 247.371 91.6893 247.2C91.4866 247.019 91.1666 246.88 90.7293 246.784L89.2733 246.464C87.9506 246.176 87.2893 245.493 87.2893 244.416C87.2893 243.712 87.5666 243.147 88.1213 242.72C88.6866 242.293 89.4226 242.08 90.3293 242.08C90.8626 242.08 91.3693 242.165 91.8493 242.336C92.3399 242.496 92.7453 242.736 93.0653 243.056L92.6333 243.968C92.3239 243.68 91.9613 243.461 91.5453 243.312C91.1399 243.152 90.7346 243.072 90.3293 243.072C89.7319 243.072 89.2786 243.189 88.9693 243.424C88.6599 243.659 88.5053 243.968 88.5053 244.352C88.5053 244.949 88.8999 245.333 89.6893 245.504L91.1453 245.808C91.8279 245.957 92.3453 246.197 92.6973 246.528C93.0493 246.848 93.2253 247.285 93.2253 247.84C93.2253 248.555 92.9426 249.12 92.3773 249.536C91.8119 249.941 91.0599 250.144 90.1213 250.144ZM97.8244 250.144C97.2164 250.144 96.6404 250.059 96.0964 249.888C95.5524 249.717 95.1044 249.477 94.7524 249.168L95.1684 248.256C95.5524 248.565 95.9737 248.795 96.4324 248.944C96.9017 249.083 97.3764 249.152 97.8564 249.152C98.4644 249.152 98.923 249.04 99.2324 248.816C99.5417 248.592 99.6964 248.288 99.6964 247.904C99.6964 247.605 99.595 247.371 99.3924 247.2C99.1897 247.019 98.8697 246.88 98.4324 246.784L96.9764 246.464C95.6537 246.176 94.9924 245.493 94.9924 244.416C94.9924 243.712 95.2697 243.147 95.8244 242.72C96.3897 242.293 97.1257 242.08 98.0324 242.08C98.5657 242.08 99.0724 242.165 99.5524 242.336C100.043 242.496 100.448 242.736 100.768 243.056L100.336 243.968C100.027 243.68 99.6644 243.461 99.2484 243.312C98.843 243.152 98.4377 243.072 98.0324 243.072C97.435 243.072 96.9817 243.189 96.6724 243.424C96.363 243.659 96.2084 243.968 96.2084 244.352C96.2084 244.949 96.603 245.333 97.3924 245.504L98.8484 245.808C99.531 245.957 100.048 246.197 100.4 246.528C100.752 246.848 100.928 247.285 100.928 247.84C100.928 248.555 100.646 249.12 100.08 249.536C99.515 249.941 98.763 250.144 97.8244 250.144ZM110.517 250.144C109.29 250.144 108.32 249.787 107.605 249.072C106.89 248.347 106.533 247.365 106.533 246.128C106.533 245.328 106.693 244.624 107.013 244.016C107.333 243.397 107.77 242.923 108.325 242.592C108.89 242.251 109.541 242.08 110.277 242.08C111.333 242.08 112.16 242.421 112.757 243.104C113.354 243.776 113.653 244.704 113.653 245.888V246.384H107.797C107.84 247.269 108.096 247.947 108.565 248.416C109.034 248.875 109.685 249.104 110.517 249.104C110.986 249.104 111.434 249.035 111.861 248.896C112.288 248.747 112.693 248.507 113.077 248.176L113.525 249.088C113.173 249.419 112.725 249.68 112.181 249.872C111.637 250.053 111.082 250.144 110.517 250.144ZM110.309 243.04C109.573 243.04 108.992 243.269 108.565 243.728C108.138 244.187 107.888 244.789 107.813 245.536H112.533C112.501 244.747 112.293 244.133 111.909 243.696C111.536 243.259 111.002 243.04 110.309 243.04ZM114.474 250L117.706 245.984L114.666 242.224H116.202L118.458 245.088L120.73 242.224H122.25L119.21 245.984L122.442 250H120.906L118.442 246.912L116.01 250H114.474ZM123.872 252.88V242.224H125.136V243.616C125.371 243.136 125.718 242.763 126.176 242.496C126.646 242.219 127.19 242.08 127.808 242.08C128.502 242.08 129.104 242.245 129.616 242.576C130.139 242.896 130.539 243.36 130.816 243.968C131.104 244.565 131.248 245.28 131.248 246.112C131.248 246.933 131.104 247.648 130.816 248.256C130.539 248.853 130.139 249.317 129.616 249.648C129.104 249.979 128.502 250.144 127.808 250.144C127.211 250.144 126.678 250.011 126.208 249.744C125.739 249.477 125.392 249.109 125.168 248.64V252.88H123.872ZM127.536 249.104C128.262 249.104 128.843 248.848 129.28 248.336C129.718 247.813 129.936 247.072 129.936 246.112C129.936 245.141 129.718 244.4 129.28 243.888C128.843 243.376 128.262 243.12 127.536 243.12C126.811 243.12 126.23 243.376 125.792 243.888C125.355 244.4 125.136 245.141 125.136 246.112C125.136 247.072 125.355 247.813 125.792 248.336C126.23 248.848 126.811 249.104 127.536 249.104ZM136.704 250.144C135.478 250.144 134.507 249.787 133.792 249.072C133.078 248.347 132.72 247.365 132.72 246.128C132.72 245.328 132.88 244.624 133.2 244.016C133.52 243.397 133.958 242.923 134.512 242.592C135.078 242.251 135.728 242.08 136.464 242.08C137.52 242.08 138.347 242.421 138.944 243.104C139.542 243.776 139.84 244.704 139.84 245.888V246.384H133.984C134.027 247.269 134.283 247.947 134.752 248.416C135.222 248.875 135.872 249.104 136.704 249.104C137.174 249.104 137.622 249.035 138.048 248.896C138.475 248.747 138.88 248.507 139.264 248.176L139.712 249.088C139.36 249.419 138.912 249.68 138.368 249.872C137.824 250.053 137.27 250.144 136.704 250.144ZM136.496 243.04C135.76 243.04 135.179 243.269 134.752 243.728C134.326 244.187 134.075 244.789 134 245.536H138.72C138.688 244.747 138.48 244.133 138.096 243.696C137.723 243.259 137.19 243.04 136.496 243.04ZM141.716 250V242.224H142.98V243.616C143.396 242.677 144.249 242.16 145.54 242.064L146.004 242.016L146.1 243.136L145.284 243.232C144.548 243.296 143.988 243.531 143.604 243.936C143.22 244.331 143.028 244.875 143.028 245.568V250H141.716ZM147.29 240.288V238.832H148.89V240.288H147.29ZM147.45 250V242.224H148.746V250H147.45ZM154.673 250.144C153.446 250.144 152.476 249.787 151.761 249.072C151.046 248.347 150.689 247.365 150.689 246.128C150.689 245.328 150.849 244.624 151.169 244.016C151.489 243.397 151.926 242.923 152.481 242.592C153.046 242.251 153.697 242.08 154.433 242.08C155.489 242.08 156.316 242.421 156.913 243.104C157.51 243.776 157.809 244.704 157.809 245.888V246.384H151.953C151.996 247.269 152.252 247.947 152.721 248.416C153.19 248.875 153.841 249.104 154.673 249.104C155.142 249.104 155.59 249.035 156.017 248.896C156.444 248.747 156.849 248.507 157.233 248.176L157.681 249.088C157.329 249.419 156.881 249.68 156.337 249.872C155.793 250.053 155.238 250.144 154.673 250.144ZM154.465 243.04C153.729 243.04 153.148 243.269 152.721 243.728C152.294 244.187 152.044 244.789 151.969 245.536H156.689C156.657 244.747 156.449 244.133 156.065 243.696C155.692 243.259 155.158 243.04 154.465 243.04ZM159.685 250V242.224H160.949V243.552C161.205 243.061 161.567 242.693 162.037 242.448C162.506 242.203 163.034 242.08 163.621 242.08C165.466 242.08 166.389 243.104 166.389 245.152V250H165.093V245.232C165.093 244.507 164.949 243.979 164.661 243.648C164.383 243.307 163.935 243.136 163.317 243.136C162.602 243.136 162.031 243.36 161.605 243.808C161.189 244.245 160.981 244.832 160.981 245.568V250H159.685ZM172.075 250.144C171.296 250.144 170.624 249.979 170.059 249.648C169.493 249.307 169.056 248.832 168.747 248.224C168.448 247.605 168.299 246.885 168.299 246.064C168.299 244.827 168.635 243.856 169.307 243.152C169.979 242.437 170.901 242.08 172.075 242.08C172.555 242.08 173.029 242.165 173.499 242.336C173.968 242.507 174.357 242.747 174.667 243.056L174.219 244C173.909 243.701 173.568 243.483 173.195 243.344C172.832 243.205 172.485 243.136 172.155 243.136C171.344 243.136 170.72 243.392 170.283 243.904C169.845 244.405 169.627 245.131 169.627 246.08C169.627 247.008 169.845 247.744 170.283 248.288C170.72 248.821 171.344 249.088 172.155 249.088C172.485 249.088 172.832 249.019 173.195 248.88C173.568 248.741 173.909 248.517 174.219 248.208L174.667 249.152C174.357 249.461 173.963 249.707 173.483 249.888C173.013 250.059 172.544 250.144 172.075 250.144ZM179.533 250.144C178.306 250.144 177.335 249.787 176.621 249.072C175.906 248.347 175.549 247.365 175.549 246.128C175.549 245.328 175.709 244.624 176.029 244.016C176.349 243.397 176.786 242.923 177.341 242.592C177.906 242.251 178.557 242.08 179.293 242.08C180.349 242.08 181.175 242.421 181.773 243.104C182.37 243.776 182.669 244.704 182.669 245.888V246.384H176.812C176.855 247.269 177.111 247.947 177.581 248.416C178.05 248.875 178.701 249.104 179.533 249.104C180.002 249.104 180.45 249.035 180.877 248.896C181.303 248.747 181.709 248.507 182.093 248.176L182.541 249.088C182.189 249.419 181.741 249.68 181.197 249.872C180.653 250.053 180.098 250.144 179.533 250.144ZM179.325 243.04C178.589 243.04 178.007 243.269 177.581 243.728C177.154 244.187 176.903 244.789 176.829 245.536H181.549C181.517 244.747 181.309 244.133 180.925 243.696C180.551 243.259 180.018 243.04 179.325 243.04ZM189.07 250V243.232H187.534V242.224H189.07V241.952C189.07 240.917 189.326 240.133 189.838 239.6C190.36 239.067 191.16 238.768 192.238 238.704L192.862 238.672L192.974 239.664L192.238 239.712C191.576 239.765 191.096 239.963 190.798 240.304C190.51 240.645 190.366 241.141 190.366 241.792V242.224H192.606V243.232H190.366V250H189.07ZM193.982 250V242.224H195.246V243.616C195.662 242.677 196.515 242.16 197.806 242.064L198.27 242.016L198.366 243.136L197.55 243.232C196.814 243.296 196.254 243.531 195.87 243.936C195.486 244.331 195.294 244.875 195.294 245.568V250H193.982ZM202.854 250.144C202.097 250.144 201.441 249.979 200.886 249.648C200.332 249.317 199.9 248.853 199.59 248.256C199.292 247.648 199.142 246.933 199.142 246.112C199.142 245.291 199.292 244.581 199.59 243.984C199.9 243.376 200.332 242.907 200.886 242.576C201.441 242.245 202.097 242.08 202.854 242.08C203.601 242.08 204.252 242.245 204.806 242.576C205.372 242.907 205.804 243.376 206.102 243.984C206.412 244.581 206.566 245.291 206.566 246.112C206.566 246.933 206.412 247.648 206.102 248.256C205.804 248.853 205.372 249.317 204.806 249.648C204.252 249.979 203.601 250.144 202.854 250.144ZM202.854 249.104C203.58 249.104 204.161 248.848 204.598 248.336C205.036 247.813 205.254 247.072 205.254 246.112C205.254 245.141 205.036 244.4 204.598 243.888C204.161 243.376 203.58 243.12 202.854 243.12C202.118 243.12 201.532 243.376 201.094 243.888C200.668 244.4 200.454 245.141 200.454 246.112C200.454 247.072 200.668 247.813 201.094 248.336C201.532 248.848 202.118 249.104 202.854 249.104ZM208.545 250V242.224H209.809V243.536C210.044 243.067 210.369 242.709 210.785 242.464C211.201 242.208 211.686 242.08 212.241 242.08C213.457 242.08 214.236 242.608 214.577 243.664C214.812 243.173 215.158 242.789 215.617 242.512C216.076 242.224 216.604 242.08 217.201 242.08C218.929 242.08 219.793 243.104 219.793 245.152V250H218.497V245.216C218.497 244.501 218.369 243.979 218.113 243.648C217.868 243.307 217.457 243.136 216.881 243.136C216.252 243.136 215.75 243.36 215.377 243.808C215.004 244.256 214.817 244.853 214.817 245.6V250H213.521V245.216C213.521 244.501 213.393 243.979 213.137 243.648C212.892 243.307 212.481 243.136 211.905 243.136C211.265 243.136 210.758 243.36 210.385 243.808C210.022 244.256 209.841 244.853 209.841 245.6V250H208.545ZM228.949 250.144C228.341 250.144 227.765 250.059 227.221 249.888C226.677 249.717 226.229 249.477 225.877 249.168L226.293 248.256C226.677 248.565 227.099 248.795 227.557 248.944C228.027 249.083 228.501 249.152 228.981 249.152C229.589 249.152 230.048 249.04 230.357 248.816C230.667 248.592 230.821 248.288 230.821 247.904C230.821 247.605 230.72 247.371 230.517 247.2C230.315 247.019 229.995 246.88 229.557 246.784L228.101 246.464C226.779 246.176 226.117 245.493 226.117 244.416C226.117 243.712 226.395 243.147 226.949 242.72C227.515 242.293 228.251 242.08 229.157 242.08C229.691 242.08 230.197 242.165 230.677 242.336C231.168 242.496 231.573 242.736 231.893 243.056L231.461 243.968C231.152 243.68 230.789 243.461 230.373 243.312C229.968 243.152 229.563 243.072 229.157 243.072C228.56 243.072 228.107 243.189 227.797 243.424C227.488 243.659 227.333 243.968 227.333 244.352C227.333 244.949 227.728 245.333 228.517 245.504L229.973 245.808C230.656 245.957 231.173 246.197 231.525 246.528C231.877 246.848 232.053 247.285 232.053 247.84C232.053 248.555 231.771 249.12 231.205 249.536C230.64 249.941 229.888 250.144 228.949 250.144ZM234.029 250V238.72H235.325V243.504C235.581 243.035 235.938 242.683 236.397 242.448C236.866 242.203 237.389 242.08 237.965 242.08C239.81 242.08 240.733 243.104 240.733 245.152V250H239.437V245.232C239.437 244.507 239.293 243.979 239.005 243.648C238.727 243.307 238.279 243.136 237.661 243.136C236.946 243.136 236.375 243.36 235.949 243.808C235.533 244.245 235.325 244.832 235.325 245.568V250H234.029ZM246.354 250.144C245.597 250.144 244.941 249.979 244.386 249.648C243.832 249.317 243.4 248.853 243.09 248.256C242.792 247.648 242.642 246.933 242.642 246.112C242.642 245.291 242.792 244.581 243.09 243.984C243.4 243.376 243.832 242.907 244.386 242.576C244.941 242.245 245.597 242.08 246.354 242.08C247.101 242.08 247.752 242.245 248.306 242.576C248.872 242.907 249.304 243.376 249.602 243.984C249.912 244.581 250.066 245.291 250.066 246.112C250.066 246.933 249.912 247.648 249.602 248.256C249.304 248.853 248.872 249.317 248.306 249.648C247.752 249.979 247.101 250.144 246.354 250.144ZM246.354 249.104C247.08 249.104 247.661 248.848 248.098 248.336C248.536 247.813 248.754 247.072 248.754 246.112C248.754 245.141 248.536 244.4 248.098 243.888C247.661 243.376 247.08 243.12 246.354 243.12C245.618 243.12 245.032 243.376 244.594 243.888C244.168 244.4 243.954 245.141 243.954 246.112C243.954 247.072 244.168 247.813 244.594 248.336C245.032 248.848 245.618 249.104 246.354 249.104ZM252.013 252.88V242.224H253.277V243.616C253.512 243.136 253.858 242.763 254.317 242.496C254.786 242.219 255.33 242.08 255.949 242.08C256.642 242.08 257.245 242.245 257.757 242.576C258.28 242.896 258.68 243.36 258.957 243.968C259.245 244.565 259.389 245.28 259.389 246.112C259.389 246.933 259.245 247.648 258.957 248.256C258.68 248.853 258.28 249.317 257.757 249.648C257.245 249.979 256.642 250.144 255.949 250.144C255.352 250.144 254.818 250.011 254.349 249.744C253.88 249.477 253.533 249.109 253.309 248.64V252.88H252.013ZM255.677 249.104C256.402 249.104 256.984 248.848 257.421 248.336C257.858 247.813 258.077 247.072 258.077 246.112C258.077 245.141 257.858 244.4 257.421 243.888C256.984 243.376 256.402 243.12 255.677 243.12C254.952 243.12 254.37 243.376 253.933 243.888C253.496 244.4 253.277 245.141 253.277 246.112C253.277 247.072 253.496 247.813 253.933 248.336C254.37 248.848 254.952 249.104 255.677 249.104ZM261.341 252.88V242.224H262.605V243.616C262.84 243.136 263.186 242.763 263.645 242.496C264.114 242.219 264.658 242.08 265.277 242.08C265.97 242.08 266.573 242.245 267.085 242.576C267.608 242.896 268.008 243.36 268.285 243.968C268.573 244.565 268.717 245.28 268.717 246.112C268.717 246.933 268.573 247.648 268.285 248.256C268.008 248.853 267.608 249.317 267.085 249.648C266.573 249.979 265.97 250.144 265.277 250.144C264.68 250.144 264.146 250.011 263.677 249.744C263.208 249.477 262.861 249.109 262.637 248.64V252.88H261.341ZM265.005 249.104C265.73 249.104 266.312 248.848 266.749 248.336C267.186 247.813 267.405 247.072 267.405 246.112C267.405 245.141 267.186 244.4 266.749 243.888C266.312 243.376 265.73 243.12 265.005 243.12C264.28 243.12 263.698 243.376 263.261 243.888C262.824 244.4 262.605 245.141 262.605 246.112C262.605 247.072 262.824 247.813 263.261 248.336C263.698 248.848 264.28 249.104 265.005 249.104ZM270.509 240.288V238.832H272.109V240.288H270.509ZM270.669 250V242.224H271.965V250H270.669ZM274.388 250V242.224H275.652V243.552C275.908 243.061 276.271 242.693 276.74 242.448C277.209 242.203 277.737 242.08 278.324 242.08C280.169 242.08 281.092 243.104 281.092 245.152V250H279.796V245.232C279.796 244.507 279.652 243.979 279.364 243.648C279.087 243.307 278.639 243.136 278.02 243.136C277.305 243.136 276.735 243.36 276.308 243.808C275.892 244.245 275.684 244.832 275.684 245.568V250H274.388ZM286.922 253.024C286.25 253.024 285.615 252.933 285.018 252.752C284.431 252.581 283.908 252.32 283.45 251.968L283.882 251.024C284.362 251.365 284.836 251.611 285.306 251.76C285.786 251.909 286.303 251.984 286.858 251.984C288.394 251.984 289.162 251.195 289.162 249.616V248.24C288.938 248.731 288.586 249.12 288.106 249.408C287.636 249.685 287.098 249.824 286.49 249.824C285.775 249.824 285.156 249.659 284.634 249.328C284.111 248.997 283.706 248.544 283.418 247.968C283.14 247.381 283.002 246.704 283.002 245.936C283.002 245.168 283.14 244.496 283.418 243.92C283.706 243.333 284.111 242.88 284.634 242.56C285.156 242.24 285.775 242.08 286.49 242.08C287.098 242.08 287.636 242.219 288.106 242.496C288.586 242.773 288.938 243.152 289.162 243.632V242.224H290.426V249.44C290.426 250.635 290.127 251.531 289.53 252.128C288.943 252.725 288.074 253.024 286.922 253.024ZM286.73 248.768C287.476 248.768 288.068 248.512 288.506 248C288.943 247.488 289.162 246.8 289.162 245.936C289.162 245.072 288.943 244.389 288.506 243.888C288.068 243.376 287.476 243.12 286.73 243.12C285.994 243.12 285.407 243.376 284.97 243.888C284.532 244.389 284.314 245.072 284.314 245.936C284.314 246.8 284.532 247.488 284.97 248C285.407 248.512 285.994 248.768 286.73 248.768ZM52.323 277.144C51.5657 277.144 50.9097 276.979 50.355 276.648C49.8003 276.317 49.3683 275.853 49.059 275.256C48.7603 274.648 48.611 273.933 48.611 273.112C48.611 272.291 48.7603 271.581 49.059 270.984C49.3683 270.376 49.8003 269.907 50.355 269.576C50.9097 269.245 51.5657 269.08 52.323 269.08C53.0697 269.08 53.7203 269.245 54.275 269.576C54.8403 269.907 55.2723 270.376 55.571 270.984C55.8803 271.581 56.035 272.291 56.035 273.112C56.035 273.933 55.8803 274.648 55.571 275.256C55.2723 275.853 54.8403 276.317 54.275 276.648C53.7203 276.979 53.0697 277.144 52.323 277.144ZM52.323 276.104C53.0483 276.104 53.6297 275.848 54.067 275.336C54.5043 274.813 54.723 274.072 54.723 273.112C54.723 272.141 54.5043 271.4 54.067 270.888C53.6297 270.376 53.0483 270.12 52.323 270.12C51.587 270.12 51.0003 270.376 50.563 270.888C50.1363 271.4 49.923 272.141 49.923 273.112C49.923 274.072 50.1363 274.813 50.563 275.336C51.0003 275.848 51.587 276.104 52.323 276.104ZM57.9816 277V269.224H59.2456V270.552C59.5016 270.061 59.8643 269.693 60.3336 269.448C60.803 269.203 61.331 269.08 61.9176 269.08C63.763 269.08 64.6856 270.104 64.6856 272.152V277H63.3896V272.232C63.3896 271.507 63.2456 270.979 62.9576 270.648C62.6803 270.307 62.2323 270.136 61.6136 270.136C60.899 270.136 60.3283 270.36 59.9016 270.808C59.4856 271.245 59.2776 271.832 59.2776 272.568V277H57.9816ZM74.3048 277.144C73.3874 277.144 72.6994 276.904 72.2408 276.424C71.7821 275.933 71.5528 275.229 71.5528 274.312V270.232H70.0328V269.224H71.5528V266.84H72.8488V269.224H75.3128V270.232H72.8488V274.184C72.8488 274.792 72.9768 275.256 73.2328 275.576C73.4888 275.885 73.9048 276.04 74.4808 276.04C74.6514 276.04 74.8221 276.019 74.9928 275.976C75.1634 275.933 75.3181 275.891 75.4568 275.848L75.6808 276.84C75.5421 276.915 75.3394 276.984 75.0728 277.048C74.8061 277.112 74.5501 277.144 74.3048 277.144ZM76.7785 277V265.72H78.0745V270.504C78.3305 270.035 78.6878 269.683 79.1465 269.448C79.6158 269.203 80.1385 269.08 80.7145 269.08C82.5598 269.08 83.4825 270.104 83.4825 272.152V277H82.1865V272.232C82.1865 271.507 82.0425 270.979 81.7545 270.648C81.4772 270.307 81.0292 270.136 80.4105 270.136C79.6958 270.136 79.1252 270.36 78.6985 270.808C78.2825 271.245 78.0745 271.832 78.0745 272.568V277H76.7785ZM89.3763 277.144C88.1496 277.144 87.1789 276.787 86.4643 276.072C85.7496 275.347 85.3923 274.365 85.3923 273.128C85.3923 272.328 85.5523 271.624 85.8723 271.016C86.1923 270.397 86.6296 269.923 87.1843 269.592C87.7496 269.251 88.4003 269.08 89.1363 269.08C90.1923 269.08 91.0189 269.421 91.6163 270.104C92.2136 270.776 92.5123 271.704 92.5123 272.888V273.384H86.6562C86.6989 274.269 86.9549 274.947 87.4243 275.416C87.8936 275.875 88.5443 276.104 89.3763 276.104C89.8456 276.104 90.2936 276.035 90.7203 275.896C91.1469 275.747 91.5523 275.507 91.9363 275.176L92.3843 276.088C92.0323 276.419 91.5843 276.68 91.0403 276.872C90.4963 277.053 89.9416 277.144 89.3763 277.144ZM89.1683 270.04C88.4323 270.04 87.8509 270.269 87.4243 270.728C86.9976 271.187 86.7469 271.789 86.6723 272.536H91.3923C91.3603 271.747 91.1523 271.133 90.7683 270.696C90.3949 270.259 89.8616 270.04 89.1683 270.04ZM100.881 277.144C100.092 277.144 99.4946 276.915 99.0893 276.456C98.6946 275.987 98.4973 275.309 98.4973 274.424V265.72H99.7933V274.328C99.7933 275.469 100.247 276.04 101.153 276.04C101.42 276.04 101.66 276.008 101.873 275.944L101.841 277.032C101.511 277.107 101.191 277.144 100.881 277.144ZM105.68 277.144C105.146 277.144 104.666 277.043 104.24 276.84C103.824 276.627 103.493 276.339 103.248 275.976C103.002 275.613 102.88 275.208 102.88 274.76C102.88 274.195 103.024 273.747 103.312 273.416C103.61 273.085 104.096 272.851 104.768 272.712C105.45 272.563 106.378 272.488 107.552 272.488H108.064V271.992C108.064 271.331 107.925 270.856 107.648 270.568C107.381 270.269 106.949 270.12 106.352 270.12C105.882 270.12 105.429 270.189 104.992 270.328C104.554 270.456 104.106 270.669 103.648 270.968L103.2 270.024C103.605 269.736 104.096 269.507 104.672 269.336C105.258 269.165 105.818 269.08 106.352 269.08C107.354 269.08 108.096 269.325 108.576 269.816C109.066 270.307 109.312 271.069 109.312 272.104V277H108.096V275.656C107.893 276.115 107.578 276.477 107.152 276.744C106.736 277.011 106.245 277.144 105.68 277.144ZM105.888 276.168C106.528 276.168 107.05 275.949 107.456 275.512C107.861 275.064 108.064 274.499 108.064 273.816V273.336H107.568C106.704 273.336 106.021 273.379 105.52 273.464C105.029 273.539 104.682 273.677 104.48 273.88C104.288 274.072 104.192 274.339 104.192 274.68C104.192 275.117 104.341 275.475 104.64 275.752C104.949 276.029 105.365 276.168 105.888 276.168ZM111.716 277V269.224H112.98V270.616C113.396 269.677 114.249 269.16 115.54 269.064L116.004 269.016L116.1 270.136L115.284 270.232C114.548 270.296 113.988 270.531 113.604 270.936C113.22 271.331 113.028 271.875 113.028 272.568V277H111.716ZM120.797 280.024C120.125 280.024 119.49 279.933 118.893 279.752C118.306 279.581 117.783 279.32 117.325 278.968L117.757 278.024C118.237 278.365 118.711 278.611 119.181 278.76C119.661 278.909 120.178 278.984 120.733 278.984C122.269 278.984 123.037 278.195 123.037 276.616V275.24C122.813 275.731 122.461 276.12 121.981 276.408C121.511 276.685 120.973 276.824 120.365 276.824C119.65 276.824 119.031 276.659 118.509 276.328C117.986 275.997 117.581 275.544 117.293 274.968C117.015 274.381 116.877 273.704 116.877 272.936C116.877 272.168 117.015 271.496 117.293 270.92C117.581 270.333 117.986 269.88 118.509 269.56C119.031 269.24 119.65 269.08 120.365 269.08C120.973 269.08 121.511 269.219 121.981 269.496C122.461 269.773 122.813 270.152 123.037 270.632V269.224H124.301V276.44C124.301 277.635 124.002 278.531 123.405 279.128C122.818 279.725 121.949 280.024 120.797 280.024ZM120.605 275.768C121.351 275.768 121.943 275.512 122.381 275C122.818 274.488 123.037 273.8 123.037 272.936C123.037 272.072 122.818 271.389 122.381 270.888C121.943 270.376 121.351 270.12 120.605 270.12C119.869 270.12 119.282 270.376 118.845 270.888C118.407 271.389 118.189 272.072 118.189 272.936C118.189 273.8 118.407 274.488 118.845 275C119.282 275.512 119.869 275.768 120.605 275.768ZM130.236 277.144C129.009 277.144 128.038 276.787 127.324 276.072C126.609 275.347 126.252 274.365 126.252 273.128C126.252 272.328 126.412 271.624 126.732 271.016C127.052 270.397 127.489 269.923 128.044 269.592C128.609 269.251 129.26 269.08 129.996 269.08C131.052 269.08 131.878 269.421 132.476 270.104C133.073 270.776 133.372 271.704 133.372 272.888V273.384H127.516C127.558 274.269 127.814 274.947 128.284 275.416C128.753 275.875 129.404 276.104 130.236 276.104C130.705 276.104 131.153 276.035 131.58 275.896C132.006 275.747 132.412 275.507 132.796 275.176L133.244 276.088C132.892 276.419 132.444 276.68 131.9 276.872C131.356 277.053 130.801 277.144 130.236 277.144ZM130.028 270.04C129.292 270.04 128.71 270.269 128.284 270.728C127.857 271.187 127.606 271.789 127.532 272.536H132.252C132.22 271.747 132.012 271.133 131.628 270.696C131.254 270.259 130.721 270.04 130.028 270.04ZM137.871 277.144C137.263 277.144 136.687 277.059 136.143 276.888C135.599 276.717 135.151 276.477 134.799 276.168L135.215 275.256C135.599 275.565 136.021 275.795 136.479 275.944C136.949 276.083 137.423 276.152 137.903 276.152C138.511 276.152 138.97 276.04 139.279 275.816C139.589 275.592 139.743 275.288 139.743 274.904C139.743 274.605 139.642 274.371 139.439 274.2C139.237 274.019 138.917 273.88 138.479 273.784L137.023 273.464C135.701 273.176 135.039 272.493 135.039 271.416C135.039 270.712 135.317 270.147 135.871 269.72C136.437 269.293 137.173 269.08 138.079 269.08C138.613 269.08 139.119 269.165 139.599 269.336C140.09 269.496 140.495 269.736 140.815 270.056L140.383 270.968C140.074 270.68 139.711 270.461 139.295 270.312C138.89 270.152 138.485 270.072 138.079 270.072C137.482 270.072 137.029 270.189 136.719 270.424C136.41 270.659 136.255 270.968 136.255 271.352C136.255 271.949 136.65 272.333 137.439 272.504L138.895 272.808C139.578 272.957 140.095 273.197 140.447 273.528C140.799 273.848 140.975 274.285 140.975 274.84C140.975 275.555 140.693 276.12 140.127 276.536C139.562 276.941 138.81 277.144 137.871 277.144ZM145.992 277.144C145.075 277.144 144.387 276.904 143.928 276.424C143.47 275.933 143.24 275.229 143.24 274.312V270.232H141.72V269.224H143.24V266.84H144.536V269.224H147V270.232H144.536V274.184C144.536 274.792 144.664 275.256 144.92 275.576C145.176 275.885 145.592 276.04 146.168 276.04C146.339 276.04 146.51 276.019 146.68 275.976C146.851 275.933 147.006 275.891 147.144 275.848L147.368 276.84C147.23 276.915 147.027 276.984 146.76 277.048C146.494 277.112 146.238 277.144 145.992 277.144ZM152.575 277V269.224H153.839V270.616C154.255 269.677 155.109 269.16 156.399 269.064L156.863 269.016L156.959 270.136L156.143 270.232C155.407 270.296 154.847 270.531 154.463 270.936C154.079 271.331 153.887 271.875 153.887 272.568V277H152.575ZM161.72 277.144C160.493 277.144 159.523 276.787 158.808 276.072C158.093 275.347 157.736 274.365 157.736 273.128C157.736 272.328 157.896 271.624 158.216 271.016C158.536 270.397 158.973 269.923 159.528 269.592C160.093 269.251 160.744 269.08 161.48 269.08C162.536 269.08 163.363 269.421 163.96 270.104C164.557 270.776 164.856 271.704 164.856 272.888V273.384H159C159.043 274.269 159.299 274.947 159.768 275.416C160.237 275.875 160.888 276.104 161.72 276.104C162.189 276.104 162.637 276.035 163.064 275.896C163.491 275.747 163.896 275.507 164.28 275.176L164.728 276.088C164.376 276.419 163.928 276.68 163.384 276.872C162.84 277.053 162.285 277.144 161.72 277.144ZM161.512 270.04C160.776 270.04 160.195 270.269 159.768 270.728C159.341 271.187 159.091 271.789 159.016 272.536H163.736C163.704 271.747 163.496 271.133 163.112 270.696C162.739 270.259 162.205 270.04 161.512 270.04ZM166.732 277V269.224H167.996V270.552C168.252 270.061 168.614 269.693 169.084 269.448C169.553 269.203 170.081 269.08 170.668 269.08C172.513 269.08 173.436 270.104 173.436 272.152V277H172.14V272.232C172.14 271.507 171.996 270.979 171.708 270.648C171.43 270.307 170.982 270.136 170.364 270.136C169.649 270.136 169.078 270.36 168.652 270.808C168.236 271.245 168.028 271.832 168.028 272.568V277H166.732ZM178.945 277.144C178.028 277.144 177.34 276.904 176.881 276.424C176.423 275.933 176.193 275.229 176.193 274.312V270.232H174.673V269.224H176.193V266.84H177.489V269.224H179.953V270.232H177.489V274.184C177.489 274.792 177.617 275.256 177.873 275.576C178.129 275.885 178.545 276.04 179.121 276.04C179.292 276.04 179.463 276.019 179.633 275.976C179.804 275.933 179.959 275.891 180.097 275.848L180.321 276.84C180.183 276.915 179.98 276.984 179.713 277.048C179.447 277.112 179.191 277.144 178.945 277.144ZM183.867 277.144C183.334 277.144 182.854 277.043 182.427 276.84C182.011 276.627 181.68 276.339 181.435 275.976C181.19 275.613 181.067 275.208 181.067 274.76C181.067 274.195 181.211 273.747 181.499 273.416C181.798 273.085 182.283 272.851 182.955 272.712C183.638 272.563 184.566 272.488 185.739 272.488H186.251V271.992C186.251 271.331 186.112 270.856 185.835 270.568C185.568 270.269 185.136 270.12 184.539 270.12C184.07 270.12 183.616 270.189 183.179 270.328C182.742 270.456 182.294 270.669 181.835 270.968L181.387 270.024C181.792 269.736 182.283 269.507 182.859 269.336C183.446 269.165 184.006 269.08 184.539 269.08C185.542 269.08 186.283 269.325 186.763 269.816C187.254 270.307 187.499 271.069 187.499 272.104V277H186.283V275.656C186.08 276.115 185.766 276.477 185.339 276.744C184.923 277.011 184.432 277.144 183.867 277.144ZM184.075 276.168C184.715 276.168 185.238 275.949 185.643 275.512C186.048 275.064 186.251 274.499 186.251 273.816V273.336H185.755C184.891 273.336 184.208 273.379 183.707 273.464C183.216 273.539 182.87 273.677 182.667 273.88C182.475 274.072 182.379 274.339 182.379 274.68C182.379 275.117 182.528 275.475 182.827 275.752C183.136 276.029 183.552 276.168 184.075 276.168ZM192.288 277.144C191.498 277.144 190.901 276.915 190.496 276.456C190.101 275.987 189.904 275.309 189.904 274.424V265.72H191.2V274.328C191.2 275.469 191.653 276.04 192.56 276.04C192.826 276.04 193.066 276.008 193.28 275.944L193.248 277.032C192.917 277.107 192.597 277.144 192.288 277.144ZM198.747 277V269.224H200.011V270.552C200.267 270.061 200.63 269.693 201.099 269.448C201.569 269.203 202.097 269.08 202.683 269.08C204.529 269.08 205.451 270.104 205.451 272.152V277H204.155V272.232C204.155 271.507 204.011 270.979 203.723 270.648C203.446 270.307 202.998 270.136 202.379 270.136C201.665 270.136 201.094 270.36 200.667 270.808C200.251 271.245 200.043 271.832 200.043 272.568V277H198.747ZM211.345 277.144C210.118 277.144 209.148 276.787 208.433 276.072C207.718 275.347 207.361 274.365 207.361 273.128C207.361 272.328 207.521 271.624 207.841 271.016C208.161 270.397 208.598 269.923 209.153 269.592C209.718 269.251 210.369 269.08 211.105 269.08C212.161 269.08 212.988 269.421 213.585 270.104C214.182 270.776 214.481 271.704 214.481 272.888V273.384H208.625C208.668 274.269 208.924 274.947 209.393 275.416C209.862 275.875 210.513 276.104 211.345 276.104C211.814 276.104 212.262 276.035 212.689 275.896C213.116 275.747 213.521 275.507 213.905 275.176L214.353 276.088C214.001 276.419 213.553 276.68 213.009 276.872C212.465 277.053 211.91 277.144 211.345 277.144ZM211.137 270.04C210.401 270.04 209.82 270.269 209.393 270.728C208.966 271.187 208.716 271.789 208.641 272.536H213.361C213.329 271.747 213.121 271.133 212.737 270.696C212.364 270.259 211.83 270.04 211.137 270.04ZM219.477 277.144C218.559 277.144 217.871 276.904 217.413 276.424C216.954 275.933 216.725 275.229 216.725 274.312V270.232H215.205V269.224H216.725V266.84H218.021V269.224H220.485V270.232H218.021V274.184C218.021 274.792 218.149 275.256 218.405 275.576C218.661 275.885 219.077 276.04 219.653 276.04C219.823 276.04 219.994 276.019 220.165 275.976C220.335 275.933 220.49 275.891 220.629 275.848L220.853 276.84C220.714 276.915 220.511 276.984 220.245 277.048C219.978 277.112 219.722 277.144 219.477 277.144ZM224.108 277L221.212 269.224H222.572L224.764 275.48L227.036 269.224H228.14L230.38 275.496L232.604 269.224H233.9L230.988 277H229.756L227.564 270.968L225.356 277H224.108ZM238.62 277.144C237.863 277.144 237.207 276.979 236.652 276.648C236.097 276.317 235.665 275.853 235.356 275.256C235.057 274.648 234.908 273.933 234.908 273.112C234.908 272.291 235.057 271.581 235.356 270.984C235.665 270.376 236.097 269.907 236.652 269.576C237.207 269.245 237.863 269.08 238.62 269.08C239.367 269.08 240.017 269.245 240.572 269.576C241.137 269.907 241.569 270.376 241.868 270.984C242.177 271.581 242.332 272.291 242.332 273.112C242.332 273.933 242.177 274.648 241.868 275.256C241.569 275.853 241.137 276.317 240.572 276.648C240.017 276.979 239.367 277.144 238.62 277.144ZM238.62 276.104C239.345 276.104 239.927 275.848 240.364 275.336C240.801 274.813 241.02 274.072 241.02 273.112C241.02 272.141 240.801 271.4 240.364 270.888C239.927 270.376 239.345 270.12 238.62 270.12C237.884 270.12 237.297 270.376 236.86 270.888C236.433 271.4 236.22 272.141 236.22 273.112C236.22 274.072 236.433 274.813 236.86 275.336C237.297 275.848 237.884 276.104 238.62 276.104ZM244.279 277V269.224H245.543V270.616C245.959 269.677 246.812 269.16 248.103 269.064L248.567 269.016L248.663 270.136L247.847 270.232C247.111 270.296 246.551 270.531 246.167 270.936C245.783 271.331 245.591 271.875 245.591 272.568V277H244.279ZM250.013 277V265.72H251.309V272.68H251.341L254.941 269.224H256.589L252.685 272.968L256.925 277H255.277L251.341 273.352H251.309V277H250.013ZM258.649 278.824L258.041 278.36C258.275 278.115 258.441 277.88 258.537 277.656C258.643 277.443 258.713 277.224 258.745 277H257.977V275.368H259.609V276.52C259.609 276.957 259.539 277.363 259.401 277.736C259.262 278.109 259.011 278.472 258.649 278.824ZM269.055 277.144C268.137 277.144 267.449 276.904 266.991 276.424C266.532 275.933 266.303 275.229 266.303 274.312V270.232H264.783V269.224H266.303V266.84H267.599V269.224H270.063V270.232H267.599V274.184C267.599 274.792 267.727 275.256 267.983 275.576C268.239 275.885 268.655 276.04 269.231 276.04C269.401 276.04 269.572 276.019 269.743 275.976C269.913 275.933 270.068 275.891 270.207 275.848L270.431 276.84C270.292 276.915 270.089 276.984 269.823 277.048C269.556 277.112 269.3 277.144 269.055 277.144ZM274.682 277.144C273.925 277.144 273.269 276.979 272.714 276.648C272.16 276.317 271.728 275.853 271.418 275.256C271.12 274.648 270.97 273.933 270.97 273.112C270.97 272.291 271.12 271.581 271.418 270.984C271.728 270.376 272.16 269.907 272.714 269.576C273.269 269.245 273.925 269.08 274.682 269.08C275.429 269.08 276.08 269.245 276.634 269.576C277.2 269.907 277.632 270.376 277.93 270.984C278.24 271.581 278.394 272.291 278.394 273.112C278.394 273.933 278.24 274.648 277.93 275.256C277.632 275.853 277.2 276.317 276.634 276.648C276.08 276.979 275.429 277.144 274.682 277.144ZM274.682 276.104C275.408 276.104 275.989 275.848 276.426 275.336C276.864 274.813 277.082 274.072 277.082 273.112C277.082 272.141 276.864 271.4 276.426 270.888C275.989 270.376 275.408 270.12 274.682 270.12C273.946 270.12 273.36 270.376 272.922 270.888C272.496 271.4 272.282 272.141 272.282 273.112C272.282 274.072 272.496 274.813 272.922 275.336C273.36 275.848 273.946 276.104 274.682 276.104ZM82.4296 304.144C81.8963 304.144 81.4163 304.043 80.9896 303.84C80.5736 303.627 80.243 303.339 79.9976 302.976C79.7523 302.613 79.6296 302.208 79.6296 301.76C79.6296 301.195 79.7736 300.747 80.0616 300.416C80.3603 300.085 80.8456 299.851 81.5176 299.712C82.2003 299.563 83.1283 299.488 84.3016 299.488H84.8136V298.992C84.8136 298.331 84.675 297.856 84.3976 297.568C84.131 297.269 83.699 297.12 83.1016 297.12C82.6323 297.12 82.179 297.189 81.7416 297.328C81.3043 297.456 80.8563 297.669 80.3976 297.968L79.9496 297.024C80.355 296.736 80.8456 296.507 81.4216 296.336C82.0083 296.165 82.5683 296.08 83.1016 296.08C84.1043 296.08 84.8456 296.325 85.3256 296.816C85.8163 297.307 86.0616 298.069 86.0616 299.104V304H84.8456V302.656C84.643 303.115 84.3283 303.477 83.9016 303.744C83.4856 304.011 82.995 304.144 82.4296 304.144ZM82.6376 303.168C83.2776 303.168 83.8003 302.949 84.2056 302.512C84.611 302.064 84.8136 301.499 84.8136 300.816V300.336H84.3176C83.4536 300.336 82.771 300.379 82.2696 300.464C81.779 300.539 81.4323 300.677 81.2296 300.88C81.0376 301.072 80.9416 301.339 80.9416 301.68C80.9416 302.117 81.091 302.475 81.3896 302.752C81.699 303.029 82.115 303.168 82.6376 303.168ZM88.466 306.88V296.224H89.73V297.616C89.9647 297.136 90.3113 296.763 90.77 296.496C91.2393 296.219 91.7833 296.08 92.402 296.08C93.0953 296.08 93.698 296.245 94.21 296.576C94.7327 296.896 95.1327 297.36 95.41 297.968C95.698 298.565 95.842 299.28 95.842 300.112C95.842 300.933 95.698 301.648 95.41 302.256C95.1327 302.853 94.7327 303.317 94.21 303.648C93.698 303.979 93.0953 304.144 92.402 304.144C91.8047 304.144 91.2713 304.011 90.802 303.744C90.3327 303.477 89.986 303.109 89.762 302.64V306.88H88.466ZM92.13 303.104C92.8553 303.104 93.4367 302.848 93.874 302.336C94.3113 301.813 94.53 301.072 94.53 300.112C94.53 299.141 94.3113 298.4 93.874 297.888C93.4367 297.376 92.8553 297.12 92.13 297.12C91.4047 297.12 90.8233 297.376 90.386 297.888C89.9487 298.4 89.73 299.141 89.73 300.112C89.73 301.072 89.9487 301.813 90.386 302.336C90.8233 302.848 91.4047 303.104 92.13 303.104ZM97.7941 306.88V296.224H99.0581V297.616C99.2928 297.136 99.6395 296.763 100.098 296.496C100.567 296.219 101.111 296.08 101.73 296.08C102.423 296.08 103.026 296.245 103.538 296.576C104.061 296.896 104.461 297.36 104.738 297.968C105.026 298.565 105.17 299.28 105.17 300.112C105.17 300.933 105.026 301.648 104.738 302.256C104.461 302.853 104.061 303.317 103.538 303.648C103.026 303.979 102.423 304.144 101.73 304.144C101.133 304.144 100.599 304.011 100.13 303.744C99.6608 303.477 99.3141 303.109 99.0901 302.64V306.88H97.7941ZM101.458 303.104C102.183 303.104 102.765 302.848 103.202 302.336C103.639 301.813 103.858 301.072 103.858 300.112C103.858 299.141 103.639 298.4 103.202 297.888C102.765 297.376 102.183 297.12 101.458 297.12C100.733 297.12 100.151 297.376 99.7141 297.888C99.2768 298.4 99.0581 299.141 99.0581 300.112C99.0581 301.072 99.2768 301.813 99.7141 302.336C100.151 302.848 100.733 303.104 101.458 303.104ZM109.506 304.144C108.717 304.144 108.12 303.915 107.714 303.456C107.32 302.987 107.122 302.309 107.122 301.424V292.72H108.418V301.328C108.418 302.469 108.872 303.04 109.778 303.04C110.045 303.04 110.285 303.008 110.498 302.944L110.466 304.032C110.136 304.107 109.816 304.144 109.506 304.144ZM112.581 306.88L113.909 303.872L110.629 296.224H112.037L114.613 302.528L117.205 296.224H118.565L113.941 306.88H112.581ZM119.743 294.288V292.832H121.344V294.288H119.743ZM119.904 304V296.224H121.2V304H119.904ZM123.622 304V296.224H124.886V297.552C125.142 297.061 125.505 296.693 125.974 296.448C126.444 296.203 126.972 296.08 127.558 296.08C129.404 296.08 130.326 297.104 130.326 299.152V304H129.03V299.232C129.03 298.507 128.886 297.979 128.598 297.648C128.321 297.307 127.873 297.136 127.254 297.136C126.54 297.136 125.969 297.36 125.542 297.808C125.126 298.245 124.918 298.832 124.918 299.568V304H123.622ZM136.156 307.024C135.484 307.024 134.849 306.933 134.252 306.752C133.665 306.581 133.143 306.32 132.684 305.968L133.116 305.024C133.596 305.365 134.071 305.611 134.54 305.76C135.02 305.909 135.537 305.984 136.092 305.984C137.628 305.984 138.396 305.195 138.396 303.616V302.24C138.172 302.731 137.82 303.12 137.34 303.408C136.871 303.685 136.332 303.824 135.724 303.824C135.009 303.824 134.391 303.659 133.868 303.328C133.345 302.997 132.94 302.544 132.652 301.968C132.375 301.381 132.236 300.704 132.236 299.936C132.236 299.168 132.375 298.496 132.652 297.92C132.94 297.333 133.345 296.88 133.868 296.56C134.391 296.24 135.009 296.08 135.724 296.08C136.332 296.08 136.871 296.219 137.34 296.496C137.82 296.773 138.172 297.152 138.396 297.632V296.224H139.66V303.44C139.66 304.635 139.361 305.531 138.764 306.128C138.177 306.725 137.308 307.024 136.156 307.024ZM135.964 302.768C136.711 302.768 137.303 302.512 137.74 302C138.177 301.488 138.396 300.8 138.396 299.936C138.396 299.072 138.177 298.389 137.74 297.888C137.303 297.376 136.711 297.12 135.964 297.12C135.228 297.12 134.641 297.376 134.204 297.888C133.767 298.389 133.548 299.072 133.548 299.936C133.548 300.8 133.767 301.488 134.204 302C134.641 302.512 135.228 302.768 135.964 302.768ZM142.555 305.824L141.947 305.36C142.182 305.115 142.347 304.88 142.443 304.656C142.55 304.443 142.619 304.224 142.651 304H141.883V302.368H143.515V303.52C143.515 303.957 143.446 304.363 143.307 304.736C143.168 305.109 142.918 305.472 142.555 305.824ZM152.961 304.144C152.044 304.144 151.356 303.904 150.897 303.424C150.438 302.933 150.209 302.229 150.209 301.312V297.232H148.689V296.224H150.209V293.84H151.505V296.224H153.969V297.232H151.505V301.184C151.505 301.792 151.633 302.256 151.889 302.576C152.145 302.885 152.561 303.04 153.137 303.04C153.308 303.04 153.478 303.019 153.649 302.976C153.82 302.933 153.974 302.891 154.113 302.848L154.337 303.84C154.198 303.915 153.996 303.984 153.729 304.048C153.462 304.112 153.206 304.144 152.961 304.144ZM158.589 304.144C157.831 304.144 157.175 303.979 156.621 303.648C156.066 303.317 155.634 302.853 155.325 302.256C155.026 301.648 154.877 300.933 154.877 300.112C154.877 299.291 155.026 298.581 155.325 297.984C155.634 297.376 156.066 296.907 156.621 296.576C157.175 296.245 157.831 296.08 158.589 296.08C159.335 296.08 159.986 296.245 160.541 296.576C161.106 296.907 161.538 297.376 161.837 297.984C162.146 298.581 162.301 299.291 162.301 300.112C162.301 300.933 162.146 301.648 161.837 302.256C161.538 302.853 161.106 303.317 160.541 303.648C159.986 303.979 159.335 304.144 158.589 304.144ZM158.589 303.104C159.314 303.104 159.895 302.848 160.333 302.336C160.77 301.813 160.989 301.072 160.989 300.112C160.989 299.141 160.77 298.4 160.333 297.888C159.895 297.376 159.314 297.12 158.589 297.12C157.853 297.12 157.266 297.376 156.829 297.888C156.402 298.4 156.189 299.141 156.189 300.112C156.189 301.072 156.402 301.813 156.829 302.336C157.266 302.848 157.853 303.104 158.589 303.104ZM168.357 306.88V296.224H169.621V297.616C169.855 297.136 170.202 296.763 170.661 296.496C171.13 296.219 171.674 296.08 172.293 296.08C172.986 296.08 173.589 296.245 174.101 296.576C174.623 296.896 175.023 297.36 175.301 297.968C175.589 298.565 175.733 299.28 175.733 300.112C175.733 300.933 175.589 301.648 175.301 302.256C175.023 302.853 174.623 303.317 174.101 303.648C173.589 303.979 172.986 304.144 172.293 304.144C171.695 304.144 171.162 304.011 170.693 303.744C170.223 303.477 169.877 303.109 169.653 302.64V306.88H168.357ZM172.021 303.104C172.746 303.104 173.327 302.848 173.765 302.336C174.202 301.813 174.421 301.072 174.421 300.112C174.421 299.141 174.202 298.4 173.765 297.888C173.327 297.376 172.746 297.12 172.021 297.12C171.295 297.12 170.714 297.376 170.277 297.888C169.839 298.4 169.621 299.141 169.621 300.112C169.621 301.072 169.839 301.813 170.277 302.336C170.714 302.848 171.295 303.104 172.021 303.104ZM180.133 304.144C179.599 304.144 179.119 304.043 178.693 303.84C178.277 303.627 177.946 303.339 177.701 302.976C177.455 302.613 177.333 302.208 177.333 301.76C177.333 301.195 177.477 300.747 177.765 300.416C178.063 300.085 178.549 299.851 179.221 299.712C179.903 299.563 180.831 299.488 182.005 299.488H182.517V298.992C182.517 298.331 182.378 297.856 182.101 297.568C181.834 297.269 181.402 297.12 180.805 297.12C180.335 297.12 179.882 297.189 179.445 297.328C179.007 297.456 178.559 297.669 178.101 297.968L177.653 297.024C178.058 296.736 178.549 296.507 179.125 296.336C179.711 296.165 180.271 296.08 180.805 296.08C181.807 296.08 182.549 296.325 183.029 296.816C183.519 297.307 183.765 298.069 183.765 299.104V304H182.549V302.656C182.346 303.115 182.031 303.477 181.605 303.744C181.189 304.011 180.698 304.144 180.133 304.144ZM180.341 303.168C180.981 303.168 181.503 302.949 181.909 302.512C182.314 302.064 182.517 301.499 182.517 300.816V300.336H182.021C181.157 300.336 180.474 300.379 179.973 300.464C179.482 300.539 179.135 300.677 178.933 300.88C178.741 301.072 178.645 301.339 178.645 301.68C178.645 302.117 178.794 302.475 179.093 302.752C179.402 303.029 179.818 303.168 180.341 303.168ZM186.987 306.88L188.315 303.872L185.035 296.224H186.443L189.019 302.528L191.611 296.224H192.971L188.347 306.88H186.987ZM194.15 294.288V292.832H195.75V294.288H194.15ZM194.31 304V296.224H195.606V304H194.31ZM198.029 304V296.224H199.293V297.552C199.549 297.061 199.911 296.693 200.381 296.448C200.85 296.203 201.378 296.08 201.965 296.08C203.81 296.08 204.733 297.104 204.733 299.152V304H203.437V299.232C203.437 298.507 203.293 297.979 203.005 297.648C202.727 297.307 202.279 297.136 201.661 297.136C200.946 297.136 200.375 297.36 199.949 297.808C199.533 298.245 199.325 298.832 199.325 299.568V304H198.029ZM210.562 307.024C209.89 307.024 209.256 306.933 208.658 306.752C208.072 306.581 207.549 306.32 207.09 305.968L207.522 305.024C208.002 305.365 208.477 305.611 208.946 305.76C209.426 305.909 209.944 305.984 210.498 305.984C212.034 305.984 212.802 305.195 212.802 303.616V302.24C212.578 302.731 212.226 303.12 211.746 303.408C211.277 303.685 210.738 303.824 210.13 303.824C209.416 303.824 208.797 303.659 208.274 303.328C207.752 302.997 207.346 302.544 207.058 301.968C206.781 301.381 206.642 300.704 206.642 299.936C206.642 299.168 206.781 298.496 207.058 297.92C207.346 297.333 207.752 296.88 208.274 296.56C208.797 296.24 209.416 296.08 210.13 296.08C210.738 296.08 211.277 296.219 211.746 296.496C212.226 296.773 212.578 297.152 212.802 297.632V296.224H214.066V303.44C214.066 304.635 213.768 305.531 213.17 306.128C212.584 306.725 211.714 307.024 210.562 307.024ZM210.37 302.768C211.117 302.768 211.709 302.512 212.146 302C212.584 301.488 212.802 300.8 212.802 299.936C212.802 299.072 212.584 298.389 212.146 297.888C211.709 297.376 211.117 297.12 210.37 297.12C209.634 297.12 209.048 297.376 208.61 297.888C208.173 298.389 207.954 299.072 207.954 299.936C207.954 300.8 208.173 301.488 208.61 302C209.048 302.512 209.634 302.768 210.37 302.768ZM220.607 304V296.224H221.871V297.616C222.287 296.677 223.14 296.16 224.431 296.064L224.895 296.016L224.991 297.136L224.175 297.232C223.439 297.296 222.879 297.531 222.495 297.936C222.111 298.331 221.919 298.875 221.919 299.568V304H220.607ZM229.751 304.144C228.525 304.144 227.554 303.787 226.839 303.072C226.125 302.347 225.767 301.365 225.767 300.128C225.767 299.328 225.927 298.624 226.247 298.016C226.567 297.397 227.005 296.923 227.559 296.592C228.125 296.251 228.775 296.08 229.511 296.08C230.567 296.08 231.394 296.421 231.991 297.104C232.589 297.776 232.887 298.704 232.887 299.888V300.384H227.031C227.074 301.269 227.33 301.947 227.799 302.416C228.269 302.875 228.919 303.104 229.751 303.104C230.221 303.104 230.669 303.035 231.095 302.896C231.522 302.747 231.927 302.507 232.311 302.176L232.759 303.088C232.407 303.419 231.959 303.68 231.415 303.872C230.871 304.053 230.317 304.144 229.751 304.144ZM229.543 297.04C228.807 297.04 228.226 297.269 227.799 297.728C227.373 298.187 227.122 298.789 227.047 299.536H231.767C231.735 298.747 231.527 298.133 231.143 297.696C230.77 297.259 230.237 297.04 229.543 297.04ZM234.763 304V296.224H236.027V297.552C236.283 297.061 236.646 296.693 237.115 296.448C237.584 296.203 238.112 296.08 238.699 296.08C240.544 296.08 241.467 297.104 241.467 299.152V304H240.171V299.232C240.171 298.507 240.027 297.979 239.739 297.648C239.462 297.307 239.014 297.136 238.395 297.136C237.68 297.136 237.11 297.36 236.683 297.808C236.267 298.245 236.059 298.832 236.059 299.568V304H234.763ZM246.977 304.144C246.059 304.144 245.371 303.904 244.913 303.424C244.454 302.933 244.225 302.229 244.225 301.312V297.232H242.705V296.224H244.225V293.84H245.521V296.224H247.985V297.232H245.521V301.184C245.521 301.792 245.649 302.256 245.905 302.576C246.161 302.885 246.577 303.04 247.153 303.04C247.323 303.04 247.494 303.019 247.665 302.976C247.835 302.933 247.99 302.891 248.129 302.848L248.353 303.84C248.214 303.915 248.011 303.984 247.745 304.048C247.478 304.112 247.222 304.144 246.977 304.144Z" fill="#626262"/>
<path d="M111.54 178V163.9H120.92V165.94H114V169.82H120.48V171.86H114V175.96H120.92V178H111.54ZM121.874 178L125.974 172.94L122.134 168.22H125.054L127.414 171.24L129.774 168.22H132.694L128.834 172.96L132.954 178H130.014L127.394 174.7L124.794 178H121.874ZM134.152 181.6V168.22H136.592V169.78C136.872 169.247 137.292 168.82 137.852 168.5C138.425 168.18 139.072 168.02 139.792 168.02C140.645 168.02 141.392 168.227 142.032 168.64C142.685 169.053 143.192 169.64 143.552 170.4C143.912 171.147 144.092 172.047 144.092 173.1C144.092 174.14 143.912 175.047 143.552 175.82C143.192 176.58 142.692 177.167 142.052 177.58C141.412 177.993 140.658 178.2 139.792 178.2C139.098 178.2 138.472 178.053 137.912 177.76C137.365 177.453 136.945 177.047 136.652 176.54V181.6H134.152ZM139.092 176.3C139.838 176.3 140.438 176.033 140.892 175.5C141.345 174.953 141.572 174.153 141.572 173.1C141.572 172.033 141.345 171.24 140.892 170.72C140.438 170.187 139.838 169.92 139.092 169.92C138.345 169.92 137.745 170.187 137.292 170.72C136.838 171.24 136.612 172.033 136.612 173.1C136.612 174.153 136.838 174.953 137.292 175.5C137.745 176.033 138.345 176.3 139.092 176.3ZM150.964 178.2C149.857 178.2 148.904 177.993 148.104 177.58C147.304 177.167 146.684 176.58 146.244 175.82C145.817 175.06 145.604 174.16 145.604 173.12C145.604 172.107 145.81 171.22 146.224 170.46C146.65 169.7 147.23 169.107 147.964 168.68C148.71 168.24 149.557 168.02 150.504 168.02C151.89 168.02 152.984 168.46 153.784 169.34C154.597 170.22 155.004 171.42 155.004 172.94V173.68H148.004C148.19 175.427 149.19 176.3 151.004 176.3C151.55 176.3 152.097 176.22 152.644 176.06C153.19 175.887 153.69 175.62 154.144 175.26L154.844 176.94C154.377 177.327 153.79 177.633 153.084 177.86C152.377 178.087 151.67 178.2 150.964 178.2ZM150.604 169.72C149.87 169.72 149.277 169.947 148.824 170.4C148.37 170.853 148.097 171.467 148.004 172.24H152.924C152.87 171.427 152.644 170.807 152.244 170.38C151.857 169.94 151.31 169.72 150.604 169.72ZM156.984 178V168.22H159.424V169.94C159.904 168.78 160.93 168.14 162.504 168.02L163.264 167.96L163.424 170.08L161.984 170.22C160.344 170.38 159.524 171.22 159.524 172.74V178H156.984ZM164.656 166.12V163.68H167.456V166.12H164.656ZM164.816 178V168.22H167.316V178H164.816ZM174.733 178.2C173.627 178.2 172.673 177.993 171.873 177.58C171.073 177.167 170.453 176.58 170.013 175.82C169.587 175.06 169.373 174.16 169.373 173.12C169.373 172.107 169.58 171.22 169.993 170.46C170.42 169.7 171 169.107 171.733 168.68C172.48 168.24 173.327 168.02 174.273 168.02C175.66 168.02 176.753 168.46 177.553 169.34C178.367 170.22 178.773 171.42 178.773 172.94V173.68H171.773C171.96 175.427 172.96 176.3 174.773 176.3C175.32 176.3 175.867 176.22 176.413 176.06C176.96 175.887 177.46 175.62 177.913 175.26L178.613 176.94C178.147 177.327 177.56 177.633 176.853 177.86C176.147 178.087 175.44 178.2 174.733 178.2ZM174.373 169.72C173.64 169.72 173.047 169.947 172.593 170.4C172.14 170.853 171.867 171.467 171.773 172.24H176.693C176.64 171.427 176.413 170.807 176.013 170.38C175.627 169.94 175.08 169.72 174.373 169.72ZM170.993 166.92L173.193 162.86H175.393L177.593 166.92H175.993L174.293 164.28L172.593 166.92H170.993ZM180.753 178V168.22H183.193V169.74C183.526 169.18 183.973 168.753 184.533 168.46C185.106 168.167 185.746 168.02 186.453 168.02C188.76 168.02 189.913 169.36 189.913 172.04V178H187.413V172.16C187.413 171.4 187.266 170.847 186.973 170.5C186.693 170.153 186.253 169.98 185.653 169.98C184.92 169.98 184.333 170.213 183.893 170.68C183.466 171.133 183.253 171.74 183.253 172.5V178H180.753ZM196.972 178.2C195.946 178.2 195.052 177.993 194.292 177.58C193.532 177.153 192.946 176.553 192.532 175.78C192.119 175.007 191.912 174.1 191.912 173.06C191.912 172.02 192.119 171.127 192.532 170.38C192.946 169.62 193.532 169.04 194.292 168.64C195.052 168.227 195.946 168.02 196.972 168.02C197.599 168.02 198.219 168.12 198.832 168.32C199.446 168.52 199.952 168.8 200.352 169.16L199.612 170.9C199.266 170.593 198.872 170.36 198.432 170.2C198.006 170.04 197.592 169.96 197.192 169.96C196.326 169.96 195.652 170.233 195.172 170.78C194.706 171.313 194.472 172.08 194.472 173.08C194.472 174.067 194.706 174.847 195.172 175.42C195.652 175.98 196.326 176.26 197.192 176.26C197.579 176.26 197.992 176.18 198.432 176.02C198.872 175.86 199.266 175.62 199.612 175.3L200.352 177.06C199.952 177.407 199.439 177.687 198.812 177.9C198.199 178.1 197.586 178.2 196.972 178.2ZM201.726 166.12V163.68H204.526V166.12H201.726ZM201.886 178V168.22H204.386V178H201.886ZM210.204 178.2C209.497 178.2 208.864 178.067 208.304 177.8C207.757 177.52 207.324 177.147 207.004 176.68C206.697 176.213 206.544 175.687 206.544 175.1C206.544 174.38 206.73 173.813 207.104 173.4C207.477 172.973 208.084 172.667 208.924 172.48C209.764 172.293 210.89 172.2 212.304 172.2H213.004V171.78C213.004 171.113 212.857 170.633 212.564 170.34C212.27 170.047 211.777 169.9 211.084 169.9C210.537 169.9 209.977 169.987 209.404 170.16C208.83 170.32 208.25 170.573 207.664 170.92L206.944 169.22C207.29 168.98 207.697 168.773 208.164 168.6C208.644 168.413 209.144 168.273 209.664 168.18C210.197 168.073 210.697 168.02 211.164 168.02C212.59 168.02 213.65 168.353 214.344 169.02C215.037 169.673 215.384 170.693 215.384 172.08V178H213.044V176.44C212.817 176.987 212.457 177.42 211.964 177.74C211.47 178.047 210.884 178.2 210.204 178.2ZM210.724 176.48C211.377 176.48 211.917 176.253 212.344 175.8C212.784 175.347 213.004 174.773 213.004 174.08V173.64H212.324C211.07 173.64 210.197 173.74 209.704 173.94C209.224 174.127 208.984 174.473 208.984 174.98C208.984 175.42 209.137 175.78 209.444 176.06C209.75 176.34 210.177 176.48 210.724 176.48Z" fill="#3E3E3E"/>
</g>
<defs>
<filter id="filter0_d_425_640" x="0.97" y="0.82" width="337.98" height="426.98" filterUnits="userSpaceOnUse" color-interpolation-filters="sRGB">
<feFlood flood-opacity="0" result="BackgroundImageFix"/>
<feColorMatrix in="SourceAlpha" type="matrix" values="0 0 0 0 0 0 0 0 0 0 0 0 0 0 0 0 0 0 127 0" result="hardAlpha"/>
<feOffset dx="6.46" dy="4.31"/>
<feGaussianBlur stdDeviation="5.745"/>
<feComposite in2="hardAlpha" operator="out"/>
<feColorMatrix type="matrix" values="0 0 0 0 0 0 0 0 0 0 0 0 0 0 0 0 0 0 0.06 0"/>
<feBlend mode="normal" in2="BackgroundImageFix" result="effect1_dropShadow_425_640"/>
<feBlend mode="normal" in="SourceGraphic" in2="effect1_dropShadow_425_640" result="shape"/>
</filter>
<filter id="filter1_d_425_640" x="117" y="34" width="100" height="100" filterUnits="userSpaceOnUse" color-interpolation-filters="sRGB">
<feFlood flood-opacity="0" result="BackgroundImageFix"/>
<feColorMatrix in="SourceAlpha" type="matrix" values="0 0 0 0 0 0 0 0 0 0 0 0 0 0 0 0 0 0 127 0" result="hardAlpha"/>
<feOffset dx="-2" dy="4"/>
<feGaussianBlur stdDeviation="5"/>
<feColorMatrix type="matrix" values="0 0 0 0 0.458824 0 0 0 0 0.0588235 0 0 0 0 0.113725 0 0 0 1 0"/>
<feBlend mode="normal" in2="BackgroundImageFix" result="effect1_dropShadow_425_640"/>
<feBlend mode="normal" in="SourceGraphic" in2="effect1_dropShadow_425_640" result="shape"/>
</filter>
</defs>
</svg>
